SplineFontDB: 3.0
FontName: YesevaOne
FullName: Yeseva One
FamilyName: Yeseva One
Weight: Book
Copyright: Copyright (c) May 20, 2011, Jovanny Lemonad (lemonad@jovanny.ru), with Reserved Font Name "Yeseva" and "Yeseva One". This Font Software is licensed under the SIL Open Font License, Version 1.1. This license is available with a FAQ at: http://scripts.sil.org/OFL
Version: 001.001
ItalicAngle: 0
UnderlinePosition: -50
UnderlineWidth: 50
Ascent: 800
Descent: 200
sfntRevision: 0x00010000
LayerCount: 2
Layer: 0 1 "Back"  1
Layer: 1 1 "Fore"  0
XUID: [1021 288 713564382 7156942]
FSType: 0
OS2Version: 3
OS2_WeightWidthSlopeOnly: 0
OS2_UseTypoMetrics: 1
CreationTime: 1309611720
ModificationTime: 1310125307
PfmFamily: 17
TTFWeight: 400
TTFWidth: 5
LineGap: 0
VLineGap: 0
Panose: 2 0 5 3 0 0 0 2 0 4
OS2TypoAscent: 130
OS2TypoAOffset: 1
OS2TypoDescent: -100
OS2TypoDOffset: 1
OS2TypoLinegap: 0
OS2WinAscent: 0
OS2WinAOffset: 1
OS2WinDescent: 0
OS2WinDOffset: 1
HheadAscent: 0
HheadAOffset: 1
HheadDescent: 0
HheadDOffset: 1
OS2SubXSize: 700
OS2SubYSize: 650
OS2SubXOff: 0
OS2SubYOff: 140
OS2SupXSize: 700
OS2SupYSize: 650
OS2SupXOff: 0
OS2SupYOff: 477
OS2StrikeYSize: 50
OS2StrikeYPos: 250
OS2Vendor: 'PYRS'
OS2CodePages: 00000001.00000000
OS2UnicodeRanges: 800000af.0000000a.00000000.00000000
Lookup: 4 0 0 "'frac' Diagonal Fractions in Latin lookup 0"  {"'frac' Diagonal Fractions in Latin lookup 0 subtable"  } ['frac' ('latn' <'dflt' > ) ]
Lookup: 258 0 0 "'kern' Horizontal Kerning in Latin lookup 0"  {"'kern' Horizontal Kerning in Latin lookup 0 per glyph data 0"  "'kern' Horizontal Kerning in Latin lookup 0 kerning class 1"  } ['kern' ('latn' <'dflt' > ) ]
DEI: 91125
KernClass2: 12+ 13 "'kern' Horizontal Kerning in Latin lookup 0 kerning class 1" 
 50 A Agrave Aacute Acircumflex Atilde Adieresis Aring
 11 D Eth Thorn
 44 I Igrave Iacute Icircumflex Idieresis Itilde
 13 J Jcircumflex
 8 L Lslash
 15 N Ntilde Nacute
 51 O Ograve Oacute Ocircumflex Otilde Odieresis Oslash

StartChar: exclam
Encoding: 33 33 4
Width: 330
GlyphClass: 2
Flags: W
LayerCount: 2
Fore
SplineSet
65 600 m 1,0,1
 65 653 65 653 94 684 c 128,-1,2
 123 715 123 715 165 715 c 256,3,4
 207 715 207 715 236 684 c 128,-1,5
 265 653 265 653 265 600 c 1,6,-1
 185 215 l 1,7,-1
 145 215 l 1,8,-1
 65 600 l 1,0,1
85 70 m 256,9,10
 85 105 85 105 107.5 127.5 c 128,-1,11
 130 150 130 150 165 150 c 256,12,13
 200 150 200 150 222.5 127.5 c 128,-1,14
 245 105 245 105 245 70 c 256,15,16
 245 35 245 35 222.5 12.5 c 128,-1,17
 200 -10 200 -10 165 -10 c 256,18,19
 130 -10 130 -10 107.5 12.5 c 128,-1,20
 85 35 85 35 85 70 c 256,9,10
EndSplineSet
EndChar

StartChar: quotedbl
Encoding: 34 34 5
Width: 400
GlyphClass: 2
Flags: W
LayerCount: 2
Fore
SplineSet
50 640 m 1,0,1
 50 674 50 674 67.5 692 c 128,-1,2
 85 710 85 710 115 710 c 256,3,4
 145 710 145 710 162.5 692 c 128,-1,5
 180 674 180 674 180 640 c 1,6,-1
 140 445 l 1,7,-1
 90 445 l 1,8,-1
 50 640 l 1,0,1
220 640 m 1,9,10
 220 674 220 674 237.5 692 c 128,-1,11
 255 710 255 710 285 710 c 256,12,13
 315 710 315 710 332.5 692 c 128,-1,14
 350 674 350 674 350 640 c 1,15,-1
 310 445 l 1,16,-1
 260 445 l 1,17,-1
 220 640 l 1,9,10
EndSplineSet
EndChar

StartChar: numbersign
Encoding: 35 35 6
Width: 695
GlyphClass: 2
Flags: W
LayerCount: 2
Fore
SplineSet
20 195 m 1,0,-1
 20 235 l 1,1,-1
 173 235 l 1,2,-1
 216 465 l 1,3,-1
 60 465 l 1,4,-1
 60 505 l 1,5,-1
 224 505 l 1,6,-1
 260 700 l 1,7,-1
 310 700 l 1,8,-1
 274 505 l 1,9,-1
 479 505 l 1,10,-1
 515 700 l 1,11,-1
 565 700 l 1,12,-1
 529 505 l 1,13,-1
 675 505 l 1,14,-1
 675 465 l 1,15,-1
 521 465 l 1,16,-1
 478 235 l 1,17,-1
 635 235 l 1,18,-1
 635 195 l 1,19,-1
 471 195 l 1,20,-1
 435 0 l 1,21,-1
 385 0 l 1,22,-1
 421 195 l 1,23,-1
 216 195 l 1,24,-1
 180 0 l 1,25,-1
 130 0 l 1,26,-1
 166 195 l 1,27,-1
 20 195 l 1,0,-1
223 235 m 1,28,-1
 428 235 l 1,29,-1
 471 465 l 1,30,-1
 266 465 l 1,31,-1
 223 235 l 1,28,-1
EndSplineSet
EndChar

StartChar: dollar
Encoding: 36 36 7
Width: 655
GlyphClass: 2
Flags: W
LayerCount: 2
Fore
SplineSet
50 545 m 0,0,1
 50 582 50 582 64 613.5 c 128,-1,2
 78 645 78 645 109 667.5 c 128,-1,3
 140 690 140 690 189.5 702.5 c 128,-1,4
 239 715 239 715 310 715 c 1,5,-1
 310 780 l 1,6,-1
 345 780 l 1,7,-1
 345 712 l 1,8,9
 380 707 380 707 405.5 695 c 128,-1,10
 431 683 431 683 449 671 c 0,11,12
 469 657 469 657 485 640 c 1,13,14
 496 657 496 657 508 670 c 0,15,16
 519 681 519 681 533.5 690.5 c 128,-1,17
 548 700 548 700 565 700 c 2,18,-1
 585 700 l 1,19,-1
 585 510 l 1,20,-1
 540 510 l 1,21,22
 527 539 527 539 507.5 569.5 c 128,-1,23
 488 600 488 600 463.5 626 c 128,-1,24
 439 652 439 652 409 669.5 c 128,-1,25
 379 687 379 687 345 690 c 1,26,-1
 345 438 l 1,27,-1
 475 345 l 2,28,29
 499 328 499 328 522.5 307.5 c 128,-1,30
 546 287 546 287 564.5 263.5 c 128,-1,31
 583 240 583 240 594 214 c 128,-1,32
 605 188 605 188 605 160 c 0,33,34
 605 121 605 121 591.5 89 c 128,-1,35
 578 57 578 57 547 34.5 c 128,-1,36
 516 12 516 12 466.5 -1 c 128,-1,37
 417 -14 417 -14 345 -15 c 1,38,-1
 345 -80 l 1,39,-1
 310 -80 l 1,40,-1
 310 -14 l 1,41,42
 271 -10 271 -10 242 2 c 128,-1,43
 213 14 213 14 193 27 c 0,44,45
 170 42 170 42 155 60 c 1,46,47
 144 43 144 43 132 30 c 0,48,49
 121 19 121 19 106.5 9.5 c 128,-1,50
 92 0 92 0 75 0 c 2,51,-1
 55 0 l 1,52,-1
 55 190 l 1,53,-1
 100 190 l 1,54,55
 113 160 113 160 133.5 128 c 128,-1,56
 154 96 154 96 180.5 70 c 128,-1,57
 207 44 207 44 239.5 27 c 128,-1,58
 272 10 272 10 310 10 c 1,59,-1
 310 261 l 1,60,-1
 180 355 l 2,61,62
 156 372 156 372 132.5 392 c 128,-1,63
 109 412 109 412 90.5 435.5 c 128,-1,64
 72 459 72 459 61 486 c 128,-1,65
 50 513 50 513 50 545 c 0,0,1
225 590 m 0,66,67
 225 549 225 549 248 520.5 c 128,-1,68
 271 492 271 492 310 463 c 1,69,-1
 310 688 l 1,70,71
 268 681 268 681 246.5 655 c 128,-1,72
 225 629 225 629 225 590 c 0,66,67
345 13 m 1,73,74
 388 21 388 21 409 47 c 128,-1,75
 430 73 430 73 430 115 c 0,76,77
 430 155 430 155 407 181 c 128,-1,78
 384 207 384 207 345 236 c 1,79,-1
 345 13 l 1,73,74
EndSplineSet
EndChar

StartChar: percent
Encoding: 37 37 8
Width: 775
GlyphClass: 2
Flags: W
LayerCount: 2
Fore
SplineSet
40 535 m 256,0,1
 40 614 40 614 83.5 662 c 128,-1,2
 127 710 127 710 210 710 c 256,3,4
 293 710 293 710 336.5 662 c 128,-1,5
 380 614 380 614 380 535 c 256,6,7
 380 456 380 456 336.5 408 c 128,-1,8
 293 360 293 360 210 360 c 256,9,10
 127 360 127 360 83.5 408 c 128,-1,11
 40 456 40 456 40 535 c 256,0,1
95 0 m 1,12,-1
 630 700 l 1,13,-1
 675 700 l 1,14,-1
 145 0 l 1,15,-1
 95 0 l 1,12,-1
155 535 m 256,16,17
 155 449 155 449 171 414.5 c 128,-1,18
 187 380 187 380 210 380 c 0,19,20
 221 380 221 380 231 388 c 128,-1,21
 241 396 241 396 248.5 414.5 c 128,-1,22
 256 433 256 433 260.5 462.5 c 128,-1,23
 265 492 265 492 265 535 c 256,24,25
 265 578 265 578 260.5 607.5 c 128,-1,26
 256 637 256 637 248.5 655.5 c 128,-1,27
 241 674 241 674 231 682 c 128,-1,28
 221 690 221 690 210 690 c 0,29,30
 187 690 187 690 171 655.5 c 128,-1,31
 155 621 155 621 155 535 c 256,16,17
395 165 m 256,32,33
 395 244 395 244 438.5 292 c 128,-1,34
 482 340 482 340 565 340 c 256,35,36
 648 340 648 340 691.5 292 c 128,-1,37
 735 244 735 244 735 165 c 256,38,39
 735 86 735 86 691.5 38 c 128,-1,40
 648 -10 648 -10 565 -10 c 256,41,42
 482 -10 482 -10 438.5 38 c 128,-1,43
 395 86 395 86 395 165 c 256,32,33
510 165 m 256,44,45
 510 79 510 79 526 44.5 c 128,-1,46
 542 10 542 10 565 10 c 0,47,48
 576 10 576 10 586 18 c 128,-1,49
 596 26 596 26 603.5 44.5 c 128,-1,50
 611 63 611 63 615.5 92.5 c 128,-1,51
 620 122 620 122 620 165 c 256,52,53
 620 208 620 208 615.5 237.5 c 128,-1,54
 611 267 611 267 603.5 285.5 c 128,-1,55
 596 304 596 304 586 312 c 128,-1,56
 576 320 576 320 565 320 c 0,57,58
 542 320 542 320 526 285.5 c 128,-1,59
 510 251 510 251 510 165 c 256,44,45
EndSplineSet
EndChar

StartChar: ampersand
Encoding: 38 38 9
Width: 755
GlyphClass: 2
Flags: W
LayerCount: 2
Fore
SplineSet
30 160 m 0,0,1
 30 189 30 189 39 212.5 c 128,-1,2
 48 236 48 236 62.5 254.5 c 128,-1,3
 77 273 77 273 96 287 c 128,-1,4
 115 301 115 301 135 311 c 0,5,6
 181 335 181 335 240 345 c 1,7,-1
 175 435 l 2,8,9
 156 461 156 461 138 494.5 c 128,-1,10
 120 528 120 528 120 570 c 0,11,12
 120 602 120 602 132 628.5 c 128,-1,13
 144 655 144 655 169.5 674.5 c 128,-1,14
 195 694 195 694 236 704.5 c 128,-1,15
 277 715 277 715 335 715 c 0,16,17
 377 715 377 715 408 703 c 128,-1,18
 439 691 439 691 461 677 c 0,19,20
 487 660 487 660 505 640 c 1,21,22
 516 657 516 657 528 670 c 0,23,24
 539 681 539 681 553.5 690.5 c 128,-1,25
 568 700 568 700 585 700 c 2,26,-1
 605 700 l 1,27,-1
 605 510 l 1,28,-1
 560 510 l 1,29,30
 547 540 547 540 526.5 572 c 128,-1,31
 506 604 506 604 479.5 630 c 128,-1,32
 453 656 453 656 420 673 c 128,-1,33
 387 690 387 690 350 690 c 0,34,35
 320 690 320 690 300 669 c 128,-1,36
 280 648 280 648 280 610 c 0,37,38
 280 591 280 591 287 572.5 c 128,-1,39
 294 554 294 554 303.5 536.5 c 128,-1,40
 313 519 313 519 325 503 c 2,41,-1
 345 475 l 1,42,-1
 535 210 l 1,43,44
 544 233 544 233 552 259 c 0,45,46
 559 282 559 282 564.5 311.5 c 128,-1,47
 570 341 570 341 570 375 c 1,48,-1
 470 385 l 1,49,-1
 470 400 l 1,50,-1
 685 400 l 1,51,-1
 685 385 l 1,52,-1
 595 375 l 1,53,54
 595 339 595 339 587.5 306 c 128,-1,55
 580 273 580 273 572 247 c 0,56,57
 562 217 562 217 550 190 c 1,58,-1
 670 25 l 1,59,-1
 725 15 l 1,60,-1
 725 0 l 1,61,-1
 560 0 l 2,62,63
 530 0 530 0 502 12 c 128,-1,64
 474 24 474 24 455 50 c 1,65,66
 442 39 442 39 426.5 27.5 c 128,-1,67
 411 16 411 16 390.5 6.5 c 128,-1,68
 370 -3 370 -3 344.5 -9 c 128,-1,69
 319 -15 319 -15 285 -15 c 0,70,71
 216 -15 216 -15 167.5 -1 c 128,-1,72
 119 13 119 13 88.5 37 c 128,-1,73
 58 61 58 61 44 92.5 c 128,-1,74
 30 124 30 124 30 160 c 0,0,1
200 170 m 0,75,76
 200 127 200 127 209.5 96.5 c 128,-1,77
 219 66 219 66 235 47 c 128,-1,78
 251 28 251 28 271.5 19 c 128,-1,79
 292 10 292 10 315 10 c 0,80,81
 353 10 353 10 385 28.5 c 128,-1,82
 417 47 417 47 440 70 c 1,83,-1
 250 330 l 1,84,-1
 242 322 l 2,85,86
 234 314 234 314 225 295.5 c 128,-1,87
 216 277 216 277 208 246 c 128,-1,88
 200 215 200 215 200 170 c 0,75,76
EndSplineSet
EndChar

StartChar: quotesingle
Encoding: 39 39 10
Width: 230
GlyphClass: 2
Flags: W
LayerCount: 2
Fore
SplineSet
50 640 m 1,0,1
 50 674 50 674 67.5 692 c 128,-1,2
 85 710 85 710 115 710 c 256,3,4
 145 710 145 710 162.5 692 c 128,-1,5
 180 674 180 674 180 640 c 1,6,-1
 140 445 l 1,7,-1
 90 445 l 1,8,-1
 50 640 l 1,0,1
EndSplineSet
EndChar

StartChar: parenleft
Encoding: 40 40 11
Width: 355
GlyphClass: 2
Flags: W
LayerCount: 2
Fore
SplineSet
50 265 m 256,0,1
 50 349 50 349 72 425.5 c 128,-1,2
 94 502 94 502 132.5 566.5 c 128,-1,3
 171 631 171 631 223 682.5 c 128,-1,4
 275 734 275 734 335 770 c 1,5,-1
 345 760 l 1,6,7
 277 677 277 677 243.5 552 c 128,-1,8
 210 427 210 427 210 265 c 256,9,10
 210 103 210 103 243.5 -22 c 128,-1,11
 277 -147 277 -147 345 -230 c 1,12,-1
 335 -240 l 1,13,14
 275 -204 275 -204 223 -152.5 c 128,-1,15
 171 -101 171 -101 132.5 -36.5 c 128,-1,16
 94 28 94 28 72 104.5 c 128,-1,17
 50 181 50 181 50 265 c 256,0,1
EndSplineSet
EndChar

StartChar: parenright
Encoding: 41 41 12
Width: 355
GlyphClass: 2
Flags: W
LayerCount: 2
Fore
SplineSet
10 -230 m 1,0,1
 78 -147 78 -147 111.5 -22 c 128,-1,2
 145 103 145 103 145 265 c 256,3,4
 145 427 145 427 111.5 552 c 128,-1,5
 78 677 78 677 10 760 c 1,6,-1
 20 770 l 1,7,8
 80 734 80 734 132 682.5 c 128,-1,9
 184 631 184 631 222.5 566.5 c 128,-1,10
 261 502 261 502 283 425.5 c 128,-1,11
 305 349 305 349 305 265 c 256,12,13
 305 181 305 181 283 104.5 c 128,-1,14
 261 28 261 28 222.5 -36.5 c 128,-1,15
 184 -101 184 -101 132 -152.5 c 128,-1,16
 80 -204 80 -204 20 -240 c 1,17,-1
 10 -230 l 1,0,1
EndSplineSet
EndChar

StartChar: asterisk
Encoding: 42 42 13
Width: 478
GlyphClass: 2
Flags: W
LayerCount: 2
Fore
SplineSet
50 567 m 0,0,1
 50 589 50 589 66 607.5 c 128,-1,2
 82 626 82 626 103 626 c 0,3,4
 121 626 121 626 139 615 c 1,5,-1
 218 535 l 1,6,-1
 184 640 l 1,7,8
 184 700 184 700 239 700 c 256,9,10
 294 700 294 700 294 640 c 1,11,-1
 260 535 l 1,12,-1
 339 615 l 1,13,14
 357 626 357 626 375 626 c 0,15,16
 396 626 396 626 412 607.5 c 128,-1,17
 428 589 428 589 428 567 c 0,18,19
 428 539 428 539 394 520 c 1,20,-1
 299 500 l 1,21,-1
 392 480 l 1,22,23
 426 461 426 461 426 433 c 0,24,25
 426 411 426 411 410 392.5 c 128,-1,26
 394 374 394 374 373 374 c 0,27,28
 355 374 355 374 337 385 c 1,29,-1
 259 465 l 1,30,-1
 294 360 l 1,31,32
 294 300 294 300 239 300 c 256,33,34
 184 300 184 300 184 360 c 1,35,-1
 219 465 l 1,36,-1
 141 385 l 1,37,38
 123 374 123 374 105 374 c 0,39,40
 84 374 84 374 68 392.5 c 128,-1,41
 52 411 52 411 52 433 c 0,42,43
 52 461 52 461 86 480 c 1,44,-1
 179 500 l 1,45,-1
 84 520 l 1,46,47
 50 539 50 539 50 567 c 0,0,1
EndSplineSet
EndChar

StartChar: plus
Encoding: 43 43 14
Width: 535
GlyphClass: 2
Flags: W
LayerCount: 2
Fore
SplineSet
30 310 m 1,0,-1
 30 355 l 1,1,-1
 245 355 l 1,2,-1
 245 580 l 1,3,-1
 290 580 l 1,4,-1
 290 355 l 1,5,-1
 505 355 l 1,6,-1
 505 310 l 1,7,-1
 290 310 l 1,8,-1
 290 85 l 1,9,-1
 245 85 l 1,10,-1
 245 310 l 1,11,-1
 30 310 l 1,0,-1
EndSplineSet
EndChar

StartChar: comma
Encoding: 44 44 15
Width: 280
GlyphClass: 2
Flags: W
LayerCount: 2
Fore
SplineSet
60 70 m 256,0,1
 60 105 60 105 81.5 127.5 c 128,-1,2
 103 150 103 150 135 150 c 0,3,4
 170 150 170 150 195 125.5 c 128,-1,5
 220 101 220 101 220 51 c 0,6,7
 220 -12 220 -12 200.5 -48 c 128,-1,8
 181 -84 181 -84 158 -103 c 0,9,10
 131 -125 131 -125 97 -133 c 1,11,-1
 88 -114 l 1,12,13
 113 -106 113 -106 134 -90 c 0,14,15
 152 -76 152 -76 167.5 -53 c 128,-1,16
 183 -30 183 -30 187 8 c 1,17,18
 179 3 179 3 171 -1 c 256,19,20
 163 -5 163 -5 154.5 -7.5 c 128,-1,21
 146 -10 146 -10 135 -10 c 0,22,23
 103 -10 103 -10 81.5 12.5 c 128,-1,24
 60 35 60 35 60 70 c 256,0,1
EndSplineSet
EndChar

StartChar: hyphen
Encoding: 45 45 16
Width: 385
GlyphClass: 2
Flags: W
LayerCount: 2
Fore
SplineSet
30 310 m 1,0,-1
 30 365 l 1,1,-1
 355 365 l 1,2,-1
 355 310 l 1,3,-1
 30 310 l 1,0,-1
EndSplineSet
EndChar

StartChar: period
Encoding: 46 46 17
Width: 280
GlyphClass: 2
Flags: W
LayerCount: 2
Fore
SplineSet
60 70 m 256,0,1
 60 105 60 105 82.5 127.5 c 128,-1,2
 105 150 105 150 140 150 c 256,3,4
 175 150 175 150 197.5 127.5 c 128,-1,5
 220 105 220 105 220 70 c 256,6,7
 220 35 220 35 197.5 12.5 c 128,-1,8
 175 -10 175 -10 140 -10 c 256,9,10
 105 -10 105 -10 82.5 12.5 c 128,-1,11
 60 35 60 35 60 70 c 256,0,1
EndSplineSet
EndChar

StartChar: slash
Encoding: 47 47 18
Width: 390
GlyphClass: 2
Flags: W
LayerCount: 2
Fore
SplineSet
10 0 m 1,0,-1
 335 700 l 1,1,-1
 380 700 l 1,2,-1
 60 0 l 1,3,-1
 10 0 l 1,0,-1
EndSplineSet
EndChar

StartChar: zero
Encoding: 48 48 19
Width: 690
GlyphClass: 2
Flags: W
LayerCount: 2
Fore
SplineSet
50 350 m 256,0,1
 50 438 50 438 73 506 c 128,-1,2
 96 574 96 574 135.5 620.5 c 128,-1,3
 175 667 175 667 229 691 c 128,-1,4
 283 715 283 715 345 715 c 256,5,6
 407 715 407 715 461 691 c 128,-1,7
 515 667 515 667 554.5 620.5 c 128,-1,8
 594 574 594 574 617 506 c 128,-1,9
 640 438 640 438 640 350 c 256,10,11
 640 262 640 262 617 194 c 128,-1,12
 594 126 594 126 554.5 79.5 c 128,-1,13
 515 33 515 33 461 9 c 128,-1,14
 407 -15 407 -15 345 -15 c 256,15,16
 283 -15 283 -15 229 9 c 128,-1,17
 175 33 175 33 135.5 79.5 c 128,-1,18
 96 126 96 126 73 194 c 128,-1,19
 50 262 50 262 50 350 c 256,0,1
225 350 m 256,20,21
 225 249 225 249 235.5 182.5 c 128,-1,22
 246 116 246 116 262.5 76.5 c 128,-1,23
 279 37 279 37 300.5 21 c 128,-1,24
 322 5 322 5 345 5 c 0,25,26
 367 5 367 5 389 21 c 128,-1,27
 411 37 411 37 427.5 76.5 c 128,-1,28
 444 116 444 116 454.5 182.5 c 128,-1,29
 465 249 465 249 465 350 c 256,30,31
 465 451 465 451 454.5 517.5 c 128,-1,32
 444 584 444 584 427.5 623.5 c 128,-1,33
 411 663 411 663 389 679 c 128,-1,34
 367 695 367 695 345 695 c 0,35,36
 322 695 322 695 300.5 679 c 128,-1,37
 279 663 279 663 262.5 623.5 c 128,-1,38
 246 584 246 584 235.5 517.5 c 128,-1,39
 225 451 225 451 225 350 c 256,20,21
EndSplineSet
EndChar

StartChar: one
Encoding: 49 49 20
Width: 415
GlyphClass: 2
Flags: W
LayerCount: 2
Fore
SplineSet
10 550 m 1,0,-1
 215 700 l 1,1,-1
 305 700 l 1,2,-1
 305 25 l 1,3,-1
 385 15 l 1,4,-1
 385 0 l 1,5,-1
 55 0 l 1,6,-1
 55 15 l 1,7,-1
 135 25 l 1,8,-1
 135 590 l 1,9,-1
 25 525 l 1,10,-1
 10 550 l 1,0,-1
EndSplineSet
EndChar

StartChar: two
Encoding: 50 50 21
Width: 600
GlyphClass: 2
Flags: W
LayerCount: 2
Fore
SplineSet
30 0 m 1,0,-1
 30 25 l 2,1,2
 30 89 30 89 56.5 138.5 c 128,-1,3
 83 188 83 188 123 230 c 128,-1,4
 163 272 163 272 210 309 c 128,-1,5
 257 346 257 346 297 383.5 c 128,-1,6
 337 421 337 421 363.5 462.5 c 128,-1,7
 390 504 390 504 390 555 c 0,8,9
 390 623 390 623 355 656.5 c 128,-1,10
 320 690 320 690 245 690 c 0,11,12
 228 690 228 690 213 687.5 c 128,-1,13
 198 685 198 685 186 682 c 0,14,15
 172 678 172 678 160 675 c 1,16,-1
 160 515 l 1,17,18
 154 513 154 513 147 512 c 0,19,20
 141 511 141 511 132.5 510.5 c 128,-1,21
 124 510 124 510 115 510 c 0,22,23
 73 510 73 510 51.5 532.5 c 128,-1,24
 30 555 30 555 30 585 c 0,25,26
 30 609 30 609 46 632.5 c 128,-1,27
 62 656 62 656 93.5 674.5 c 128,-1,28
 125 693 125 693 171.5 704 c 128,-1,29
 218 715 218 715 280 715 c 0,30,31
 353 715 353 715 406 700 c 128,-1,32
 459 685 459 685 493 657.5 c 128,-1,33
 527 630 527 630 543.5 592.5 c 128,-1,34
 560 555 560 555 560 510 c 256,35,36
 560 465 560 465 542.5 431 c 128,-1,37
 525 397 525 397 496 370 c 128,-1,38
 467 343 467 343 428.5 321 c 128,-1,39
 390 299 390 299 348 279 c 2,40,-1
 264 239 l 2,41,42
 221 219 221 219 182.5 195.5 c 128,-1,43
 144 172 144 172 113.5 142.5 c 128,-1,44
 83 113 83 113 65 75 c 1,45,-1
 449 75 l 1,46,47
 451 101 451 101 461 125.5 c 128,-1,48
 471 150 471 150 482 169 c 0,49,50
 494 191 494 191 510 210 c 1,51,-1
 540 210 l 1,52,-1
 540 0 l 1,53,-1
 30 0 l 1,0,-1
EndSplineSet
EndChar

StartChar: three
Encoding: 51 51 22
Width: 605
GlyphClass: 2
Flags: W
LayerCount: 2
Fore
SplineSet
20 115 m 0,0,1
 20 145 20 145 41.5 167.5 c 128,-1,2
 63 190 63 190 105 190 c 0,3,4
 114 190 114 190 122.5 189 c 128,-1,5
 131 188 131 188 137 187 c 0,6,7
 144 186 144 186 150 185 c 1,8,-1
 150 25 l 1,9,10
 162 21 162 21 177 17 c 0,11,12
 190 14 190 14 207 12 c 128,-1,13
 224 10 224 10 245 10 c 0,14,15
 320 10 320 10 357.5 49.5 c 128,-1,16
 395 89 395 89 395 180 c 0,17,18
 395 263 395 263 356 304 c 128,-1,19
 317 345 317 345 245 345 c 2,20,-1
 170 345 l 1,21,-1
 170 370 l 1,22,-1
 230 370 l 2,23,24
 302 370 302 370 341 410 c 128,-1,25
 380 450 380 450 380 525 c 0,26,27
 380 612 380 612 345 651 c 128,-1,28
 310 690 310 690 250 690 c 0,29,30
 233 690 233 690 218 687.5 c 128,-1,31
 203 685 203 685 191 682 c 0,32,33
 177 678 177 678 165 675 c 1,34,-1
 165 515 l 1,35,36
 159 513 159 513 152 512 c 0,37,38
 146 511 146 511 137.5 510.5 c 128,-1,39
 129 510 129 510 120 510 c 0,40,41
 78 510 78 510 56.5 532.5 c 128,-1,42
 35 555 35 555 35 585 c 0,43,44
 35 609 35 609 51 632.5 c 128,-1,45
 67 656 67 656 98.5 674.5 c 128,-1,46
 130 693 130 693 176.5 704 c 128,-1,47
 223 715 223 715 285 715 c 0,48,49
 345 715 345 715 394 702 c 128,-1,50
 443 689 443 689 477.5 665 c 128,-1,51
 512 641 512 641 531 605.5 c 128,-1,52
 550 570 550 570 550 525 c 0,53,54
 550 457 550 457 496.5 412.5 c 128,-1,55
 443 368 443 368 330 360 c 1,56,57
 447 352 447 352 506 303.5 c 128,-1,58
 565 255 565 255 565 180 c 0,59,60
 565 86 565 86 489 35.5 c 128,-1,61
 413 -15 413 -15 270 -15 c 0,62,63
 208 -15 208 -15 161.5 -4 c 128,-1,64
 115 7 115 7 83.5 25.5 c 128,-1,65
 52 44 52 44 36 67.5 c 128,-1,66
 20 91 20 91 20 115 c 0,0,1
EndSplineSet
EndChar

StartChar: four
Encoding: 52 52 23
Width: 630
GlyphClass: 2
Flags: W
LayerCount: 2
Fore
SplineSet
0 160 m 1,0,-1
 0 185 l 1,1,-1
 465 710 l 1,2,-1
 500 710 l 1,3,-1
 500 200 l 1,4,-1
 620 200 l 1,5,-1
 620 160 l 1,6,-1
 500 160 l 1,7,-1
 500 25 l 1,8,-1
 580 15 l 1,9,-1
 580 0 l 1,10,-1
 250 0 l 1,11,-1
 250 15 l 1,12,-1
 330 25 l 1,13,-1
 330 160 l 1,14,-1
 0 160 l 1,0,-1
50 200 m 1,15,-1
 330 200 l 1,16,-1
 330 515 l 1,17,-1
 50 200 l 1,15,-1
EndSplineSet
EndChar

StartChar: five
Encoding: 53 53 24
Width: 595
GlyphClass: 2
Flags: W
LayerCount: 2
Fore
SplineSet
30 115 m 0,0,1
 30 145 30 145 51.5 167.5 c 128,-1,2
 73 190 73 190 115 190 c 0,3,4
 124 190 124 190 132.5 189 c 128,-1,5
 141 188 141 188 147 187 c 0,6,7
 154 186 154 186 160 185 c 1,8,-1
 160 25 l 1,9,10
 172 21 172 21 186 17 c 0,11,12
 198 14 198 14 213 12 c 128,-1,13
 228 10 228 10 245 10 c 0,14,15
 277 10 277 10 303 21 c 128,-1,16
 329 32 329 32 347 57 c 128,-1,17
 365 82 365 82 375 122 c 128,-1,18
 385 162 385 162 385 220 c 0,19,20
 385 329 385 329 347 377 c 128,-1,21
 309 425 309 425 245 425 c 0,22,23
 211 425 211 425 181.5 417 c 128,-1,24
 152 409 152 409 129 400 c 0,25,26
 103 389 103 389 80 375 c 1,27,-1
 55 400 l 1,28,-1
 75 700 l 1,29,-1
 429 700 l 1,30,31
 431 726 431 726 441 749 c 128,-1,32
 451 772 451 772 462 789 c 0,33,34
 474 808 474 808 490 825 c 1,35,-1
 520 825 l 1,36,-1
 520 625 l 1,37,-1
 100 625 l 1,38,-1
 85 410 l 1,39,40
 107 421 107 421 136 430 c 0,41,42
 160 438 160 438 194 444 c 128,-1,43
 228 450 228 450 270 450 c 0,44,45
 406 450 406 450 480.5 391.5 c 128,-1,46
 555 333 555 333 555 220 c 0,47,48
 555 103 555 103 480.5 44 c 128,-1,49
 406 -15 406 -15 270 -15 c 0,50,51
 212 -15 212 -15 167 -4 c 128,-1,52
 122 7 122 7 91.5 25.5 c 128,-1,53
 61 44 61 44 45.5 67.5 c 128,-1,54
 30 91 30 91 30 115 c 0,0,1
EndSplineSet
EndChar

StartChar: six
Encoding: 54 54 25
Width: 640
GlyphClass: 2
Flags: W
LayerCount: 2
Fore
SplineSet
50 350 m 0,0,1
 50 527 50 527 125 621 c 128,-1,2
 200 715 200 715 340 715 c 0,3,4
 394 715 394 715 437 704 c 128,-1,5
 480 693 480 693 509.5 674.5 c 128,-1,6
 539 656 539 656 554.5 632.5 c 128,-1,7
 570 609 570 609 570 585 c 0,8,9
 570 555 570 555 548.5 532.5 c 128,-1,10
 527 510 527 510 485 510 c 0,11,12
 475 510 475 510 467 510.5 c 128,-1,13
 459 511 459 511 453 512 c 0,14,15
 446 513 446 513 440 515 c 1,16,-1
 440 675 l 1,17,18
 429 678 429 678 418 682 c 0,19,20
 408 685 408 685 395.5 687.5 c 128,-1,21
 383 690 383 690 370 690 c 0,22,23
 338 690 338 690 311 675 c 128,-1,24
 284 660 284 660 263.5 626.5 c 128,-1,25
 243 593 243 593 231.5 538.5 c 128,-1,26
 220 484 220 484 220 405 c 1,27,-1
 256 412 l 2,28,29
 273 415 273 415 296 417.5 c 128,-1,30
 319 420 319 420 345 420 c 0,31,32
 414 420 414 420 462.5 404 c 128,-1,33
 511 388 511 388 541.5 360 c 128,-1,34
 572 332 572 332 586 293.5 c 128,-1,35
 600 255 600 255 600 210 c 0,36,37
 600 163 600 163 582.5 122 c 128,-1,38
 565 81 565 81 530 50.5 c 128,-1,39
 495 20 495 20 443.5 2.5 c 128,-1,40
 392 -15 392 -15 325 -15 c 0,41,42
 263 -15 263 -15 212.5 6 c 128,-1,43
 162 27 162 27 126 71.5 c 128,-1,44
 90 116 90 116 70 185 c 128,-1,45
 50 254 50 254 50 350 c 0,0,1
220 270 m 2,46,47
 220 191 220 191 228 140 c 128,-1,48
 236 89 236 89 250.5 59 c 128,-1,49
 265 29 265 29 285.5 17 c 128,-1,50
 306 5 306 5 330 5 c 0,51,52
 349 5 349 5 367 16 c 128,-1,53
 385 27 385 27 399 51.5 c 128,-1,54
 413 76 413 76 421.5 115 c 128,-1,55
 430 154 430 154 430 210 c 0,56,57
 430 304 430 304 402.5 349.5 c 128,-1,58
 375 395 375 395 315 395 c 0,59,60
 296 395 296 395 279 392.5 c 128,-1,61
 262 390 262 390 249 387 c 2,62,-1
 220 380 l 1,63,-1
 220 270 l 2,46,47
EndSplineSet
EndChar

StartChar: seven
Encoding: 55 55 26
Width: 570
GlyphClass: 2
Flags: W
LayerCount: 2
Fore
SplineSet
30 490 m 1,0,-1
 30 700 l 1,1,-1
 540 700 l 1,2,-1
 540 675 l 2,3,4
 540 621 540 621 524.5 573 c 128,-1,5
 509 525 509 525 485.5 477.5 c 128,-1,6
 462 430 462 430 435 380.5 c 128,-1,7
 408 331 408 331 384.5 274 c 128,-1,8
 361 217 361 217 345.5 149.5 c 128,-1,9
 330 82 330 82 330 0 c 1,10,-1
 150 0 l 1,11,12
 160 85 160 85 185.5 152 c 128,-1,13
 211 219 211 219 245 274 c 128,-1,14
 279 329 279 329 318 375 c 2,15,-1
 393 461 l 2,16,17
 429 502 429 502 459 541.5 c 128,-1,18
 489 581 489 581 505 625 c 1,19,-1
 121 625 l 1,20,21
 119 599 119 599 109 574.5 c 128,-1,22
 99 550 99 550 88 531 c 0,23,24
 75 509 75 509 60 490 c 1,25,-1
 30 490 l 1,0,-1
EndSplineSet
EndChar

StartChar: eight
Encoding: 56 56 27
Width: 630
GlyphClass: 2
Flags: W
LayerCount: 2
Fore
SplineSet
40 155 m 0,0,1
 40 192 40 192 52.5 221 c 128,-1,2
 65 250 65 250 86.5 272.5 c 128,-1,3
 108 295 108 295 137 312.5 c 128,-1,4
 166 330 166 330 200 345 c 1,5,6
 172 362 172 362 147.5 381 c 128,-1,7
 123 400 123 400 104.5 423.5 c 128,-1,8
 86 447 86 447 75.5 475.5 c 128,-1,9
 65 504 65 504 65 540 c 0,10,11
 65 623 65 623 132.5 669 c 128,-1,12
 200 715 200 715 340 715 c 0,13,14
 398 715 398 715 440.5 702.5 c 128,-1,15
 483 690 483 690 510.5 668.5 c 128,-1,16
 538 647 538 647 551.5 618 c 128,-1,17
 565 589 565 589 565 555 c 0,18,19
 565 523 565 523 552.5 498 c 128,-1,20
 540 473 540 473 519 453 c 128,-1,21
 498 433 498 433 470 416.5 c 128,-1,22
 442 400 442 400 410 385 c 1,23,24
 444 366 444 366 476 346 c 128,-1,25
 508 326 508 326 533.5 301.5 c 128,-1,26
 559 277 559 277 574.5 247 c 128,-1,27
 590 217 590 217 590 180 c 0,28,29
 590 141 590 141 572 105.5 c 128,-1,30
 554 70 554 70 516.5 43 c 128,-1,31
 479 16 479 16 421.5 0.5 c 128,-1,32
 364 -15 364 -15 285 -15 c 0,33,34
 225 -15 225 -15 179 -0.5 c 128,-1,35
 133 14 133 14 102.5 38 c 128,-1,36
 72 62 72 62 56 92.5 c 128,-1,37
 40 123 40 123 40 155 c 0,0,1
70 155 m 0,38,39
 70 129 70 129 83.5 103 c 128,-1,40
 97 77 97 77 122.5 56.5 c 128,-1,41
 148 36 148 36 184 23 c 128,-1,42
 220 10 220 10 265 10 c 0,43,44
 340 10 340 10 380 47.5 c 128,-1,45
 420 85 420 85 420 145 c 0,46,47
 420 173 420 173 403 198.5 c 128,-1,48
 386 224 386 224 359.5 246.5 c 128,-1,49
 333 269 333 269 300 288.5 c 128,-1,50
 267 308 267 308 235 325 c 1,51,52
 201 314 201 314 171 298 c 128,-1,53
 141 282 141 282 118.5 261 c 128,-1,54
 96 240 96 240 83 213.5 c 128,-1,55
 70 187 70 187 70 155 c 0,38,39
235 575 m 0,56,57
 235 547 235 547 247 523 c 128,-1,58
 259 499 259 499 279.5 478.5 c 128,-1,59
 300 458 300 458 326 440 c 128,-1,60
 352 422 352 422 380 405 c 1,61,62
 412 418 412 418 440 433.5 c 128,-1,63
 468 449 468 449 489 467 c 128,-1,64
 510 485 510 485 522.5 507 c 128,-1,65
 535 529 535 529 535 555 c 0,66,67
 535 583 535 583 524 607.5 c 128,-1,68
 513 632 513 632 491 650.5 c 128,-1,69
 469 669 469 669 436 679.5 c 128,-1,70
 403 690 403 690 360 690 c 0,71,72
 303 690 303 690 269 657 c 128,-1,73
 235 624 235 624 235 575 c 0,56,57
EndSplineSet
EndChar

StartChar: nine
Encoding: 57 57 28
Width: 640
GlyphClass: 2
Flags: W
LayerCount: 2
Fore
SplineSet
40 490 m 0,0,1
 40 537 40 537 57.5 578 c 128,-1,2
 75 619 75 619 110 649.5 c 128,-1,3
 145 680 145 680 196 697.5 c 128,-1,4
 247 715 247 715 315 715 c 0,5,6
 377 715 377 715 427.5 694 c 128,-1,7
 478 673 478 673 514 628.5 c 128,-1,8
 550 584 550 584 570 515 c 128,-1,9
 590 446 590 446 590 350 c 0,10,11
 590 173 590 173 515 79 c 128,-1,12
 440 -15 440 -15 300 -15 c 0,13,14
 246 -15 246 -15 203 -4 c 128,-1,15
 160 7 160 7 130.5 25.5 c 128,-1,16
 101 44 101 44 85.5 67.5 c 128,-1,17
 70 91 70 91 70 115 c 0,18,19
 70 145 70 145 91.5 167.5 c 128,-1,20
 113 190 113 190 155 190 c 0,21,22
 164 190 164 190 172.5 189 c 128,-1,23
 181 188 181 188 187 187 c 0,24,25
 194 186 194 186 200 185 c 1,26,-1
 200 25 l 1,27,-1
 222 17 l 2,28,29
 232 14 232 14 244 12 c 128,-1,30
 256 10 256 10 270 10 c 0,31,32
 301 10 301 10 328.5 25 c 128,-1,33
 356 40 356 40 376 73.5 c 128,-1,34
 396 107 396 107 408 161.5 c 128,-1,35
 420 216 420 216 420 295 c 1,36,37
 403 291 403 291 384 287 c 0,38,39
 367 284 367 284 344 282 c 128,-1,40
 321 280 321 280 295 280 c 0,41,42
 226 280 226 280 177.5 296 c 128,-1,43
 129 312 129 312 98.5 340 c 128,-1,44
 68 368 68 368 54 406.5 c 128,-1,45
 40 445 40 445 40 490 c 0,0,1
210 490 m 0,46,47
 210 396 210 396 237.5 350.5 c 128,-1,48
 265 305 265 305 325 305 c 0,49,50
 344 305 344 305 360.5 307 c 128,-1,51
 377 309 377 309 391 312 c 2,52,-1
 420 320 l 1,53,-1
 420 430 l 2,54,55
 420 509 420 509 412 560 c 128,-1,56
 404 611 404 611 389.5 641 c 128,-1,57
 375 671 375 671 354.5 683 c 128,-1,58
 334 695 334 695 310 695 c 0,59,60
 291 695 291 695 273 684 c 128,-1,61
 255 673 255 673 241 648.5 c 128,-1,62
 227 624 227 624 218.5 585 c 128,-1,63
 210 546 210 546 210 490 c 0,46,47
EndSplineSet
EndChar

StartChar: colon
Encoding: 58 58 29
Width: 280
GlyphClass: 2
Flags: W
LayerCount: 2
Fore
SplineSet
60 70 m 256,0,1
 60 105 60 105 82.5 127.5 c 128,-1,2
 105 150 105 150 140 150 c 256,3,4
 175 150 175 150 197.5 127.5 c 128,-1,5
 220 105 220 105 220 70 c 256,6,7
 220 35 220 35 197.5 12.5 c 128,-1,8
 175 -10 175 -10 140 -10 c 256,9,10
 105 -10 105 -10 82.5 12.5 c 128,-1,11
 60 35 60 35 60 70 c 256,0,1
60 430 m 256,12,13
 60 465 60 465 82.5 487.5 c 128,-1,14
 105 510 105 510 140 510 c 256,15,16
 175 510 175 510 197.5 487.5 c 128,-1,17
 220 465 220 465 220 430 c 256,18,19
 220 395 220 395 197.5 372.5 c 128,-1,20
 175 350 175 350 140 350 c 256,21,22
 105 350 105 350 82.5 372.5 c 128,-1,23
 60 395 60 395 60 430 c 256,12,13
EndSplineSet
EndChar

StartChar: semicolon
Encoding: 59 59 30
Width: 290
GlyphClass: 2
Flags: W
LayerCount: 2
Fore
SplineSet
60 70 m 256,0,1
 60 105 60 105 81.5 127.5 c 128,-1,2
 103 150 103 150 135 150 c 0,3,4
 170 150 170 150 195 125.5 c 128,-1,5
 220 101 220 101 220 51 c 0,6,7
 220 -12 220 -12 200.5 -48 c 128,-1,8
 181 -84 181 -84 158 -103 c 0,9,10
 131 -125 131 -125 97 -133 c 1,11,-1
 88 -114 l 1,12,13
 113 -106 113 -106 134 -90 c 0,14,15
 152 -76 152 -76 167.5 -53 c 128,-1,16
 183 -30 183 -30 187 8 c 1,17,18
 179 3 179 3 171 -1 c 256,19,20
 163 -5 163 -5 154.5 -7.5 c 128,-1,21
 146 -10 146 -10 135 -10 c 0,22,23
 103 -10 103 -10 81.5 12.5 c 128,-1,24
 60 35 60 35 60 70 c 256,0,1
60 430 m 256,25,26
 60 465 60 465 82.5 487.5 c 128,-1,27
 105 510 105 510 140 510 c 256,28,29
 175 510 175 510 197.5 487.5 c 128,-1,30
 220 465 220 465 220 430 c 256,31,32
 220 395 220 395 197.5 372.5 c 128,-1,33
 175 350 175 350 140 350 c 256,34,35
 105 350 105 350 82.5 372.5 c 128,-1,36
 60 395 60 395 60 430 c 256,25,26
EndSplineSet
EndChar

StartChar: less
Encoding: 60 60 31
Width: 490
GlyphClass: 2
Flags: W
LayerCount: 2
Fore
SplineSet
0 290 m 1,0,-1
 440 590 l 1,1,-1
 440 530 l 1,2,-1
 90 290 l 1,3,-1
 440 50 l 1,4,-1
 440 -10 l 1,5,-1
 0 290 l 1,0,-1
EndSplineSet
EndChar

StartChar: equal
Encoding: 61 61 32
Width: 535
GlyphClass: 2
Flags: W
LayerCount: 2
Fore
SplineSet
30 200 m 1,0,-1
 30 245 l 1,1,-1
 505 245 l 1,2,-1
 505 200 l 1,3,-1
 30 200 l 1,0,-1
30 395 m 1,4,-1
 30 440 l 1,5,-1
 505 440 l 1,6,-1
 505 395 l 1,7,-1
 30 395 l 1,4,-1
EndSplineSet
EndChar

StartChar: greater
Encoding: 62 62 33
Width: 490
GlyphClass: 2
Flags: W
LayerCount: 2
Fore
SplineSet
50 -10 m 1,0,-1
 50 50 l 1,1,-1
 400 290 l 1,2,-1
 50 530 l 1,3,-1
 50 590 l 1,4,-1
 490 290 l 1,5,-1
 50 -10 l 1,0,-1
EndSplineSet
EndChar

StartChar: question
Encoding: 63 63 34
Width: 580
GlyphClass: 2
Flags: W
LayerCount: 2
Fore
SplineSet
20 585 m 0,0,1
 20 609 20 609 36 632.5 c 128,-1,2
 52 656 52 656 83.5 674.5 c 128,-1,3
 115 693 115 693 161.5 704 c 128,-1,4
 208 715 208 715 270 715 c 0,5,6
 343 715 343 715 396 700 c 128,-1,7
 449 685 449 685 483 658.5 c 128,-1,8
 517 632 517 632 533.5 596.5 c 128,-1,9
 550 561 550 561 550 520 c 0,10,11
 550 471 550 471 526 433.5 c 128,-1,12
 502 396 502 396 464 368 c 128,-1,13
 426 340 426 340 379 322 c 128,-1,14
 332 304 332 304 285 295 c 1,15,-1
 285 215 l 1,16,-1
 235 215 l 1,17,-1
 235 320 l 1,18,19
 299 350 299 350 339.5 404.5 c 128,-1,20
 380 459 380 459 380 545 c 0,21,22
 380 620 380 620 345 655 c 128,-1,23
 310 690 310 690 235 690 c 0,24,25
 218 690 218 690 203 687.5 c 128,-1,26
 188 685 188 685 176 682 c 0,27,28
 162 678 162 678 150 675 c 1,29,-1
 150 515 l 1,30,31
 144 513 144 513 137 512 c 0,32,33
 131 511 131 511 122.5 510.5 c 128,-1,34
 114 510 114 510 105 510 c 0,35,36
 63 510 63 510 41.5 532.5 c 128,-1,37
 20 555 20 555 20 585 c 0,0,1
180 70 m 256,38,39
 180 105 180 105 202.5 127.5 c 128,-1,40
 225 150 225 150 260 150 c 256,41,42
 295 150 295 150 317.5 127.5 c 128,-1,43
 340 105 340 105 340 70 c 256,44,45
 340 35 340 35 317.5 12.5 c 128,-1,46
 295 -10 295 -10 260 -10 c 256,47,48
 225 -10 225 -10 202.5 12.5 c 128,-1,49
 180 35 180 35 180 70 c 256,38,39
EndSplineSet
EndChar

StartChar: at
Encoding: 64 64 35
Width: 840
GlyphClass: 2
Flags: W
LayerCount: 2
Fore
SplineSet
40 350 m 256,0,1
 40 425 40 425 68.5 490.5 c 128,-1,2
 97 556 97 556 147.5 605 c 128,-1,3
 198 654 198 654 267.5 682 c 128,-1,4
 337 710 337 710 420 710 c 0,5,6
 502 710 502 710 572 682 c 128,-1,7
 642 654 642 654 692.5 605 c 128,-1,8
 743 556 743 556 771.5 490.5 c 128,-1,9
 800 425 800 425 800 350 c 0,10,11
 800 303 800 303 790.5 263.5 c 128,-1,12
 781 224 781 224 761.5 195.5 c 128,-1,13
 742 167 742 167 711.5 151 c 128,-1,14
 681 135 681 135 640 135 c 0,15,16
 583 135 583 135 551.5 151 c 128,-1,17
 520 167 520 167 504 187 c 0,18,19
 486 210 486 210 480 240 c 1,20,21
 473 210 473 210 457 187 c 0,22,23
 443 167 443 167 418.5 151 c 128,-1,24
 394 135 394 135 355 135 c 0,25,26
 321 135 321 135 291 148.5 c 128,-1,27
 261 162 261 162 238.5 186.5 c 128,-1,28
 216 211 216 211 203 245 c 128,-1,29
 190 279 190 279 190 320 c 0,30,31
 190 433 190 433 257 496.5 c 128,-1,32
 324 560 324 560 460 560 c 2,33,-1
 610 560 l 1,34,-1
 610 215 l 2,35,36
 610 189 610 189 623.5 174.5 c 128,-1,37
 637 160 637 160 660 160 c 0,38,39
 679 160 679 160 697 171.5 c 128,-1,40
 715 183 715 183 729 206.5 c 128,-1,41
 743 230 743 230 751.5 265.5 c 128,-1,42
 760 301 760 301 760 350 c 0,43,44
 760 423 760 423 734.5 484 c 128,-1,45
 709 545 709 545 663.5 588.5 c 128,-1,46
 618 632 618 632 555.5 656 c 128,-1,47
 493 680 493 680 420 680 c 256,48,49
 347 680 347 680 284.5 656 c 128,-1,50
 222 632 222 632 176.5 588.5 c 128,-1,51
 131 545 131 545 105.5 484 c 128,-1,52
 80 423 80 423 80 350 c 0,53,54
 80 279 80 279 106 217.5 c 128,-1,55
 132 156 132 156 178.5 111 c 128,-1,56
 225 66 225 66 289 40.5 c 128,-1,57
 353 15 353 15 430 15 c 0,58,59
 472 15 472 15 506 25 c 128,-1,60
 540 35 540 35 566 47 c 0,61,62
 596 61 596 61 620 80 c 1,63,-1
 635 60 l 1,64,65
 612 40 612 40 580 25 c 1,66,67
 553 11 553 11 513 0.5 c 128,-1,68
 473 -10 473 -10 420 -10 c 0,69,70
 337 -10 337 -10 267.5 18 c 128,-1,71
 198 46 198 46 147.5 95 c 128,-1,72
 97 144 97 144 68.5 209.5 c 128,-1,73
 40 275 40 275 40 350 c 256,0,1
340 320 m 0,74,75
 340 277 340 277 346 248 c 128,-1,76
 352 219 352 219 360 202 c 128,-1,77
 368 185 368 185 377.5 177.5 c 128,-1,78
 387 170 387 170 395 170 c 0,79,80
 414 170 414 170 426 183 c 128,-1,81
 438 196 438 196 446 212 c 0,82,83
 455 230 455 230 460 255 c 1,84,-1
 460 535 l 1,85,86
 436 535 436 535 414 524 c 128,-1,87
 392 513 392 513 375.5 487.5 c 128,-1,88
 359 462 359 462 349.5 421 c 128,-1,89
 340 380 340 380 340 320 c 0,74,75
EndSplineSet
EndChar

StartChar: A
Encoding: 65 65 36
Width: 740
GlyphClass: 2
Flags: W
LayerCount: 2
Fore
SplineSet
-30 0 m 1,0,-1
 -30 15 l 1,1,-1
 60 25 l 1,2,-1
 365 710 l 1,3,-1
 395 710 l 1,4,-1
 705 25 l 1,5,-1
 770 15 l 1,6,-1
 770 0 l 1,7,-1
 625 0 l 2,8,9
 576 0 576 0 539.5 30 c 128,-1,10
 503 60 503 60 480 110 c 2,11,-1
 439 200 l 1,12,-1
 173 200 l 1,13,-1
 95 25 l 1,14,-1
 195 15 l 1,15,-1
 195 0 l 1,16,-1
 -30 0 l 1,0,-1
186 230 m 1,17,-1
 426 230 l 1,18,-1
 305 497 l 1,19,-1
 186 230 l 1,17,-1
EndSplineSet
EndChar

StartChar: B
Encoding: 66 66 37
Width: 720
GlyphClass: 2
Flags: W
LayerCount: 2
Fore
SplineSet
40 0 m 1,0,-1
 40 15 l 1,1,-1
 120 25 l 1,2,-1
 120 675 l 1,3,-1
 40 685 l 1,4,-1
 40 700 l 1,5,-1
 350 700 l 2,6,7
 508 700 508 700 584 651.5 c 128,-1,8
 660 603 660 603 660 520 c 0,9,10
 660 488 660 488 648 460.5 c 128,-1,11
 636 433 636 433 610.5 412 c 128,-1,12
 585 391 585 391 544 377.5 c 128,-1,13
 503 364 503 364 445 360 c 1,14,15
 507 356 507 356 551.5 341.5 c 128,-1,16
 596 327 596 327 624.5 304 c 128,-1,17
 653 281 653 281 666.5 251 c 128,-1,18
 680 221 680 221 680 185 c 0,19,20
 680 98 680 98 604 49 c 128,-1,21
 528 0 528 0 370 0 c 2,22,-1
 40 0 l 1,0,-1
290 25 m 1,23,-1
 350 25 l 2,24,25
 510 25 510 25 510 185 c 256,26,27
 510 345 510 345 350 345 c 2,28,-1
 290 345 l 1,29,-1
 290 25 l 1,23,-1
290 370 m 1,30,-1
 330 370 l 2,31,32
 490 370 490 370 490 520 c 0,33,34
 490 595 490 595 449.5 635 c 128,-1,35
 409 675 409 675 330 675 c 2,36,-1
 290 675 l 1,37,-1
 290 370 l 1,30,-1
EndSplineSet
EndChar

StartChar: C
Encoding: 67 67 38
Width: 685
GlyphClass: 2
Flags: W
LayerCount: 2
Fore
SplineSet
50 350 m 256,0,1
 50 449 50 449 80 518.5 c 128,-1,2
 110 588 110 588 156.5 631.5 c 128,-1,3
 203 675 203 675 258.5 695 c 128,-1,4
 314 715 314 715 365 715 c 0,5,6
 407 715 407 715 438 703 c 128,-1,7
 469 691 469 691 491 677 c 0,8,9
 517 660 517 660 535 640 c 1,10,11
 546 657 546 657 558 670 c 0,12,13
 569 681 569 681 583.5 690.5 c 128,-1,14
 598 700 598 700 615 700 c 2,15,-1
 635 700 l 1,16,-1
 635 510 l 1,17,-1
 590 510 l 1,18,19
 577 540 577 540 556.5 572 c 128,-1,20
 536 604 536 604 509.5 630 c 128,-1,21
 483 656 483 656 450 673 c 128,-1,22
 417 690 417 690 380 690 c 0,23,24
 356 690 356 690 328.5 672.5 c 128,-1,25
 301 655 301 655 278 615.5 c 128,-1,26
 255 576 255 576 240 511 c 128,-1,27
 225 446 225 446 225 350 c 256,28,29
 225 254 225 254 240.5 189 c 128,-1,30
 256 124 256 124 282 84.5 c 128,-1,31
 308 45 308 45 341 27.5 c 128,-1,32
 374 10 374 10 410 10 c 0,33,34
 444 10 444 10 476 20.5 c 128,-1,35
 508 31 508 31 536 50 c 128,-1,36
 564 69 564 69 586 94.5 c 128,-1,37
 608 120 608 120 622 150 c 1,38,-1
 645 135 l 1,39,40
 628 103 628 103 604.5 75.5 c 128,-1,41
 581 48 581 48 550 28 c 128,-1,42
 519 8 519 8 480.5 -3.5 c 128,-1,43
 442 -15 442 -15 395 -15 c 0,44,45
 333 -15 333 -15 271.5 5 c 128,-1,46
 210 25 210 25 160.5 68.5 c 128,-1,47
 111 112 111 112 80.5 181.5 c 128,-1,48
 50 251 50 251 50 350 c 256,0,1
EndSplineSet
EndChar

StartChar: D
Encoding: 68 68 39
Width: 755
GlyphClass: 2
Flags: W
LayerCount: 2
Fore
SplineSet
40 0 m 1,0,-1
 40 15 l 1,1,-1
 120 25 l 1,2,-1
 120 675 l 1,3,-1
 40 685 l 1,4,-1
 40 700 l 1,5,-1
 320 700 l 2,6,7
 393 700 393 700 462.5 680.5 c 128,-1,8
 532 661 532 661 586 619 c 128,-1,9
 640 577 640 577 672.5 510.5 c 128,-1,10
 705 444 705 444 705 350 c 256,11,12
 705 256 705 256 672.5 189.5 c 128,-1,13
 640 123 640 123 586 81 c 128,-1,14
 532 39 532 39 462.5 19.5 c 128,-1,15
 393 0 393 0 320 0 c 2,16,-1
 40 0 l 1,0,-1
290 25 m 1,17,-1
 315 25 l 2,18,19
 358 25 358 25 397 42 c 128,-1,20
 436 59 436 59 465.5 97.5 c 128,-1,21
 495 136 495 136 512.5 198 c 128,-1,22
 530 260 530 260 530 350 c 256,23,24
 530 440 530 440 512.5 502 c 128,-1,25
 495 564 495 564 465.5 602.5 c 128,-1,26
 436 641 436 641 397 658 c 128,-1,27
 358 675 358 675 315 675 c 2,28,-1
 290 675 l 1,29,-1
 290 25 l 1,17,-1
EndSplineSet
EndChar

StartChar: E
Encoding: 69 69 40
Width: 685
GlyphClass: 2
Flags: W
LayerCount: 2
Fore
SplineSet
40 0 m 1,0,-1
 40 15 l 1,1,-1
 120 25 l 1,2,-1
 120 675 l 1,3,-1
 40 685 l 1,4,-1
 40 700 l 1,5,-1
 635 700 l 1,6,-1
 635 510 l 1,7,-1
 605 510 l 1,8,9
 588 531 588 531 574 557 c 0,10,11
 562 579 562 579 552 609 c 128,-1,12
 542 639 542 639 540 675 c 1,13,-1
 290 675 l 1,14,-1
 290 370 l 1,15,-1
 425 370 l 1,16,17
 427 383 427 383 431.5 400 c 128,-1,18
 436 417 436 417 442 434.5 c 128,-1,19
 448 452 448 452 455 468 c 128,-1,20
 462 484 462 484 470 495 c 1,21,-1
 495 495 l 1,22,-1
 495 220 l 1,23,-1
 470 220 l 1,24,25
 462 231 462 231 455 247 c 128,-1,26
 448 263 448 263 442 280.5 c 128,-1,27
 436 298 436 298 431.5 315 c 128,-1,28
 427 332 427 332 425 345 c 1,29,-1
 290 345 l 1,30,-1
 290 25 l 1,31,-1
 540 25 l 1,32,33
 542 60 542 60 552 90.5 c 128,-1,34
 562 121 562 121 574 143 c 0,35,36
 588 169 588 169 605 190 c 1,37,-1
 635 190 l 1,38,-1
 635 0 l 1,39,-1
 40 0 l 1,0,-1
EndSplineSet
EndChar

StartChar: F
Encoding: 70 70 41
Width: 665
GlyphClass: 2
Flags: W
LayerCount: 2
Fore
SplineSet
40 0 m 1,0,-1
 40 15 l 1,1,-1
 120 25 l 1,2,-1
 120 675 l 1,3,-1
 40 685 l 1,4,-1
 40 700 l 1,5,-1
 635 700 l 1,6,-1
 635 510 l 1,7,-1
 605 510 l 1,8,9
 588 531 588 531 574 557 c 0,10,11
 562 579 562 579 552 609 c 128,-1,12
 542 639 542 639 540 675 c 1,13,-1
 290 675 l 1,14,-1
 290 350 l 1,15,-1
 425 350 l 1,16,17
 427 363 427 363 431.5 380 c 128,-1,18
 436 397 436 397 442 414.5 c 128,-1,19
 448 432 448 432 455 448 c 128,-1,20
 462 464 462 464 470 475 c 1,21,-1
 495 475 l 1,22,-1
 495 200 l 1,23,-1
 470 200 l 1,24,25
 462 211 462 211 455 227 c 128,-1,26
 448 243 448 243 442 260.5 c 128,-1,27
 436 278 436 278 431.5 295 c 128,-1,28
 427 312 427 312 425 325 c 1,29,-1
 290 325 l 1,30,-1
 290 25 l 1,31,-1
 360 15 l 1,32,-1
 360 0 l 1,33,-1
 40 0 l 1,0,-1
EndSplineSet
EndChar

StartChar: G
Encoding: 71 71 42
Width: 735
GlyphClass: 2
Flags: W
LayerCount: 2
Fore
SplineSet
50 350 m 256,0,1
 50 449 50 449 80 518.5 c 128,-1,2
 110 588 110 588 156.5 631.5 c 128,-1,3
 203 675 203 675 258.5 695 c 128,-1,4
 314 715 314 715 365 715 c 0,5,6
 407 715 407 715 438 703 c 128,-1,7
 469 691 469 691 491 677 c 0,8,9
 517 660 517 660 535 640 c 1,10,11
 546 657 546 657 558 670 c 0,12,13
 569 681 569 681 583.5 690.5 c 128,-1,14
 598 700 598 700 615 700 c 2,15,-1
 635 700 l 1,16,-1
 635 510 l 1,17,-1
 590 510 l 1,18,19
 577 540 577 540 556.5 572 c 128,-1,20
 536 604 536 604 509.5 630 c 128,-1,21
 483 656 483 656 450 673 c 128,-1,22
 417 690 417 690 380 690 c 0,23,24
 356 690 356 690 328.5 672.5 c 128,-1,25
 301 655 301 655 278 615.5 c 128,-1,26
 255 576 255 576 240 511 c 128,-1,27
 225 446 225 446 225 350 c 0,28,29
 225 258 225 258 238.5 195 c 128,-1,30
 252 132 252 132 273 93 c 128,-1,31
 294 54 294 54 320 37 c 128,-1,32
 346 20 346 20 370 20 c 0,33,34
 396 20 396 20 415.5 34.5 c 128,-1,35
 435 49 435 49 449 67 c 0,36,37
 464 88 464 88 475 115 c 1,38,-1
 475 325 l 1,39,-1
 405 335 l 1,40,-1
 405 350 l 1,41,-1
 715 350 l 1,42,-1
 715 335 l 1,43,-1
 645 325 l 1,44,-1
 645 0 l 1,45,-1
 630 0 l 2,46,47
 586 0 586 0 559.5 15.5 c 128,-1,48
 533 31 533 31 519 50 c 0,49,50
 502 72 502 72 495 100 c 1,51,52
 483 68 483 68 462 42 c 0,53,54
 444 20 444 20 413 2.5 c 128,-1,55
 382 -15 382 -15 335 -15 c 0,56,57
 292 -15 292 -15 242 5 c 128,-1,58
 192 25 192 25 149.5 68.5 c 128,-1,59
 107 112 107 112 78.5 181.5 c 128,-1,60
 50 251 50 251 50 350 c 256,0,1
EndSplineSet
EndChar

StartChar: H
Encoding: 72 72 43
Width: 815
GlyphClass: 2
Flags: W
LayerCount: 2
Fore
SplineSet
40 0 m 1,0,-1
 40 15 l 1,1,-1
 120 25 l 1,2,-1
 120 675 l 1,3,-1
 40 685 l 1,4,-1
 40 700 l 1,5,-1
 370 700 l 1,6,-1
 370 685 l 1,7,-1
 290 675 l 1,8,-1
 290 370 l 1,9,-1
 525 370 l 1,10,-1
 525 675 l 1,11,-1
 445 685 l 1,12,-1
 445 700 l 1,13,-1
 775 700 l 1,14,-1
 775 685 l 1,15,-1
 695 675 l 1,16,-1
 695 25 l 1,17,-1
 775 15 l 1,18,-1
 775 0 l 1,19,-1
 445 0 l 1,20,-1
 445 15 l 1,21,-1
 525 25 l 1,22,-1
 525 345 l 1,23,-1
 290 345 l 1,24,-1
 290 25 l 1,25,-1
 370 15 l 1,26,-1
 370 0 l 1,27,-1
 40 0 l 1,0,-1
EndSplineSet
EndChar

StartChar: I
Encoding: 73 73 44
Width: 410
GlyphClass: 2
Flags: W
LayerCount: 2
Fore
SplineSet
40 0 m 1,0,-1
 40 15 l 1,1,-1
 120 25 l 1,2,-1
 120 675 l 1,3,-1
 40 685 l 1,4,-1
 40 700 l 1,5,-1
 370 700 l 1,6,-1
 370 685 l 1,7,-1
 290 675 l 1,8,-1
 290 25 l 1,9,-1
 370 15 l 1,10,-1
 370 0 l 1,11,-1
 40 0 l 1,0,-1
EndSplineSet
EndChar

StartChar: J
Encoding: 74 74 45
Width: 600
GlyphClass: 2
Flags: W
LayerCount: 2
Fore
SplineSet
0 115 m 0,0,1
 0 145 0 145 21.5 167.5 c 128,-1,2
 43 190 43 190 85 190 c 0,3,4
 94 190 94 190 102.5 189 c 128,-1,5
 111 188 111 188 117 187 c 0,6,7
 124 186 124 186 130 185 c 1,8,-1
 130 25 l 1,9,10
 140 21 140 21 152 17 c 0,11,12
 163 14 163 14 178.5 12 c 128,-1,13
 194 10 194 10 215 10 c 0,14,15
 243 10 243 10 264.5 18.5 c 128,-1,16
 286 27 286 27 300.5 49.5 c 128,-1,17
 315 72 315 72 322.5 111 c 128,-1,18
 330 150 330 150 330 210 c 2,19,-1
 330 675 l 1,20,-1
 250 685 l 1,21,-1
 250 700 l 1,22,-1
 580 700 l 1,23,-1
 580 685 l 1,24,-1
 500 675 l 1,25,-1
 500 210 l 2,26,27
 500 159 500 159 483.5 117.5 c 128,-1,28
 467 76 467 76 434 46.5 c 128,-1,29
 401 17 401 17 352.5 1 c 128,-1,30
 304 -15 304 -15 240 -15 c 0,31,32
 182 -15 182 -15 137 -4 c 128,-1,33
 92 7 92 7 61.5 25.5 c 128,-1,34
 31 44 31 44 15.5 67.5 c 128,-1,35
 0 91 0 91 0 115 c 0,0,1
EndSplineSet
EndChar

StartChar: K
Encoding: 75 75 46
Width: 730
GlyphClass: 2
Flags: W
LayerCount: 2
Fore
SplineSet
40 0 m 1,0,-1
 40 15 l 1,1,-1
 120 25 l 1,2,-1
 120 675 l 1,3,-1
 40 685 l 1,4,-1
 40 700 l 1,5,-1
 370 700 l 1,6,-1
 370 685 l 1,7,-1
 290 675 l 1,8,-1
 290 360 l 1,9,-1
 570 675 l 1,10,-1
 470 685 l 1,11,-1
 470 700 l 1,12,-1
 695 700 l 1,13,-1
 695 685 l 1,14,-1
 605 675 l 1,15,-1
 398 442 l 1,16,-1
 695 25 l 1,17,-1
 750 15 l 1,18,-1
 750 0 l 1,19,-1
 595 0 l 2,20,21
 550 0 550 0 517 23.5 c 128,-1,22
 484 47 484 47 446 100 c 2,23,-1
 290 320 l 1,24,-1
 290 25 l 1,25,-1
 370 15 l 1,26,-1
 370 0 l 1,27,-1
 40 0 l 1,0,-1
EndSplineSet
EndChar

StartChar: L
Encoding: 76 76 47
Width: 665
GlyphClass: 2
Flags: W
LayerCount: 2
Fore
SplineSet
40 0 m 1,0,-1
 40 15 l 1,1,-1
 120 25 l 1,2,-1
 120 675 l 1,3,-1
 40 685 l 1,4,-1
 40 700 l 1,5,-1
 360 700 l 1,6,-1
 360 685 l 1,7,-1
 290 675 l 1,8,-1
 290 25 l 1,9,-1
 540 25 l 1,10,11
 542 60 542 60 552 90.5 c 128,-1,12
 562 121 562 121 574 143 c 0,13,14
 588 169 588 169 605 190 c 1,15,-1
 635 190 l 1,16,-1
 635 0 l 1,17,-1
 40 0 l 1,0,-1
EndSplineSet
EndChar

StartChar: M
Encoding: 77 77 48
Width: 1045
GlyphClass: 2
Flags: W
LayerCount: 2
Fore
SplineSet
40 0 m 1,0,-1
 40 15 l 1,1,-1
 130 25 l 1,2,-1
 130 675 l 1,3,-1
 50 685 l 1,4,-1
 50 700 l 1,5,-1
 200 700 l 2,6,7
 252 700 252 700 283 674 c 128,-1,8
 314 648 314 648 340 600 c 2,9,-1
 560 195 l 1,10,-1
 730 600 l 2,11,12
 752 653 752 653 784.5 676.5 c 128,-1,13
 817 700 817 700 870 700 c 2,14,-1
 1005 700 l 1,15,-1
 1005 685 l 1,16,-1
 925 675 l 1,17,-1
 925 25 l 1,18,-1
 1005 15 l 1,19,-1
 1005 0 l 1,20,-1
 675 0 l 1,21,-1
 675 15 l 1,22,-1
 755 25 l 1,23,-1
 755 580 l 1,24,-1
 506 -10 l 1,25,-1
 476 -10 l 1,26,-1
 165 565 l 1,27,-1
 165 25 l 1,28,-1
 265 15 l 1,29,-1
 265 0 l 1,30,-1
 40 0 l 1,0,-1
EndSplineSet
EndChar

StartChar: N
Encoding: 78 78 49
Width: 795
GlyphClass: 2
Flags: W
LayerCount: 2
Fore
SplineSet
40 0 m 1,0,-1
 40 15 l 1,1,-1
 130 25 l 1,2,-1
 130 675 l 1,3,-1
 50 685 l 1,4,-1
 50 700 l 1,5,-1
 155 700 l 2,6,7
 179 700 179 700 199 693.5 c 128,-1,8
 219 687 219 687 237.5 674.5 c 128,-1,9
 256 662 256 662 275 643 c 2,10,-1
 317 600 l 1,11,-1
 650 250 l 1,12,-1
 650 675 l 1,13,-1
 550 685 l 1,14,-1
 550 700 l 1,15,-1
 775 700 l 1,16,-1
 775 685 l 1,17,-1
 685 675 l 1,18,-1
 685 -10 l 1,19,-1
 650 -10 l 1,20,-1
 165 501 l 1,21,-1
 165 25 l 1,22,-1
 265 15 l 1,23,-1
 265 0 l 1,24,-1
 40 0 l 1,0,-1
EndSplineSet
EndChar

StartChar: O
Encoding: 79 79 50
Width: 760
GlyphClass: 2
Flags: W
LayerCount: 2
Fore
SplineSet
50 350 m 256,0,1
 50 449 50 449 80 518.5 c 128,-1,2
 110 588 110 588 157 631.5 c 128,-1,3
 204 675 204 675 263 695 c 128,-1,4
 322 715 322 715 380 715 c 256,5,6
 438 715 438 715 497 695 c 128,-1,7
 556 675 556 675 603 631.5 c 128,-1,8
 650 588 650 588 680 518.5 c 128,-1,9
 710 449 710 449 710 350 c 256,10,11
 710 251 710 251 680 181.5 c 128,-1,12
 650 112 650 112 603 68.5 c 128,-1,13
 556 25 556 25 497 5 c 128,-1,14
 438 -15 438 -15 380 -15 c 256,15,16
 322 -15 322 -15 263 5 c 128,-1,17
 204 25 204 25 157 68.5 c 128,-1,18
 110 112 110 112 80 181.5 c 128,-1,19
 50 251 50 251 50 350 c 256,0,1
225 350 m 0,20,21
 225 252 225 252 239.5 186 c 128,-1,22
 254 120 254 120 276.5 80 c 128,-1,23
 299 40 299 40 326.5 22.5 c 128,-1,24
 354 5 354 5 380 5 c 256,25,26
 406 5 406 5 433.5 22.5 c 128,-1,27
 461 40 461 40 483.5 80 c 128,-1,28
 506 120 506 120 520.5 186 c 128,-1,29
 535 252 535 252 535 350 c 0,30,31
 535 447 535 447 520.5 513.5 c 128,-1,32
 506 580 506 580 483.5 620 c 128,-1,33
 461 660 461 660 433.5 677.5 c 128,-1,34
 406 695 406 695 380 695 c 256,35,36
 354 695 354 695 326.5 677.5 c 128,-1,37
 299 660 299 660 276.5 620 c 128,-1,38
 254 580 254 580 239.5 513.5 c 128,-1,39
 225 447 225 447 225 350 c 0,20,21
EndSplineSet
EndChar

StartChar: P
Encoding: 80 80 51
Width: 690
GlyphClass: 2
Flags: W
LayerCount: 2
Fore
SplineSet
40 0 m 1,0,-1
 40 15 l 1,1,-1
 120 25 l 1,2,-1
 120 675 l 1,3,-1
 40 685 l 1,4,-1
 40 700 l 1,5,-1
 360 700 l 2,6,7
 518 700 518 700 594 643.5 c 128,-1,8
 670 587 670 587 670 485 c 256,9,10
 670 383 670 383 594 326.5 c 128,-1,11
 518 270 518 270 360 270 c 2,12,-1
 290 270 l 1,13,-1
 290 25 l 1,14,-1
 370 15 l 1,15,-1
 370 0 l 1,16,-1
 40 0 l 1,0,-1
290 295 m 1,17,-1
 340 295 l 2,18,19
 500 295 500 295 500 485 c 256,20,21
 500 675 500 675 340 675 c 2,22,-1
 290 675 l 1,23,-1
 290 295 l 1,17,-1
EndSplineSet
EndChar

StartChar: Q
Encoding: 81 81 52
Width: 760
GlyphClass: 2
Flags: W
LayerCount: 2
Fore
SplineSet
50 350 m 0,0,1
 50 449 50 449 80 518.5 c 128,-1,2
 110 588 110 588 157 631.5 c 128,-1,3
 204 675 204 675 263 695 c 128,-1,4
 322 715 322 715 380 715 c 256,5,6
 438 715 438 715 497 695 c 128,-1,7
 556 675 556 675 603 631.5 c 128,-1,8
 650 588 650 588 680 518.5 c 128,-1,9
 710 449 710 449 710 350 c 0,10,11
 710 269 710 269 689.5 207.5 c 128,-1,12
 669 146 669 146 635.5 103 c 128,-1,13
 602 60 602 60 557.5 34 c 128,-1,14
 513 8 513 8 465 -4 c 1,15,16
 469 -82 469 -82 497.5 -116 c 128,-1,17
 526 -150 526 -150 575 -150 c 1,18,-1
 575 -170 l 1,19,20
 506 -170 506 -170 455 -158 c 128,-1,21
 404 -146 404 -146 370.5 -124 c 128,-1,22
 337 -102 337 -102 318.5 -71.5 c 128,-1,23
 300 -41 300 -41 296 -5 c 1,24,25
 248 7 248 7 203.5 33 c 128,-1,26
 159 59 159 59 125 102.5 c 128,-1,27
 91 146 91 146 70.5 207 c 128,-1,28
 50 268 50 268 50 350 c 0,0,1
225 350 m 0,29,30
 225 252 225 252 239.5 186 c 128,-1,31
 254 120 254 120 276.5 80 c 128,-1,32
 299 40 299 40 326.5 22.5 c 128,-1,33
 354 5 354 5 380 5 c 256,34,35
 406 5 406 5 433.5 22.5 c 128,-1,36
 461 40 461 40 483.5 80 c 128,-1,37
 506 120 506 120 520.5 186 c 128,-1,38
 535 252 535 252 535 350 c 0,39,40
 535 447 535 447 520.5 513.5 c 128,-1,41
 506 580 506 580 483.5 620 c 128,-1,42
 461 660 461 660 433.5 677.5 c 128,-1,43
 406 695 406 695 380 695 c 256,44,45
 354 695 354 695 326.5 677.5 c 128,-1,46
 299 660 299 660 276.5 620 c 128,-1,47
 254 580 254 580 239.5 513.5 c 128,-1,48
 225 447 225 447 225 350 c 0,29,30
EndSplineSet
EndChar

StartChar: R
Encoding: 82 82 53
Width: 725
GlyphClass: 2
Flags: W
LayerCount: 2
Fore
SplineSet
40 0 m 1,0,-1
 40 15 l 1,1,-1
 120 25 l 1,2,-1
 120 675 l 1,3,-1
 40 685 l 1,4,-1
 40 700 l 1,5,-1
 370 700 l 2,6,7
 441 700 441 700 495.5 685.5 c 128,-1,8
 550 671 550 671 586.5 645.5 c 128,-1,9
 623 620 623 620 641.5 584 c 128,-1,10
 660 548 660 548 660 505 c 0,11,12
 660 422 660 422 601.5 375 c 128,-1,13
 543 328 543 328 430 320 c 1,14,15
 454 315 454 315 479 304 c 0,16,17
 500 294 500 294 523 275.5 c 128,-1,18
 546 257 546 257 565 225 c 2,19,-1
 680 25 l 1,20,-1
 735 15 l 1,21,-1
 735 0 l 1,22,-1
 600 0 l 2,23,24
 547 0 547 0 511 23.5 c 128,-1,25
 475 47 475 47 445 100 c 2,26,-1
 325 310 l 1,27,-1
 290 310 l 1,28,-1
 290 25 l 1,29,-1
 370 15 l 1,30,-1
 370 0 l 1,31,-1
 40 0 l 1,0,-1
290 335 m 1,32,-1
 350 335 l 2,33,34
 414 335 414 335 452 380.5 c 128,-1,35
 490 426 490 426 490 505 c 256,36,37
 490 584 490 584 452 629.5 c 128,-1,38
 414 675 414 675 350 675 c 2,39,-1
 290 675 l 1,40,-1
 290 335 l 1,32,-1
EndSplineSet
EndChar

StartChar: S
Encoding: 83 83 54
Width: 655
GlyphClass: 2
Flags: W
LayerCount: 2
Fore
SplineSet
50 545 m 0,0,1
 50 582 50 582 64 613.5 c 128,-1,2
 78 645 78 645 109 667.5 c 128,-1,3
 140 690 140 690 189.5 702.5 c 128,-1,4
 239 715 239 715 310 715 c 0,5,6
 353 715 353 715 386 703 c 128,-1,7
 419 691 419 691 441 677 c 0,8,9
 467 660 467 660 485 640 c 1,10,11
 496 657 496 657 508 670 c 0,12,13
 519 681 519 681 533.5 690.5 c 128,-1,14
 548 700 548 700 565 700 c 2,15,-1
 585 700 l 1,16,-1
 585 510 l 1,17,-1
 540 510 l 1,18,19
 527 540 527 540 506.5 572 c 128,-1,20
 486 604 486 604 460 630 c 128,-1,21
 434 656 434 656 402.5 673 c 128,-1,22
 371 690 371 690 335 690 c 0,23,24
 282 690 282 690 253.5 662.5 c 128,-1,25
 225 635 225 635 225 590 c 0,26,27
 225 549 225 549 249.5 519.5 c 128,-1,28
 274 490 274 490 315 460 c 2,29,-1
 475 345 l 2,30,31
 499 328 499 328 522.5 307.5 c 128,-1,32
 546 287 546 287 564.5 263.5 c 128,-1,33
 583 240 583 240 594 214 c 128,-1,34
 605 188 605 188 605 160 c 0,35,36
 605 121 605 121 591 88.5 c 128,-1,37
 577 56 577 56 545 33 c 128,-1,38
 513 10 513 10 461.5 -2.5 c 128,-1,39
 410 -15 410 -15 335 -15 c 0,40,41
 290 -15 290 -15 256.5 -3.5 c 128,-1,42
 223 8 223 8 200 22 c 0,43,44
 174 39 174 39 155 60 c 1,45,46
 144 43 144 43 132 30 c 0,47,48
 121 19 121 19 106.5 9.5 c 128,-1,49
 92 0 92 0 75 0 c 2,50,-1
 55 0 l 1,51,-1
 55 190 l 1,52,-1
 100 190 l 1,53,54
 113 160 113 160 133.5 128 c 128,-1,55
 154 96 154 96 180.5 70 c 128,-1,56
 207 44 207 44 239.5 27 c 128,-1,57
 272 10 272 10 310 10 c 0,58,59
 370 10 370 10 400 38 c 128,-1,60
 430 66 430 66 430 115 c 0,61,62
 430 156 430 156 405.5 183 c 128,-1,63
 381 210 381 210 340 240 c 2,64,-1
 180 355 l 2,65,66
 156 372 156 372 132.5 392 c 128,-1,67
 109 412 109 412 90.5 435.5 c 128,-1,68
 72 459 72 459 61 486 c 128,-1,69
 50 513 50 513 50 545 c 0,0,1
EndSplineSet
EndChar

StartChar: T
Encoding: 84 84 55
Width: 680
GlyphClass: 2
Flags: W
LayerCount: 2
Fore
SplineSet
30 510 m 1,0,-1
 30 700 l 1,1,-1
 650 700 l 1,2,-1
 650 510 l 1,3,-1
 620 510 l 1,4,5
 603 531 603 531 589 557 c 0,6,7
 577 579 577 579 567 609 c 128,-1,8
 557 639 557 639 555 675 c 1,9,-1
 425 675 l 1,10,-1
 425 25 l 1,11,-1
 505 15 l 1,12,-1
 505 0 l 1,13,-1
 175 0 l 1,14,-1
 175 15 l 1,15,-1
 255 25 l 1,16,-1
 255 675 l 1,17,-1
 125 675 l 1,18,19
 123 639 123 639 113 609 c 128,-1,20
 103 579 103 579 91 557 c 0,21,22
 77 531 77 531 60 510 c 1,23,-1
 30 510 l 1,0,-1
EndSplineSet
EndChar

StartChar: U
Encoding: 85 85 56
Width: 770
GlyphClass: 2
Flags: W
LayerCount: 2
Fore
SplineSet
20 685 m 1,0,-1
 20 700 l 1,1,-1
 350 700 l 1,2,-1
 350 685 l 1,3,-1
 270 675 l 1,4,-1
 270 265 l 2,5,6
 270 196 270 196 282.5 147.5 c 128,-1,7
 295 99 295 99 317 68.5 c 128,-1,8
 339 38 339 38 369 24 c 128,-1,9
 399 10 399 10 435 10 c 0,10,11
 476 10 476 10 511 26.5 c 128,-1,12
 546 43 546 43 571.5 75.5 c 128,-1,13
 597 108 597 108 611 155.5 c 128,-1,14
 625 203 625 203 625 265 c 2,15,-1
 625 675 l 1,16,-1
 525 685 l 1,17,-1
 525 700 l 1,18,-1
 750 700 l 1,19,-1
 750 685 l 1,20,-1
 660 675 l 1,21,-1
 660 265 l 2,22,23
 660 197 660 197 642.5 145 c 128,-1,24
 625 93 625 93 593.5 57.5 c 128,-1,25
 562 22 562 22 519 3.5 c 128,-1,26
 476 -15 476 -15 425 -15 c 0,27,28
 344 -15 344 -15 283.5 5 c 128,-1,29
 223 25 223 25 182 61.5 c 128,-1,30
 141 98 141 98 120.5 149.5 c 128,-1,31
 100 201 100 201 100 265 c 2,32,-1
 100 675 l 1,33,-1
 20 685 l 1,0,-1
EndSplineSet
EndChar

StartChar: V
Encoding: 86 86 57
Width: 695
GlyphClass: 2
Flags: W
LayerCount: 2
Fore
SplineSet
-30 685 m 1,0,-1
 -30 700 l 1,1,-1
 104 700 l 2,2,3
 157 700 157 700 189 674.5 c 128,-1,4
 221 649 221 649 244 600 c 2,5,-1
 420 214 l 1,6,-1
 601 675 l 1,7,-1
 501 685 l 1,8,-1
 501 700 l 1,9,-1
 725 700 l 1,10,-1
 725 685 l 1,11,-1
 636 675 l 1,12,-1
 367 -10 l 1,13,-1
 337 -10 l 1,14,-1
 25 675 l 1,15,-1
 -30 685 l 1,0,-1
EndSplineSet
EndChar

StartChar: W
Encoding: 87 87 58
Width: 1050
GlyphClass: 2
Flags: W
LayerCount: 2
Fore
SplineSet
-30 685 m 1,0,-1
 -30 700 l 1,1,-1
 100 700 l 2,2,3
 153 700 153 700 186.5 672.5 c 128,-1,4
 220 645 220 645 240 600 c 2,5,-1
 401 226 l 1,6,-1
 496 487 l 1,7,-1
 416 675 l 1,8,-1
 360 685 l 1,9,-1
 360 700 l 1,10,-1
 490 700 l 2,11,12
 543 700 543 700 576.5 672.5 c 128,-1,13
 610 645 610 645 630 600 c 2,14,-1
 791 226 l 1,15,-1
 955 675 l 1,16,-1
 855 685 l 1,17,-1
 855 700 l 1,18,-1
 1080 700 l 1,19,-1
 1080 685 l 1,20,-1
 990 675 l 1,21,-1
 740 -10 l 1,22,-1
 710 -10 l 1,23,-1
 515 443 l 1,24,-1
 350 -10 l 1,25,-1
 320 -10 l 1,26,-1
 26 675 l 1,27,-1
 -30 685 l 1,0,-1
EndSplineSet
EndChar

StartChar: X
Encoding: 88 88 59
Width: 670
GlyphClass: 2
Flags: W
LayerCount: 2
Fore
SplineSet
-25 685 m 1,0,-1
 -25 700 l 1,1,-1
 145 700 l 2,2,3
 171 700 171 700 191 693 c 128,-1,4
 211 686 211 686 227.5 672.5 c 128,-1,5
 244 659 244 659 257.5 640.5 c 128,-1,6
 271 622 271 622 285 600 c 2,7,-1
 384 439 l 1,8,-1
 560 675 l 1,9,-1
 460 685 l 1,10,-1
 460 700 l 1,11,-1
 685 700 l 1,12,-1
 685 685 l 1,13,-1
 595 675 l 1,14,-1
 400 413 l 1,15,-1
 640 25 l 1,16,-1
 695 15 l 1,17,-1
 695 0 l 1,18,-1
 525 0 l 2,19,20
 499 0 499 0 479 7 c 128,-1,21
 459 14 459 14 442.5 27.5 c 128,-1,22
 426 41 426 41 412.5 59 c 128,-1,23
 399 77 399 77 385 100 c 2,24,-1
 286 260 l 1,25,-1
 110 25 l 1,26,-1
 210 15 l 1,27,-1
 210 0 l 1,28,-1
 -15 0 l 1,29,-1
 -15 15 l 1,30,-1
 75 25 l 1,31,-1
 270 286 l 1,32,-1
 30 675 l 1,33,-1
 -25 685 l 1,0,-1
EndSplineSet
EndChar

StartChar: Y
Encoding: 89 89 60
Width: 655
GlyphClass: 2
Flags: W
LayerCount: 2
Fore
SplineSet
-30 685 m 1,0,-1
 -30 700 l 1,1,-1
 110 700 l 2,2,3
 136 700 136 700 156 693.5 c 128,-1,4
 176 687 176 687 192.5 674.5 c 128,-1,5
 209 662 209 662 222.5 643.5 c 128,-1,6
 236 625 236 625 250 600 c 2,7,-1
 400 330 l 1,8,-1
 560 675 l 1,9,-1
 460 685 l 1,10,-1
 460 700 l 1,11,-1
 685 700 l 1,12,-1
 685 685 l 1,13,-1
 595 675 l 1,14,-1
 420 295 l 1,15,-1
 420 25 l 1,16,-1
 500 15 l 1,17,-1
 500 0 l 1,18,-1
 170 0 l 1,19,-1
 170 15 l 1,20,-1
 250 25 l 1,21,-1
 250 265 l 1,22,-1
 25 675 l 1,23,-1
 -30 685 l 1,0,-1
EndSplineSet
EndChar

StartChar: Z
Encoding: 90 90 61
Width: 650
GlyphClass: 2
Flags: W
LayerCount: 2
Fore
SplineSet
30 0 m 1,0,-1
 30 25 l 1,1,-1
 430 675 l 1,2,-1
 145 675 l 1,3,4
 143 639 143 639 133 609 c 128,-1,5
 123 579 123 579 111 557 c 0,6,7
 97 531 97 531 80 510 c 1,8,-1
 50 510 l 1,9,-1
 50 700 l 1,10,-1
 620 700 l 1,11,-1
 620 675 l 1,12,-1
 220 25 l 1,13,-1
 505 25 l 1,14,15
 507 60 507 60 517 90.5 c 128,-1,16
 527 121 527 121 539 143 c 0,17,18
 553 169 553 169 570 190 c 1,19,-1
 600 190 l 1,20,-1
 600 0 l 1,21,-1
 30 0 l 1,0,-1
EndSplineSet
EndChar

StartChar: bracketleft
Encoding: 91 91 62
Width: 340
GlyphClass: 2
Flags: W
LayerCount: 2
Fore
SplineSet
60 -200 m 1,0,-1
 60 700 l 1,1,-1
 320 700 l 1,2,-1
 320 675 l 1,3,-1
 220 675 l 1,4,-1
 220 -175 l 1,5,-1
 320 -175 l 1,6,-1
 320 -200 l 1,7,-1
 60 -200 l 1,0,-1
EndSplineSet
EndChar

StartChar: backslash
Encoding: 92 92 63
Width: 390
GlyphClass: 2
Flags: W
LayerCount: 2
Fore
SplineSet
10 700 m 1,0,-1
 55 700 l 1,1,-1
 380 0 l 1,2,-1
 330 0 l 1,3,-1
 10 700 l 1,0,-1
EndSplineSet
EndChar

StartChar: bracketright
Encoding: 93 93 64
Width: 340
GlyphClass: 2
Flags: W
LayerCount: 2
Fore
SplineSet
20 -175 m 1,0,-1
 120 -175 l 1,1,-1
 120 675 l 1,2,-1
 20 675 l 1,3,-1
 20 700 l 1,4,-1
 280 700 l 1,5,-1
 280 -200 l 1,6,-1
 20 -200 l 1,7,-1
 20 -175 l 1,0,-1
EndSplineSet
EndChar

StartChar: asciicircum
Encoding: 94 94 65
Width: 470
GlyphClass: 2
Flags: W
LayerCount: 2
Fore
SplineSet
30 410 m 1,0,-1
 235 730 l 1,1,-1
 440 410 l 1,2,-1
 390 410 l 1,3,-1
 235 650 l 1,4,-1
 80 410 l 1,5,-1
 30 410 l 1,0,-1
EndSplineSet
EndChar

StartChar: underscore
Encoding: 95 95 66
Width: 380
GlyphClass: 2
Flags: W
LayerCount: 2
Fore
SplineSet
0 -60 m 1,0,-1
 380 -60 l 1,1,-1
 380 -97 l 1,2,-1
 0 -97 l 1,3,-1
 0 -60 l 1,0,-1
EndSplineSet
EndChar

StartChar: grave
Encoding: 96 96 67
Width: 240
GlyphClass: 2
Flags: W
LayerCount: 2
Fore
SplineSet
30 700 m 1,0,-1
 160 700 l 1,1,-1
 210 530 l 1,2,-1
 166 530 l 1,3,-1
 30 700 l 1,0,-1
EndSplineSet
EndChar

StartChar: a
Encoding: 97 97 68
Width: 620
GlyphClass: 2
Flags: W
LayerCount: 2
Fore
SplineSet
30 150 m 0,0,1
 30 167 30 167 33 180.5 c 128,-1,2
 36 194 36 194 40 204 c 0,3,4
 44 215 44 215 50 225 c 1,5,6
 94 236 94 236 145 246 c 0,7,8
 188 254 188 254 244 261 c 128,-1,9
 300 268 300 268 360 270 c 1,10,-1
 360 290 l 2,11,12
 360 350 360 350 352.5 388.5 c 128,-1,13
 345 427 345 427 331 449.5 c 128,-1,14
 317 472 317 472 296.5 481 c 128,-1,15
 276 490 276 490 250 490 c 0,16,17
 240 490 240 490 231.5 489 c 128,-1,18
 223 488 223 488 216 487 c 2,19,-1
 200 485 l 1,20,-1
 200 335 l 1,21,22
 194 333 194 333 187 332 c 0,23,24
 181 331 181 331 172.5 330.5 c 128,-1,25
 164 330 164 330 155 330 c 0,26,27
 113 330 113 330 91.5 352.5 c 128,-1,28
 70 375 70 375 70 405 c 0,29,30
 70 462 70 462 126 488.5 c 128,-1,31
 182 515 182 515 280 515 c 0,32,33
 340 515 340 515 386.5 499 c 128,-1,34
 433 483 433 483 465 453.5 c 128,-1,35
 497 424 497 424 513.5 382.5 c 128,-1,36
 530 341 530 341 530 290 c 2,37,-1
 530 25 l 1,38,-1
 610 15 l 1,39,-1
 610 0 l 1,40,-1
 515 0 l 2,41,42
 471 0 471 0 444.5 15.5 c 128,-1,43
 418 31 418 31 404 50 c 0,44,45
 387 72 387 72 380 100 c 1,46,47
 367 68 367 68 346 42 c 0,48,49
 328 20 328 20 298 2.5 c 128,-1,50
 268 -15 268 -15 225 -15 c 0,51,52
 131 -15 131 -15 80.5 28 c 128,-1,53
 30 71 30 71 30 150 c 0,0,1
200 150 m 0,54,55
 200 79 200 79 219.5 49.5 c 128,-1,56
 239 20 239 20 265 20 c 0,57,58
 288 20 288 20 305.5 34.5 c 128,-1,59
 323 49 323 49 335 67 c 0,60,61
 349 88 349 88 360 115 c 1,62,-1
 360 245 l 1,63,64
 334 245 334 245 307.5 242.5 c 128,-1,65
 281 240 281 240 259 237 c 0,66,67
 233 233 233 233 210 230 c 1,68,69
 207 215 207 215 205 201 c 0,70,71
 203 189 203 189 201.5 175 c 128,-1,72
 200 161 200 161 200 150 c 0,54,55
EndSplineSet
EndChar

StartChar: b
Encoding: 98 98 69
Width: 640
GlyphClass: 2
Flags: W
LayerCount: 2
Fore
SplineSet
10 685 m 1,0,-1
 10 700 l 1,1,-1
 140 700 l 2,2,3
 260 700 260 700 260 580 c 2,4,-1
 260 470 l 1,5,6
 277 482 277 482 297 492 c 0,7,8
 314 500 314 500 337.5 507.5 c 128,-1,9
 361 515 361 515 390 515 c 0,10,11
 435 515 435 515 473.5 499.5 c 128,-1,12
 512 484 512 484 540 452 c 128,-1,13
 568 420 568 420 584 369.5 c 128,-1,14
 600 319 600 319 600 250 c 256,15,16
 600 181 600 181 580 130.5 c 128,-1,17
 560 80 560 80 529.5 48 c 128,-1,18
 499 16 499 16 463 0.5 c 128,-1,19
 427 -15 427 -15 395 -15 c 0,20,21
 351 -15 351 -15 321.5 2.5 c 128,-1,22
 292 20 292 20 274 42 c 0,23,24
 253 68 253 68 240 100 c 1,25,26
 233 72 233 72 216 50 c 0,27,28
 202 31 202 31 175 15.5 c 128,-1,29
 148 0 148 0 105 0 c 2,30,-1
 90 0 l 1,31,-1
 90 675 l 1,32,-1
 10 685 l 1,0,-1
260 115 m 1,33,34
 271 88 271 88 285 67 c 0,35,36
 297 49 297 49 314.5 34.5 c 128,-1,37
 332 20 332 20 355 20 c 0,38,39
 372 20 372 20 386 31.5 c 128,-1,40
 400 43 400 43 409.5 69.5 c 128,-1,41
 419 96 419 96 424.5 140 c 128,-1,42
 430 184 430 184 430 250 c 256,43,44
 430 316 430 316 424.5 360.5 c 128,-1,45
 419 405 419 405 408.5 433 c 128,-1,46
 398 461 398 461 383.5 473 c 128,-1,47
 369 485 369 485 350 485 c 0,48,49
 335 485 335 485 319 478 c 128,-1,50
 303 471 303 471 290 462.5 c 128,-1,51
 277 454 277 454 269 447 c 2,52,-1
 260 440 l 1,53,-1
 260 115 l 1,33,34
EndSplineSet
EndChar

StartChar: c
Encoding: 99 99 70
Width: 550
GlyphClass: 2
Flags: W
LayerCount: 2
Fore
SplineSet
40 250 m 256,0,1
 40 319 40 319 62 369.5 c 128,-1,2
 84 420 84 420 121 452 c 128,-1,3
 158 484 158 484 207 499.5 c 128,-1,4
 256 515 256 515 310 515 c 0,5,6
 408 515 408 515 464 488.5 c 128,-1,7
 520 462 520 462 520 405 c 0,8,9
 520 375 520 375 498.5 352.5 c 128,-1,10
 477 330 477 330 435 330 c 0,11,12
 425 330 425 330 417 330.5 c 128,-1,13
 409 331 409 331 403 332 c 0,14,15
 396 333 396 333 390 335 c 1,16,-1
 390 485 l 1,17,-1
 374 487 l 2,18,19
 367 488 367 488 358 489 c 128,-1,20
 349 490 349 490 340 490 c 0,21,22
 308 490 308 490 284 478.5 c 128,-1,23
 260 467 260 467 243.5 439.5 c 128,-1,24
 227 412 227 412 218.5 365.5 c 128,-1,25
 210 319 210 319 210 250 c 256,26,27
 210 181 210 181 218 134.5 c 128,-1,28
 226 88 226 88 241.5 60.5 c 128,-1,29
 257 33 257 33 279.5 21.5 c 128,-1,30
 302 10 302 10 330 10 c 0,31,32
 360 10 360 10 386 20 c 128,-1,33
 412 30 412 30 433.5 46 c 128,-1,34
 455 62 455 62 471 81.5 c 128,-1,35
 487 101 487 101 497 120 c 1,36,-1
 520 105 l 1,37,38
 503 79 503 79 483 57 c 128,-1,39
 463 35 463 35 437.5 19 c 128,-1,40
 412 3 412 3 380.5 -6 c 128,-1,41
 349 -15 349 -15 310 -15 c 0,42,43
 256 -15 256 -15 207 0.5 c 128,-1,44
 158 16 158 16 121 48 c 128,-1,45
 84 80 84 80 62 130.5 c 128,-1,46
 40 181 40 181 40 250 c 256,0,1
EndSplineSet
EndChar

StartChar: d
Encoding: 100 100 71
Width: 640
GlyphClass: 2
Flags: W
LayerCount: 2
Fore
SplineSet
40 250 m 256,0,1
 40 319 40 319 56 369.5 c 128,-1,2
 72 420 72 420 100 452 c 128,-1,3
 128 484 128 484 166.5 499.5 c 128,-1,4
 205 515 205 515 250 515 c 0,5,6
 278 515 278 515 302 507.5 c 128,-1,7
 326 500 326 500 343 492 c 0,8,9
 363 482 363 482 380 470 c 1,10,-1
 380 675 l 1,11,-1
 300 685 l 1,12,-1
 300 700 l 1,13,-1
 430 700 l 2,14,15
 550 700 550 700 550 580 c 2,16,-1
 550 25 l 1,17,-1
 630 15 l 1,18,-1
 630 0 l 1,19,-1
 535 0 l 2,20,21
 491 0 491 0 464.5 15.5 c 128,-1,22
 438 31 438 31 424 50 c 0,23,24
 407 72 407 72 400 100 c 1,25,26
 387 68 387 68 366 42 c 0,27,28
 348 20 348 20 318 2.5 c 128,-1,29
 288 -15 288 -15 245 -15 c 0,30,31
 213 -15 213 -15 177 0.5 c 128,-1,32
 141 16 141 16 110.5 48 c 128,-1,33
 80 80 80 80 60 130.5 c 128,-1,34
 40 181 40 181 40 250 c 256,0,1
210 250 m 256,35,36
 210 184 210 184 215.5 140 c 128,-1,37
 221 96 221 96 230.5 69.5 c 128,-1,38
 240 43 240 43 254 31.5 c 128,-1,39
 268 20 268 20 285 20 c 0,40,41
 308 20 308 20 325.5 34.5 c 128,-1,42
 343 49 343 49 355 67 c 0,43,44
 369 88 369 88 380 115 c 1,45,-1
 380 440 l 1,46,-1
 372 447 l 2,47,48
 363 454 363 454 350 462.5 c 128,-1,49
 337 471 337 471 321 478 c 128,-1,50
 305 485 305 485 290 485 c 0,51,52
 271 485 271 485 256.5 473 c 128,-1,53
 242 461 242 461 231.5 433 c 128,-1,54
 221 405 221 405 215.5 360.5 c 128,-1,55
 210 316 210 316 210 250 c 256,35,36
EndSplineSet
EndChar

StartChar: e
Encoding: 101 101 72
Width: 590
GlyphClass: 2
Flags: W
LayerCount: 2
Fore
SplineSet
40 250 m 0,0,1
 40 312 40 312 58 361 c 128,-1,2
 76 410 76 410 109.5 444.5 c 128,-1,3
 143 479 143 479 190 497 c 128,-1,4
 237 515 237 515 295 515 c 0,5,6
 361 515 361 515 409 501 c 128,-1,7
 457 487 457 487 488.5 463 c 128,-1,8
 520 439 520 439 535 407.5 c 128,-1,9
 550 376 550 376 550 340 c 0,10,11
 550 325 550 325 547 311.5 c 128,-1,12
 544 298 544 298 540 287 c 0,13,14
 536 275 536 275 530 265 c 1,15,16
 483 254 483 254 430 244 c 0,17,18
 385 236 385 236 327.5 229 c 128,-1,19
 270 222 270 222 210 220 c 1,20,21
 212 160 212 160 222 119.5 c 128,-1,22
 232 79 232 79 247.5 55 c 128,-1,23
 263 31 263 31 284.5 20.5 c 128,-1,24
 306 10 306 10 330 10 c 0,25,26
 360 10 360 10 386 20 c 128,-1,27
 412 30 412 30 433.5 46 c 128,-1,28
 455 62 455 62 471 81.5 c 128,-1,29
 487 101 487 101 497 120 c 1,30,-1
 520 105 l 1,31,32
 503 79 503 79 483 57 c 128,-1,33
 463 35 463 35 437.5 19 c 128,-1,34
 412 3 412 3 380.5 -6 c 128,-1,35
 349 -15 349 -15 310 -15 c 0,36,37
 182 -15 182 -15 111 55.5 c 128,-1,38
 40 126 40 126 40 250 c 0,0,1
210 245 m 1,39,40
 236 245 236 245 264.5 247 c 128,-1,41
 293 249 293 249 316 252 c 2,42,-1
 370 260 l 1,43,-1
 375 290 l 2,44,45
 377 303 377 303 378.5 319 c 128,-1,46
 380 335 380 335 380 350 c 0,47,48
 380 389 380 389 373 417 c 128,-1,49
 366 445 366 445 354.5 462 c 128,-1,50
 343 479 343 479 327.5 487 c 128,-1,51
 312 495 312 495 295 495 c 256,52,53
 278 495 278 495 262.5 486.5 c 128,-1,54
 247 478 247 478 235.5 456 c 128,-1,55
 224 434 224 434 217 396 c 128,-1,56
 210 358 210 358 210 300 c 2,57,-1
 210 245 l 1,39,40
EndSplineSet
EndChar

StartChar: f
Encoding: 102 102 73
Width: 480
GlyphClass: 2
Flags: W
LayerCount: 2
Fore
SplineSet
30 0 m 1,0,-1
 30 15 l 1,1,-1
 110 25 l 1,2,-1
 110 435 l 1,3,-1
 30 445 l 1,4,-1
 30 465 l 1,5,-1
 110 465 l 1,6,-1
 110 500 l 2,7,8
 110 551 110 551 126 590.5 c 128,-1,9
 142 630 142 630 172 658 c 128,-1,10
 202 686 202 686 244.5 700.5 c 128,-1,11
 287 715 287 715 340 715 c 0,12,13
 381 715 381 715 416 709 c 128,-1,14
 451 703 451 703 476.5 690.5 c 128,-1,15
 502 678 502 678 516 658 c 128,-1,16
 530 638 530 638 530 610 c 0,17,18
 530 580 530 580 508.5 557.5 c 128,-1,19
 487 535 487 535 445 535 c 0,20,21
 435 535 435 535 428 535.5 c 128,-1,22
 421 536 421 536 416 537 c 0,23,24
 410 538 410 538 405 540 c 1,25,-1
 405 685 l 1,26,-1
 393 687 l 2,27,28
 388 688 388 688 381.5 689 c 128,-1,29
 375 690 375 690 370 690 c 0,30,31
 351 690 351 690 334.5 683 c 128,-1,32
 318 676 318 676 306 655 c 128,-1,33
 294 634 294 634 287 597 c 128,-1,34
 280 560 280 560 280 500 c 2,35,-1
 280 465 l 1,36,-1
 460 465 l 1,37,-1
 460 445 l 1,38,-1
 280 435 l 1,39,-1
 280 25 l 1,40,-1
 360 15 l 1,41,-1
 360 0 l 1,42,-1
 30 0 l 1,0,-1
EndSplineSet
EndChar

StartChar: g
Encoding: 103 103 74
Width: 630
GlyphClass: 2
Flags: W
LayerCount: 2
Fore
SplineSet
40 345 m 0,0,1
 40 427 40 427 97 471 c 128,-1,2
 154 515 154 515 285 515 c 0,3,4
 309 515 309 515 338 511.5 c 128,-1,5
 367 508 367 508 394.5 502.5 c 128,-1,6
 422 497 422 497 446 489.5 c 128,-1,7
 470 482 470 482 485 475 c 1,8,9
 492 494 492 494 504 510 c 1,10,11
 515 523 515 523 533 534 c 128,-1,12
 551 545 551 545 580 545 c 0,13,14
 618 545 618 545 641.5 521 c 128,-1,15
 665 497 665 497 665 455 c 0,16,17
 665 417 665 417 648 398.5 c 128,-1,18
 631 380 631 380 605 380 c 0,19,20
 599 380 599 380 591.5 380.5 c 128,-1,21
 584 381 584 381 577 382 c 0,22,23
 569 383 569 383 560 385 c 1,24,-1
 560 520 l 1,25,26
 546 520 546 520 536 510.5 c 128,-1,27
 526 501 526 501 519 490 c 0,28,29
 511 477 511 477 505 460 c 1,30,31
 512 448 512 448 517 431 c 0,32,33
 522 417 522 417 526 395 c 128,-1,34
 530 373 530 373 530 345 c 0,35,36
 530 266 530 266 473 223 c 128,-1,37
 416 180 416 180 285 180 c 0,38,39
 247 180 247 180 212.5 184 c 128,-1,40
 178 188 178 188 155 196 c 1,41,42
 147 192 147 192 138.5 181.5 c 128,-1,43
 130 171 130 171 130 160 c 0,44,45
 130 130 130 130 195 130 c 2,46,-1
 335 130 l 2,47,48
 433 130 433 130 484 86 c 128,-1,49
 535 42 535 42 535 -45 c 0,50,51
 535 -128 535 -128 475.5 -171.5 c 128,-1,52
 416 -215 416 -215 295 -215 c 0,53,54
 227 -215 227 -215 181.5 -205.5 c 128,-1,55
 136 -196 136 -196 107.5 -180.5 c 128,-1,56
 79 -165 79 -165 67 -145.5 c 128,-1,57
 55 -126 55 -126 55 -105 c 0,58,59
 55 -75 55 -75 76.5 -52.5 c 128,-1,60
 98 -30 98 -30 140 -30 c 0,61,62
 149 -30 149 -30 156.5 -31 c 128,-1,63
 164 -32 164 -32 169 -33 c 0,64,65
 175 -34 175 -34 180 -35 c 1,66,-1
 180 -175 l 1,67,68
 196 -179 196 -179 214 -183 c 0,69,70
 229 -186 229 -186 247.5 -188 c 128,-1,71
 266 -190 266 -190 285 -190 c 0,72,73
 345 -190 345 -190 386 -180.5 c 128,-1,74
 427 -171 427 -171 452.5 -155 c 128,-1,75
 478 -139 478 -139 489 -118.5 c 128,-1,76
 500 -98 500 -98 500 -75 c 0,77,78
 500 -60 500 -60 492.5 -48 c 128,-1,79
 485 -36 485 -36 466 -27.5 c 128,-1,80
 447 -19 447 -19 415.5 -14.5 c 128,-1,81
 384 -10 384 -10 335 -10 c 2,82,-1
 195 -10 l 2,83,84
 120 -10 120 -10 87.5 18 c 128,-1,85
 55 46 55 46 55 95 c 0,86,87
 55 112 55 112 62 128.5 c 128,-1,88
 69 145 69 145 79.5 159.5 c 128,-1,89
 90 174 90 174 103.5 185.5 c 128,-1,90
 117 197 117 197 130 205 c 1,91,92
 115 211 115 211 99 221.5 c 128,-1,93
 83 232 83 232 70 249 c 128,-1,94
 57 266 57 266 48.5 289.5 c 128,-1,95
 40 313 40 313 40 345 c 0,0,1
200 345 m 0,96,97
 200 306 200 306 207 278 c 128,-1,98
 214 250 214 250 225.5 233 c 128,-1,99
 237 216 237 216 252.5 208 c 128,-1,100
 268 200 268 200 285 200 c 256,101,102
 302 200 302 200 317.5 208 c 128,-1,103
 333 216 333 216 344.5 233 c 128,-1,104
 356 250 356 250 363 278 c 128,-1,105
 370 306 370 306 370 345 c 0,106,107
 370 371 370 371 367 396 c 128,-1,108
 364 421 364 421 360 441 c 0,109,110
 356 464 356 464 350 485 c 1,111,-1
 331 490 l 2,112,113
 322 492 322 492 310 493.5 c 128,-1,114
 298 495 298 495 285 495 c 0,115,116
 251 495 251 495 225.5 461 c 128,-1,117
 200 427 200 427 200 345 c 0,96,97
EndSplineSet
EndChar

StartChar: h
Encoding: 104 104 75
Width: 710
GlyphClass: 2
Flags: W
LayerCount: 2
Fore
SplineSet
20 0 m 1,0,-1
 20 15 l 1,1,-1
 100 25 l 1,2,-1
 100 675 l 1,3,-1
 20 685 l 1,4,-1
 20 700 l 1,5,-1
 150 700 l 2,6,7
 270 700 270 700 270 580 c 2,8,-1
 270 434 l 1,9,10
 279 446 279 446 292 460.5 c 128,-1,11
 305 475 305 475 323 487 c 128,-1,12
 341 499 341 499 364 507 c 128,-1,13
 387 515 387 515 415 515 c 0,14,15
 509 515 509 515 559.5 472 c 128,-1,16
 610 429 610 429 610 350 c 2,17,-1
 610 25 l 1,18,-1
 690 15 l 1,19,-1
 690 0 l 1,20,-1
 560 0 l 2,21,22
 440 0 440 0 440 120 c 2,23,-1
 440 350 l 2,24,25
 440 421 440 421 420.5 450.5 c 128,-1,26
 401 480 401 480 375 480 c 256,27,28
 349 480 349 480 329 465 c 128,-1,29
 309 450 309 450 296 432 c 0,30,31
 280 411 280 411 270 385 c 1,32,-1
 270 25 l 1,33,-1
 340 15 l 1,34,-1
 340 0 l 1,35,-1
 20 0 l 1,0,-1
EndSplineSet
EndChar

StartChar: i
Encoding: 105 105 76
Width: 370
GlyphClass: 2
Flags: W
LayerCount: 2
Fore
SplineSet
30 0 m 1,0,-1
 30 15 l 1,1,-1
 110 25 l 1,2,-1
 110 475 l 1,3,-1
 30 485 l 1,4,-1
 30 500 l 1,5,-1
 160 500 l 2,6,7
 280 500 280 500 280 380 c 2,8,-1
 280 25 l 1,9,-1
 360 15 l 1,10,-1
 360 0 l 1,11,-1
 30 0 l 1,0,-1
110 625 m 256,12,13
 110 642 110 642 117 657.5 c 128,-1,14
 124 673 124 673 135.5 684.5 c 128,-1,15
 147 696 147 696 162.5 703 c 128,-1,16
 178 710 178 710 195 710 c 256,17,18
 212 710 212 710 227.5 703 c 128,-1,19
 243 696 243 696 254.5 684.5 c 128,-1,20
 266 673 266 673 273 657.5 c 128,-1,21
 280 642 280 642 280 625 c 256,22,23
 280 608 280 608 273 592.5 c 128,-1,24
 266 577 266 577 254.5 565.5 c 128,-1,25
 243 554 243 554 227.5 547 c 128,-1,26
 212 540 212 540 195 540 c 256,27,28
 178 540 178 540 162.5 547 c 128,-1,29
 147 554 147 554 135.5 565.5 c 128,-1,30
 124 577 124 577 117 592.5 c 128,-1,31
 110 608 110 608 110 625 c 256,12,13
EndSplineSet
EndChar

StartChar: j
Encoding: 106 106 77
Width: 370
GlyphClass: 2
Flags: W
LayerCount: 2
Fore
SplineSet
-130 -110 m 0,0,1
 -130 -80 -130 -80 -108.5 -57.5 c 128,-1,2
 -87 -35 -87 -35 -45 -35 c 0,3,4
 -36 -35 -36 -35 -28.5 -36 c 128,-1,5
 -21 -37 -21 -37 -16 -38 c 0,6,7
 -10 -39 -10 -39 -5 -40 c 1,8,-1
 -5 -185 l 1,9,10
 1 -187 1 -187 7 -188 c 0,11,12
 12 -189 12 -189 18 -189.5 c 128,-1,13
 24 -190 24 -190 30 -190 c 0,14,15
 49 -190 49 -190 65.5 -183 c 128,-1,16
 82 -176 82 -176 94 -155 c 128,-1,17
 106 -134 106 -134 113 -97 c 128,-1,18
 120 -60 120 -60 120 0 c 2,19,-1
 120 475 l 1,20,-1
 40 485 l 1,21,-1
 40 500 l 1,22,-1
 170 500 l 2,23,24
 290 500 290 500 290 380 c 2,25,-1
 290 0 l 2,26,27
 290 -51 290 -51 273.5 -90.5 c 128,-1,28
 257 -130 257 -130 227 -158 c 128,-1,29
 197 -186 197 -186 154.5 -200.5 c 128,-1,30
 112 -215 112 -215 60 -215 c 0,31,32
 19 -215 19 -215 -16 -209 c 128,-1,33
 -51 -203 -51 -203 -76.5 -190.5 c 128,-1,34
 -102 -178 -102 -178 -116 -158 c 128,-1,35
 -130 -138 -130 -138 -130 -110 c 0,0,1
120 625 m 256,36,37
 120 642 120 642 127 657.5 c 128,-1,38
 134 673 134 673 145.5 684.5 c 128,-1,39
 157 696 157 696 172.5 703 c 128,-1,40
 188 710 188 710 205 710 c 256,41,42
 222 710 222 710 237.5 703 c 128,-1,43
 253 696 253 696 264.5 684.5 c 128,-1,44
 276 673 276 673 283 657.5 c 128,-1,45
 290 642 290 642 290 625 c 256,46,47
 290 608 290 608 283 592.5 c 128,-1,48
 276 577 276 577 264.5 565.5 c 128,-1,49
 253 554 253 554 237.5 547 c 128,-1,50
 222 540 222 540 205 540 c 256,51,52
 188 540 188 540 172.5 547 c 128,-1,53
 157 554 157 554 145.5 565.5 c 128,-1,54
 134 577 134 577 127 592.5 c 128,-1,55
 120 608 120 608 120 625 c 256,36,37
EndSplineSet
EndChar

StartChar: k
Encoding: 107 107 78
Width: 625
GlyphClass: 2
Flags: W
LayerCount: 2
Fore
SplineSet
20 0 m 1,0,-1
 20 15 l 1,1,-1
 100 25 l 1,2,-1
 100 675 l 1,3,-1
 20 685 l 1,4,-1
 20 700 l 1,5,-1
 150 700 l 2,6,7
 270 700 270 700 270 580 c 2,8,-1
 270 260 l 1,9,-1
 480 475 l 1,10,-1
 380 485 l 1,11,-1
 380 500 l 1,12,-1
 605 500 l 1,13,-1
 605 485 l 1,14,-1
 515 475 l 1,15,-1
 380 337 l 1,16,-1
 590 25 l 1,17,-1
 645 15 l 1,18,-1
 645 0 l 1,19,-1
 500 0 l 2,20,21
 455 0 455 0 424.5 22 c 128,-1,22
 394 44 394 44 360 95 c 2,23,-1
 270 230 l 1,24,-1
 270 25 l 1,25,-1
 350 15 l 1,26,-1
 350 0 l 1,27,-1
 20 0 l 1,0,-1
EndSplineSet
EndChar

StartChar: l
Encoding: 108 108 79
Width: 360
GlyphClass: 2
Flags: W
LayerCount: 2
Fore
SplineSet
20 0 m 1,0,-1
 20 15 l 1,1,-1
 100 25 l 1,2,-1
 100 675 l 1,3,-1
 20 685 l 1,4,-1
 20 700 l 1,5,-1
 150 700 l 2,6,7
 270 700 270 700 270 580 c 2,8,-1
 270 25 l 1,9,-1
 350 15 l 1,10,-1
 350 0 l 1,11,-1
 20 0 l 1,0,-1
EndSplineSet
EndChar

StartChar: m
Encoding: 109 109 80
Width: 1020
GlyphClass: 2
Flags: W
LayerCount: 2
Fore
SplineSet
30 0 m 1,0,-1
 30 15 l 1,1,-1
 110 25 l 1,2,-1
 110 475 l 1,3,-1
 30 485 l 1,4,-1
 30 500 l 1,5,-1
 125 500 l 2,6,7
 168 500 168 500 195 484.5 c 128,-1,8
 222 469 222 469 236 450 c 0,9,10
 253 428 253 428 260 400 c 1,11,12
 274 431 274 431 297 457 c 0,13,14
 317 479 317 479 346.5 497 c 128,-1,15
 376 515 376 515 420 515 c 0,16,17
 492 515 492 515 532 489.5 c 128,-1,18
 572 464 572 464 592 414 c 1,19,20
 599 426 599 426 611 443 c 128,-1,21
 623 460 623 460 641.5 476 c 128,-1,22
 660 492 660 492 685.5 503.5 c 128,-1,23
 711 515 711 515 745 515 c 0,24,25
 839 515 839 515 884.5 472 c 128,-1,26
 930 429 930 429 930 350 c 2,27,-1
 930 25 l 1,28,-1
 1010 15 l 1,29,-1
 1010 0 l 1,30,-1
 880 0 l 2,31,32
 760 0 760 0 760 120 c 2,33,-1
 760 350 l 2,34,35
 760 422 760 422 743 451 c 128,-1,36
 726 480 726 480 700 480 c 0,37,38
 681 480 681 480 664 465 c 128,-1,39
 647 450 647 450 634 432 c 0,40,41
 618 411 618 411 605 385 c 1,42,-1
 605 25 l 1,43,-1
 685 15 l 1,44,-1
 685 0 l 1,45,-1
 375 0 l 1,46,-1
 375 15 l 1,47,-1
 435 25 l 1,48,-1
 435 350 l 2,49,50
 435 422 435 422 418 451 c 128,-1,51
 401 480 401 480 375 480 c 0,52,53
 356 480 356 480 339 465 c 128,-1,54
 322 450 322 450 309 432 c 0,55,56
 293 411 293 411 280 385 c 1,57,-1
 280 25 l 1,58,-1
 340 15 l 1,59,-1
 340 0 l 1,60,-1
 30 0 l 1,0,-1
EndSplineSet
EndChar

StartChar: n
Encoding: 110 110 81
Width: 710
GlyphClass: 2
Flags: W
LayerCount: 2
Fore
SplineSet
30 0 m 1,0,-1
 30 15 l 1,1,-1
 110 25 l 1,2,-1
 110 475 l 1,3,-1
 30 485 l 1,4,-1
 30 500 l 1,5,-1
 125 500 l 2,6,7
 168 500 168 500 195 484.5 c 128,-1,8
 222 469 222 469 236 450 c 0,9,10
 253 428 253 428 260 400 c 1,11,12
 274 431 274 431 297 457 c 0,13,14
 317 479 317 479 348.5 497 c 128,-1,15
 380 515 380 515 425 515 c 0,16,17
 519 515 519 515 569.5 472 c 128,-1,18
 620 429 620 429 620 350 c 2,19,-1
 620 25 l 1,20,-1
 700 15 l 1,21,-1
 700 0 l 1,22,-1
 570 0 l 2,23,24
 450 0 450 0 450 120 c 2,25,-1
 450 350 l 2,26,27
 450 421 450 421 430.5 450.5 c 128,-1,28
 411 480 411 480 385 480 c 0,29,30
 360 480 360 480 341 465 c 128,-1,31
 322 450 322 450 308 432 c 0,32,33
 292 411 292 411 280 385 c 1,34,-1
 280 25 l 1,35,-1
 360 15 l 1,36,-1
 360 0 l 1,37,-1
 30 0 l 1,0,-1
EndSplineSet
EndChar

StartChar: o
Encoding: 111 111 82
Width: 620
GlyphClass: 2
Flags: W
LayerCount: 2
Fore
SplineSet
40 250 m 256,0,1
 40 319 40 319 62 369.5 c 128,-1,2
 84 420 84 420 121 452 c 128,-1,3
 158 484 158 484 207 499.5 c 128,-1,4
 256 515 256 515 310 515 c 256,5,6
 364 515 364 515 413 499.5 c 128,-1,7
 462 484 462 484 499 452 c 128,-1,8
 536 420 536 420 558 369.5 c 128,-1,9
 580 319 580 319 580 250 c 256,10,11
 580 181 580 181 558 130.5 c 128,-1,12
 536 80 536 80 499 48 c 128,-1,13
 462 16 462 16 413 0.5 c 128,-1,14
 364 -15 364 -15 310 -15 c 256,15,16
 256 -15 256 -15 207 0.5 c 128,-1,17
 158 16 158 16 121 48 c 128,-1,18
 84 80 84 80 62 130.5 c 128,-1,19
 40 181 40 181 40 250 c 256,0,1
210 250 m 256,20,21
 210 179 210 179 218 131.5 c 128,-1,22
 226 84 226 84 239.5 56 c 128,-1,23
 253 28 253 28 271 16.5 c 128,-1,24
 289 5 289 5 310 5 c 256,25,26
 331 5 331 5 349 16.5 c 128,-1,27
 367 28 367 28 380.5 56 c 128,-1,28
 394 84 394 84 402 131.5 c 128,-1,29
 410 179 410 179 410 250 c 256,30,31
 410 321 410 321 402 368.5 c 128,-1,32
 394 416 394 416 380.5 444 c 128,-1,33
 367 472 367 472 349 483.5 c 128,-1,34
 331 495 331 495 310 495 c 256,35,36
 289 495 289 495 271 483.5 c 128,-1,37
 253 472 253 472 239.5 444 c 128,-1,38
 226 416 226 416 218 368.5 c 128,-1,39
 210 321 210 321 210 250 c 256,20,21
EndSplineSet
EndChar

StartChar: p
Encoding: 112 112 83
Width: 640
GlyphClass: 2
Flags: W
LayerCount: 2
Fore
SplineSet
10 -185 m 1,0,-1
 90 -175 l 1,1,-1
 90 475 l 1,2,-1
 10 485 l 1,3,-1
 10 500 l 1,4,-1
 105 500 l 2,5,6
 148 500 148 500 175 484.5 c 128,-1,7
 202 469 202 469 216 450 c 0,8,9
 233 428 233 428 240 400 c 1,10,11
 253 431 253 431 274 457 c 0,12,13
 292 479 292 479 321.5 497 c 128,-1,14
 351 515 351 515 395 515 c 0,15,16
 427 515 427 515 463 499.5 c 128,-1,17
 499 484 499 484 529.5 452 c 128,-1,18
 560 420 560 420 580 369.5 c 128,-1,19
 600 319 600 319 600 250 c 256,20,21
 600 181 600 181 584 130.5 c 128,-1,22
 568 80 568 80 540 48 c 128,-1,23
 512 16 512 16 473.5 0.5 c 128,-1,24
 435 -15 435 -15 390 -15 c 0,25,26
 361 -15 361 -15 337.5 -8 c 128,-1,27
 314 -1 314 -1 297 7 c 0,28,29
 277 17 277 17 260 30 c 1,30,-1
 260 -175 l 1,31,-1
 340 -185 l 1,32,-1
 340 -200 l 1,33,-1
 10 -200 l 1,34,-1
 10 -185 l 1,0,-1
260 60 m 1,35,-1
 269 53 l 2,36,37
 277 46 277 46 290 37.5 c 128,-1,38
 303 29 303 29 319 22 c 128,-1,39
 335 15 335 15 350 15 c 0,40,41
 369 15 369 15 383.5 27 c 128,-1,42
 398 39 398 39 408.5 67 c 128,-1,43
 419 95 419 95 424.5 139.5 c 128,-1,44
 430 184 430 184 430 250 c 256,45,46
 430 316 430 316 424.5 360 c 128,-1,47
 419 404 419 404 409.5 430.5 c 128,-1,48
 400 457 400 457 386 468.5 c 128,-1,49
 372 480 372 480 355 480 c 0,50,51
 332 480 332 480 314.5 465 c 128,-1,52
 297 450 297 450 285 432 c 0,53,54
 271 411 271 411 260 385 c 1,55,-1
 260 60 l 1,35,-1
EndSplineSet
EndChar

StartChar: q
Encoding: 113 113 84
Width: 630
GlyphClass: 2
Flags: W
LayerCount: 2
Fore
SplineSet
40 250 m 256,0,1
 40 319 40 319 60 369.5 c 128,-1,2
 80 420 80 420 110.5 452 c 128,-1,3
 141 484 141 484 177 499.5 c 128,-1,4
 213 515 213 515 245 515 c 0,5,6
 288 515 288 515 318 497 c 128,-1,7
 348 479 348 479 366 457 c 0,8,9
 387 431 387 431 400 400 c 1,10,11
 407 428 407 428 424 450 c 0,12,13
 438 469 438 469 464.5 484.5 c 128,-1,14
 491 500 491 500 535 500 c 2,15,-1
 550 500 l 1,16,-1
 550 -175 l 1,17,-1
 630 -185 l 1,18,-1
 630 -200 l 1,19,-1
 300 -200 l 1,20,-1
 300 -185 l 1,21,-1
 380 -175 l 1,22,-1
 380 30 l 1,23,24
 363 17 363 17 343 7 c 0,25,26
 326 -1 326 -1 302 -8 c 128,-1,27
 278 -15 278 -15 250 -15 c 0,28,29
 205 -15 205 -15 166.5 0.5 c 128,-1,30
 128 16 128 16 100 48 c 128,-1,31
 72 80 72 80 56 130.5 c 128,-1,32
 40 181 40 181 40 250 c 256,0,1
210 250 m 256,33,34
 210 184 210 184 215.5 139.5 c 128,-1,35
 221 95 221 95 231.5 67 c 128,-1,36
 242 39 242 39 256.5 27 c 128,-1,37
 271 15 271 15 290 15 c 0,38,39
 305 15 305 15 321 22 c 128,-1,40
 337 29 337 29 350 37.5 c 128,-1,41
 363 46 363 46 372 53 c 2,42,-1
 380 60 l 1,43,-1
 380 385 l 1,44,45
 369 411 369 411 355 432 c 0,46,47
 343 450 343 450 325.5 465 c 128,-1,48
 308 480 308 480 285 480 c 0,49,50
 268 480 268 480 254 468.5 c 128,-1,51
 240 457 240 457 230.5 430.5 c 128,-1,52
 221 404 221 404 215.5 360 c 128,-1,53
 210 316 210 316 210 250 c 256,33,34
EndSplineSet
EndChar

StartChar: r
Encoding: 114 114 85
Width: 560
GlyphClass: 2
Flags: W
LayerCount: 2
Fore
SplineSet
30 0 m 1,0,-1
 30 15 l 1,1,-1
 110 25 l 1,2,-1
 110 475 l 1,3,-1
 30 485 l 1,4,-1
 30 500 l 1,5,-1
 125 500 l 2,6,7
 168 500 168 500 195 484.5 c 128,-1,8
 222 469 222 469 236 450 c 0,9,10
 253 428 253 428 260 400 c 1,11,12
 280 429 280 429 306 452 c 0,13,14
 328 472 328 472 359 488.5 c 128,-1,15
 390 505 390 505 430 505 c 0,16,17
 490 505 490 505 520 480 c 128,-1,18
 550 455 550 455 550 410 c 0,19,20
 550 380 550 380 528.5 357.5 c 128,-1,21
 507 335 507 335 465 335 c 0,22,23
 455 335 455 335 447 335.5 c 128,-1,24
 439 336 439 336 433 337 c 0,25,26
 426 338 426 338 420 340 c 1,27,-1
 420 480 l 1,28,29
 391 480 391 480 366.5 465 c 128,-1,30
 342 450 342 450 322 432 c 0,31,32
 299 411 299 411 280 385 c 1,33,-1
 280 25 l 1,34,-1
 360 15 l 1,35,-1
 360 0 l 1,36,-1
 30 0 l 1,0,-1
EndSplineSet
EndChar

StartChar: s
Encoding: 115 115 86
Width: 560
GlyphClass: 2
Flags: W
LayerCount: 2
Fore
SplineSet
40 375 m 0,0,1
 40 405 40 405 52.5 430.5 c 128,-1,2
 65 456 65 456 91 475 c 128,-1,3
 117 494 117 494 158 504.5 c 128,-1,4
 199 515 199 515 255 515 c 0,5,6
 293 515 293 515 323 504 c 128,-1,7
 353 493 353 493 375 480 c 0,8,9
 401 464 401 464 420 445 c 1,10,11
 424 460 424 460 432 472 c 0,12,13
 439 483 439 483 451.5 491.5 c 128,-1,14
 464 500 464 500 485 500 c 2,15,-1
 505 500 l 1,16,-1
 505 325 l 1,17,-1
 455 325 l 1,18,19
 446 362 446 362 426 392.5 c 128,-1,20
 406 423 406 423 381 445 c 128,-1,21
 356 467 356 467 328 478.5 c 128,-1,22
 300 490 300 490 275 490 c 0,23,24
 245 490 245 490 225 470.5 c 128,-1,25
 205 451 205 451 205 425 c 256,26,27
 205 399 205 399 223 379 c 128,-1,28
 241 359 241 359 275 340 c 2,29,-1
 435 250 l 2,30,31
 469 231 469 231 494.5 199 c 128,-1,32
 520 167 520 167 520 125 c 0,33,34
 520 95 520 95 507.5 69.5 c 128,-1,35
 495 44 495 44 468.5 25 c 128,-1,36
 442 6 442 6 401.5 -4.5 c 128,-1,37
 361 -15 361 -15 305 -15 c 0,38,39
 263 -15 263 -15 231 -4.5 c 128,-1,40
 199 6 199 6 176 20 c 0,41,42
 150 35 150 35 130 55 c 1,43,44
 126 39 126 39 118 27 c 0,45,46
 111 16 111 16 98 8 c 128,-1,47
 85 0 85 0 65 0 c 2,48,-1
 45 0 l 1,49,-1
 45 175 l 1,50,-1
 95 175 l 1,51,52
 104 137 104 137 124.5 107 c 128,-1,53
 145 77 145 77 170.5 55 c 128,-1,54
 196 33 196 33 225 21.5 c 128,-1,55
 254 10 254 10 280 10 c 0,56,57
 314 10 314 10 334.5 30 c 128,-1,58
 355 50 355 50 355 80 c 0,59,60
 355 103 355 103 337 122 c 128,-1,61
 319 141 319 141 285 160 c 2,62,-1
 125 250 l 2,63,64
 91 269 91 269 65.5 301 c 128,-1,65
 40 333 40 333 40 375 c 0,0,1
EndSplineSet
EndChar

StartChar: t
Encoding: 116 116 87
Width: 470
GlyphClass: 2
Flags: W
LayerCount: 2
Fore
SplineSet
10 480 m 1,0,-1
 10 500 l 1,1,-1
 90 500 l 1,2,-1
 90 645 l 1,3,-1
 106 647 l 2,4,5
 113 648 113 648 121.5 649 c 128,-1,6
 130 650 130 650 140 650 c 0,7,8
 260 650 260 650 260 530 c 2,9,-1
 260 500 l 1,10,-1
 430 500 l 1,11,-1
 430 480 l 1,12,-1
 260 470 l 1,13,-1
 260 175 l 2,14,15
 260 128 260 128 267 96.5 c 128,-1,16
 274 65 274 65 285 45.5 c 128,-1,17
 296 26 296 26 310.5 18 c 128,-1,18
 325 10 325 10 340 10 c 0,19,20
 374 10 374 10 400.5 39 c 128,-1,21
 427 68 427 68 435 125 c 1,22,-1
 460 120 l 1,23,24
 452 86 452 86 441 60.5 c 128,-1,25
 430 35 430 35 412 18 c 128,-1,26
 394 1 394 1 366.5 -7.5 c 128,-1,27
 339 -16 339 -16 300 -16 c 0,28,29
 195 -16 195 -16 142.5 36.5 c 128,-1,30
 90 89 90 89 90 175 c 2,31,-1
 90 470 l 1,32,-1
 10 480 l 1,0,-1
EndSplineSet
EndChar

StartChar: u
Encoding: 117 117 88
Width: 710
GlyphClass: 2
Flags: W
LayerCount: 2
Fore
SplineSet
10 485 m 1,0,-1
 10 500 l 1,1,-1
 140 500 l 2,2,3
 260 500 260 500 260 380 c 2,4,-1
 260 150 l 2,5,6
 260 79 260 79 279.5 49.5 c 128,-1,7
 299 20 299 20 325 20 c 0,8,9
 349 20 349 20 368.5 34.5 c 128,-1,10
 388 49 388 49 402 67 c 0,11,12
 418 88 418 88 430 115 c 1,13,-1
 430 475 l 1,14,-1
 350 485 l 1,15,-1
 350 500 l 1,16,-1
 680 500 l 1,17,-1
 680 485 l 1,18,-1
 600 475 l 1,19,-1
 600 25 l 1,20,-1
 680 15 l 1,21,-1
 680 0 l 1,22,-1
 585 0 l 2,23,24
 541 0 541 0 514.5 15.5 c 128,-1,25
 488 31 488 31 474 50 c 0,26,27
 457 72 457 72 450 100 c 1,28,29
 435 68 435 68 412 42 c 0,30,31
 392 20 392 20 361 2.5 c 128,-1,32
 330 -15 330 -15 285 -15 c 0,33,34
 191 -15 191 -15 140.5 28 c 128,-1,35
 90 71 90 71 90 150 c 2,36,-1
 90 475 l 1,37,-1
 10 485 l 1,0,-1
EndSplineSet
EndChar

StartChar: v
Encoding: 118 118 89
Width: 610
GlyphClass: 2
Flags: W
LayerCount: 2
Fore
SplineSet
-20 485 m 1,0,-1
 -20 500 l 1,1,-1
 116 500 l 2,2,3
 169 500 169 500 199 474.5 c 128,-1,4
 229 449 229 449 255 400 c 2,5,-1
 371 179 l 1,6,-1
 505 475 l 1,7,-1
 405 485 l 1,8,-1
 405 500 l 1,9,-1
 630 500 l 1,10,-1
 630 485 l 1,11,-1
 540 475 l 1,12,-1
 320 -10 l 1,13,-1
 290 -10 l 1,14,-1
 35 475 l 1,15,-1
 -20 485 l 1,0,-1
EndSplineSet
EndChar

StartChar: w
Encoding: 119 119 90
Width: 902
GlyphClass: 2
Flags: W
LayerCount: 2
Fore
SplineSet
-20 485 m 1,0,-1
 -20 500 l 1,1,-1
 110 500 l 2,2,3
 163 500 163 500 195 472.5 c 128,-1,4
 227 445 227 445 250 400 c 2,5,-1
 358 186 l 1,6,-1
 422 338 l 1,7,-1
 353 475 l 1,8,-1
 297 485 l 1,9,-1
 297 500 l 1,10,-1
 427 500 l 2,11,12
 480 500 480 500 512 472.5 c 128,-1,13
 544 445 544 445 567 400 c 2,14,-1
 675 186 l 1,15,-1
 797 475 l 1,16,-1
 697 485 l 1,17,-1
 697 500 l 1,18,-1
 922 500 l 1,19,-1
 922 485 l 1,20,-1
 832 475 l 1,21,-1
 628 -10 l 1,22,-1
 598 -10 l 1,23,-1
 441 300 l 1,24,-1
 311 -10 l 1,25,-1
 281 -10 l 1,26,-1
 36 475 l 1,27,-1
 -20 485 l 1,0,-1
EndSplineSet
EndChar

StartChar: x
Encoding: 120 120 91
Width: 555
GlyphClass: 2
Flags: W
LayerCount: 2
Fore
SplineSet
-15 485 m 1,0,-1
 -15 500 l 1,1,-1
 135 500 l 2,2,3
 161 500 161 500 181 493 c 128,-1,4
 201 486 201 486 217 472.5 c 128,-1,5
 233 459 233 459 247 440 c 2,6,-1
 275 400 l 1,7,-1
 318 333 l 1,8,-1
 425 475 l 1,9,-1
 325 485 l 1,10,-1
 325 500 l 1,11,-1
 560 500 l 1,12,-1
 560 485 l 1,13,-1
 460 475 l 1,14,-1
 334 308 l 1,15,-1
 515 25 l 1,16,-1
 570 15 l 1,17,-1
 570 0 l 1,18,-1
 420 0 l 2,19,20
 394 0 394 0 374 7 c 128,-1,21
 354 14 354 14 338 27.5 c 128,-1,22
 322 41 322 41 308.5 59 c 128,-1,23
 295 77 295 77 280 100 c 2,24,-1
 232 174 l 1,25,-1
 120 25 l 1,26,-1
 220 15 l 1,27,-1
 220 0 l 1,28,-1
 -5 0 l 1,29,-1
 -5 15 l 1,30,-1
 85 25 l 1,31,-1
 216 199 l 1,32,-1
 40 475 l 1,33,-1
 -15 485 l 1,0,-1
EndSplineSet
EndChar

StartChar: y
Encoding: 121 121 92
Width: 604
GlyphClass: 2
Flags: W
LayerCount: 2
Fore
SplineSet
-20 485 m 1,0,-1
 -20 500 l 1,1,-1
 115 500 l 2,2,3
 168 500 168 500 198.5 474.5 c 128,-1,4
 229 449 229 449 255 400 c 2,5,-1
 375 172 l 1,6,-1
 500 475 l 1,7,-1
 400 485 l 1,8,-1
 400 500 l 1,9,-1
 624 500 l 1,10,-1
 624 485 l 1,11,-1
 535 475 l 1,12,-1
 315 -60 l 2,13,14
 251 -216 251 -216 130 -216 c 0,15,16
 73 -216 73 -216 41.5 -191 c 128,-1,17
 10 -166 10 -166 10 -121 c 0,18,19
 10 -91 10 -91 31.5 -66 c 128,-1,20
 53 -41 53 -41 95 -41 c 0,21,22
 104 -41 104 -41 111.5 -42 c 128,-1,23
 119 -43 119 -43 124 -44 c 0,24,25
 130 -45 130 -45 135 -46 c 1,26,-1
 135 -191 l 1,27,28
 177 -191 177 -191 215.5 -157.5 c 128,-1,29
 254 -124 254 -124 280 -60 c 2,30,-1
 296 -20 l 1,31,-1
 35 475 l 1,32,-1
 -20 485 l 1,0,-1
EndSplineSet
EndChar

StartChar: z
Encoding: 122 122 93
Width: 570
GlyphClass: 2
Flags: W
LayerCount: 2
Fore
SplineSet
40 0 m 1,0,-1
 40 25 l 1,1,-1
 355 475 l 1,2,-1
 150 475 l 1,3,4
 148 439 148 439 138 410.5 c 128,-1,5
 128 382 128 382 116 362 c 0,6,7
 102 338 102 338 85 320 c 1,8,-1
 55 320 l 1,9,-1
 55 500 l 1,10,-1
 530 500 l 1,11,-1
 530 475 l 1,12,-1
 215 25 l 1,13,-1
 420 25 l 1,14,15
 422 60 422 60 432 89 c 128,-1,16
 442 118 442 118 454 138 c 0,17,18
 468 162 468 162 485 180 c 1,19,-1
 515 180 l 1,20,-1
 515 0 l 1,21,-1
 40 0 l 1,0,-1
EndSplineSet
EndChar

StartChar: braceleft
Encoding: 123 123 94
Width: 390
GlyphClass: 2
Flags: W
LayerCount: 2
Fore
SplineSet
20 240 m 1,0,-1
 20 260 l 1,1,2
 58 260 58 260 84 290.5 c 128,-1,3
 110 321 110 321 110 385 c 2,4,-1
 110 540 l 2,5,6
 110 574 110 574 123 603 c 128,-1,7
 136 632 136 632 162.5 653.5 c 128,-1,8
 189 675 189 675 228 687.5 c 128,-1,9
 267 700 267 700 320 700 c 2,10,-1
 370 700 l 1,11,-1
 370 675 l 1,12,-1
 360 675 l 2,13,14
 322 675 322 675 296 644.5 c 128,-1,15
 270 614 270 614 270 550 c 2,16,-1
 270 410 l 2,17,18
 270 342 270 342 229 300 c 128,-1,19
 188 258 188 258 120 250 c 1,20,21
 188 242 188 242 229 200 c 128,-1,22
 270 158 270 158 270 90 c 2,23,-1
 270 -50 l 2,24,25
 270 -114 270 -114 296 -144.5 c 128,-1,26
 322 -175 322 -175 360 -175 c 2,27,-1
 370 -175 l 1,28,-1
 370 -200 l 1,29,-1
 320 -200 l 2,30,31
 267 -200 267 -200 228 -187.5 c 128,-1,32
 189 -175 189 -175 162.5 -153.5 c 128,-1,33
 136 -132 136 -132 123 -103 c 128,-1,34
 110 -74 110 -74 110 -40 c 2,35,-1
 110 115 l 2,36,37
 110 179 110 179 84 209.5 c 128,-1,38
 58 240 58 240 20 240 c 1,0,-1
EndSplineSet
EndChar

StartChar: bar
Encoding: 124 124 95
Width: 255
GlyphClass: 2
Flags: W
LayerCount: 2
Fore
SplineSet
100 -200 m 1,0,-1
 100 701 l 1,1,-1
 155 701 l 1,2,-1
 155 -200 l 1,3,-1
 100 -200 l 1,0,-1
EndSplineSet
EndChar

StartChar: braceright
Encoding: 125 125 96
Width: 390
GlyphClass: 2
Flags: W
LayerCount: 2
Fore
SplineSet
20 -175 m 1,0,-1
 30 -175 l 2,1,2
 68 -175 68 -175 94 -144.5 c 128,-1,3
 120 -114 120 -114 120 -50 c 2,4,-1
 120 90 l 2,5,6
 120 158 120 158 161 200 c 128,-1,7
 202 242 202 242 270 250 c 1,8,9
 202 258 202 258 161 300 c 128,-1,10
 120 342 120 342 120 410 c 2,11,-1
 120 550 l 2,12,13
 120 614 120 614 94 644.5 c 128,-1,14
 68 675 68 675 30 675 c 2,15,-1
 20 675 l 1,16,-1
 20 700 l 1,17,-1
 70 700 l 2,18,19
 122 700 122 700 161.5 687.5 c 128,-1,20
 201 675 201 675 227.5 653.5 c 128,-1,21
 254 632 254 632 267 603 c 128,-1,22
 280 574 280 574 280 540 c 2,23,-1
 280 385 l 2,24,25
 280 321 280 321 306 290.5 c 128,-1,26
 332 260 332 260 370 260 c 1,27,-1
 370 240 l 1,28,29
 332 240 332 240 306 209.5 c 128,-1,30
 280 179 280 179 280 115 c 2,31,-1
 280 -40 l 2,32,33
 280 -74 280 -74 267 -103 c 128,-1,34
 254 -132 254 -132 227.5 -153.5 c 128,-1,35
 201 -175 201 -175 161.5 -187.5 c 128,-1,36
 122 -200 122 -200 70 -200 c 2,37,-1
 20 -200 l 1,38,-1
 20 -175 l 1,0,-1
EndSplineSet
EndChar

StartChar: asciitilde
Encoding: 126 126 97
Width: 545
GlyphClass: 2
Flags: W
LayerCount: 2
Fore
SplineSet
30 250 m 1,0,1
 32 300 32 300 48 340 c 0,2,3
 55 357 55 357 65.5 373 c 128,-1,4
 76 389 76 389 91 402 c 128,-1,5
 106 415 106 415 127 422.5 c 128,-1,6
 148 430 148 430 175 430 c 0,7,8
 212 430 212 430 238.5 415 c 128,-1,9
 265 400 265 400 288.5 382.5 c 128,-1,10
 312 365 312 365 336.5 350 c 128,-1,11
 361 335 361 335 395 335 c 0,12,13
 433 335 433 335 453.5 345.5 c 128,-1,14
 474 356 474 356 485 370 c 0,15,16
 497 385 497 385 500 405 c 1,17,-1
 515 405 l 1,18,19
 513 355 513 355 497 315 c 0,20,21
 490 298 490 298 479.5 282 c 128,-1,22
 469 266 469 266 453.5 253 c 128,-1,23
 438 240 438 240 417.5 232.5 c 128,-1,24
 397 225 397 225 370 225 c 0,25,26
 332 225 332 225 306 240 c 128,-1,27
 280 255 280 255 256.5 272.5 c 128,-1,28
 233 290 233 290 208.5 305 c 128,-1,29
 184 320 184 320 150 320 c 0,30,31
 112 320 112 320 91.5 309 c 128,-1,32
 71 298 71 298 60 285 c 1,33,34
 48 269 48 269 45 250 c 1,35,-1
 30 250 l 1,0,1
EndSplineSet
EndChar

StartChar: exclamdown
Encoding: 161 161 99
Width: 340
GlyphClass: 2
Flags: W
LayerCount: 2
Fore
SplineSet
70 -100 m 1,0,-1
 150 285 l 1,1,-1
 190 285 l 1,2,-1
 270 -100 l 1,3,4
 270 -153 270 -153 241 -184 c 128,-1,5
 212 -215 212 -215 170 -215 c 256,6,7
 128 -215 128 -215 99 -184 c 128,-1,8
 70 -153 70 -153 70 -100 c 1,0,-1
90 430 m 256,9,10
 90 465 90 465 112.5 487.5 c 128,-1,11
 135 510 135 510 170 510 c 256,12,13
 205 510 205 510 227.5 487.5 c 128,-1,14
 250 465 250 465 250 430 c 256,15,16
 250 395 250 395 227.5 372.5 c 128,-1,17
 205 350 205 350 170 350 c 256,18,19
 135 350 135 350 112.5 372.5 c 128,-1,20
 90 395 90 395 90 430 c 256,9,10
EndSplineSet
EndChar

StartChar: cent
Encoding: 162 162 100
Width: 550
GlyphClass: 2
Flags: W
LayerCount: 2
Fore
SplineSet
40 250 m 256,0,1
 40 318 40 318 61 367.5 c 128,-1,2
 82 417 82 417 117.5 449 c 128,-1,3
 153 481 153 481 200 497 c 128,-1,4
 247 513 247 513 300 515 c 1,5,-1
 300 580 l 1,6,-1
 335 580 l 1,7,-1
 335 514 l 1,8,9
 422 511 422 511 471 484.5 c 128,-1,10
 520 458 520 458 520 405 c 0,11,12
 520 375 520 375 498.5 352.5 c 128,-1,13
 477 330 477 330 435 330 c 0,14,15
 425 330 425 330 417 330.5 c 128,-1,16
 409 331 409 331 403 332 c 0,17,18
 396 333 396 333 390 335 c 1,19,-1
 390 485 l 1,20,-1
 374 487 l 2,21,22
 367 488 367 488 358 489 c 128,-1,23
 349 490 349 490 340 490 c 2,24,-1
 335 490 l 1,25,-1
 335 10 l 1,26,27
 364 11 364 11 389 21.5 c 128,-1,28
 414 32 414 32 434.5 47.5 c 128,-1,29
 455 63 455 63 471 82.5 c 128,-1,30
 487 102 487 102 497 120 c 1,31,-1
 520 105 l 1,32,33
 488 56 488 56 445.5 24 c 128,-1,34
 403 -8 403 -8 335 -14 c 1,35,-1
 335 -80 l 1,36,-1
 300 -80 l 1,37,-1
 300 -15 l 1,38,39
 247 -14 247 -14 200 2.5 c 128,-1,40
 153 19 153 19 117.5 51 c 128,-1,41
 82 83 82 83 61 132.5 c 128,-1,42
 40 182 40 182 40 250 c 256,0,1
210 250 m 0,43,44
 210 190 210 190 216 148 c 128,-1,45
 222 106 222 106 233.5 77.5 c 128,-1,46
 245 49 245 49 262 34 c 128,-1,47
 279 19 279 19 300 13 c 1,48,-1
 300 485 l 1,49,50
 278 478 278 478 261 462 c 128,-1,51
 244 446 244 446 233 418 c 128,-1,52
 222 390 222 390 216 348.5 c 128,-1,53
 210 307 210 307 210 250 c 0,43,44
EndSplineSet
EndChar

StartChar: sterling
Encoding: 163 163 101
Width: 610
GlyphClass: 2
Flags: W
LayerCount: 2
Fore
SplineSet
20 0 m 1,0,-1
 20 35 l 1,1,-1
 101 55 l 1,2,-1
 126 365 l 1,3,-1
 49 375 l 1,4,-1
 49 395 l 1,5,-1
 129 395 l 1,6,-1
 137 500 l 2,7,8
 145 602 145 602 211.5 658.5 c 128,-1,9
 278 715 278 715 384 715 c 0,10,11
 425 715 425 715 460 709 c 128,-1,12
 495 703 495 703 520.5 690.5 c 128,-1,13
 546 678 546 678 560 658 c 128,-1,14
 574 638 574 638 574 610 c 0,15,16
 574 580 574 580 552.5 557.5 c 128,-1,17
 531 535 531 535 489 535 c 0,18,19
 479 535 479 535 472 535.5 c 128,-1,20
 465 536 465 536 460 537 c 0,21,22
 454 538 454 538 449 540 c 1,23,-1
 449 685 l 1,24,-1
 437 687 l 2,25,26
 432 688 432 688 425.5 689 c 128,-1,27
 419 690 419 690 414 690 c 0,28,29
 395 690 395 690 378 683 c 128,-1,30
 361 676 361 676 346.5 655 c 128,-1,31
 332 634 332 634 321.5 597 c 128,-1,32
 311 560 311 560 306 500 c 2,33,-1
 297 395 l 1,34,-1
 479 395 l 1,35,-1
 479 375 l 1,36,-1
 295 365 l 1,37,-1
 270 55 l 1,38,-1
 489 55 l 1,39,40
 491 81 491 81 501 105.5 c 128,-1,41
 511 130 511 130 522 149 c 0,42,43
 534 171 534 171 550 190 c 1,44,-1
 580 190 l 1,45,-1
 580 0 l 1,46,-1
 20 0 l 1,0,-1
EndSplineSet
EndChar

StartChar: currency
Encoding: 164 164 102
Width: 680
GlyphClass: 2
Flags: W
LayerCount: 2
Fore
SplineSet
30 0 m 1,0,-1
 30 15 l 1,1,-1
 110 25 l 1,2,-1
 110 185 l 1,3,-1
 30 185 l 1,4,-1
 30 220 l 1,5,-1
 110 220 l 1,6,-1
 110 280 l 1,7,-1
 30 280 l 1,8,-1
 30 315 l 1,9,-1
 110 315 l 1,10,-1
 110 675 l 1,11,-1
 30 685 l 1,12,-1
 30 700 l 1,13,-1
 350 700 l 2,14,15
 508 700 508 700 584 646 c 128,-1,16
 660 592 660 592 660 490 c 256,17,18
 660 388 660 388 584 334 c 128,-1,19
 508 280 508 280 350 280 c 2,20,-1
 280 280 l 1,21,-1
 280 220 l 1,22,-1
 535 220 l 1,23,-1
 535 185 l 1,24,-1
 280 185 l 1,25,-1
 280 25 l 1,26,-1
 360 15 l 1,27,-1
 360 0 l 1,28,-1
 30 0 l 1,0,-1
280 310 m 1,29,-1
 330 310 l 2,30,31
 490 310 490 310 490 490 c 0,32,33
 490 675 490 675 330 675 c 2,34,-1
 280 675 l 1,35,-1
 280 310 l 1,29,-1
EndSplineSet
EndChar

StartChar: yen
Encoding: 165 165 103
Width: 675
GlyphClass: 2
Flags: W
LayerCount: 2
Fore
SplineSet
-20 685 m 1,0,-1
 -20 700 l 1,1,-1
 120 700 l 2,2,3
 146 700 146 700 166 693.5 c 128,-1,4
 186 687 186 687 202.5 674.5 c 128,-1,5
 219 662 219 662 232.5 643.5 c 128,-1,6
 246 625 246 625 260 600 c 2,7,-1
 410 330 l 1,8,-1
 570 675 l 1,9,-1
 470 685 l 1,10,-1
 470 700 l 1,11,-1
 695 700 l 1,12,-1
 695 685 l 1,13,-1
 605 675 l 1,14,-1
 441 320 l 1,15,-1
 580 320 l 1,16,-1
 580 285 l 1,17,-1
 430 285 l 1,18,-1
 430 200 l 1,19,-1
 580 200 l 1,20,-1
 580 165 l 1,21,-1
 430 165 l 1,22,-1
 430 25 l 1,23,-1
 510 15 l 1,24,-1
 510 0 l 1,25,-1
 180 0 l 1,26,-1
 180 15 l 1,27,-1
 260 25 l 1,28,-1
 260 165 l 1,29,-1
 110 165 l 1,30,-1
 110 200 l 1,31,-1
 260 200 l 1,32,-1
 260 265 l 1,33,-1
 249 285 l 1,34,-1
 110 285 l 1,35,-1
 110 320 l 1,36,-1
 230 320 l 1,37,-1
 35 675 l 1,38,-1
 -20 685 l 1,0,-1
EndSplineSet
EndChar

StartChar: brokenbar
Encoding: 166 166 104
Width: 255
GlyphClass: 2
Flags: W
LayerCount: 2
Fore
SplineSet
100 160 m 1,0,-1
 155 160 l 1,1,-1
 155 -200 l 1,2,-1
 100 -200 l 1,3,-1
 100 160 l 1,0,-1
100 340 m 1,4,-1
 100 701 l 1,5,-1
 155 701 l 1,6,-1
 155 340 l 1,7,-1
 100 340 l 1,4,-1
EndSplineSet
EndChar

StartChar: section
Encoding: 167 167 105
Width: 590
GlyphClass: 2
Flags: W
LayerCount: 2
Fore
SplineSet
50 240 m 0,0,1
 50 277 50 277 66.5 303.5 c 128,-1,2
 83 330 83 330 107 347 c 128,-1,3
 131 364 131 364 157.5 374 c 128,-1,4
 184 384 184 384 205 390 c 1,5,-1
 155 425 l 2,6,7
 118 451 118 451 94 486 c 128,-1,8
 70 521 70 521 70 570 c 0,9,10
 70 598 70 598 82.5 623.5 c 128,-1,11
 95 649 95 649 122.5 668 c 128,-1,12
 150 687 150 687 192.5 698.5 c 128,-1,13
 235 710 235 710 295 710 c 0,14,15
 401 710 401 710 455.5 683.5 c 128,-1,16
 510 657 510 657 510 600 c 0,17,18
 510 570 510 570 488.5 547.5 c 128,-1,19
 467 525 467 525 425 525 c 0,20,21
 415 525 415 525 407 525.5 c 128,-1,22
 399 526 399 526 393 527 c 0,23,24
 386 528 386 528 380 530 c 1,25,-1
 380 680 l 1,26,27
 373 681 373 681 363 682 c 0,28,29
 355 683 355 683 344 684 c 128,-1,30
 333 685 333 685 320 685 c 0,31,32
 267 685 267 685 246 666.5 c 128,-1,33
 225 648 225 648 225 610 c 0,34,35
 225 580 225 580 247 554.5 c 128,-1,36
 269 529 269 529 295 510 c 2,37,-1
 455 395 l 2,38,39
 493 368 493 368 516.5 336.5 c 128,-1,40
 540 305 540 305 540 260 c 0,41,42
 540 222 540 222 523.5 196 c 128,-1,43
 507 170 507 170 483 153 c 128,-1,44
 459 136 459 136 432.5 126 c 128,-1,45
 406 116 406 116 385 110 c 1,46,-1
 435 75 l 2,47,48
 472 49 472 49 496 14 c 128,-1,49
 520 -21 520 -21 520 -70 c 0,50,51
 520 -98 520 -98 507.5 -123.5 c 128,-1,52
 495 -149 495 -149 467.5 -168 c 128,-1,53
 440 -187 440 -187 397.5 -198.5 c 128,-1,54
 355 -210 355 -210 295 -210 c 0,55,56
 189 -210 189 -210 134.5 -183.5 c 128,-1,57
 80 -157 80 -157 80 -100 c 0,58,59
 80 -70 80 -70 101.5 -47.5 c 128,-1,60
 123 -25 123 -25 165 -25 c 0,61,62
 174 -25 174 -25 182.5 -26 c 128,-1,63
 191 -27 191 -27 197 -28 c 0,64,65
 204 -29 204 -29 210 -30 c 1,66,-1
 210 -180 l 1,67,68
 217 -182 217 -182 227 -183 c 0,69,70
 235 -184 235 -184 245.5 -184.5 c 128,-1,71
 256 -185 256 -185 270 -185 c 0,72,73
 323 -185 323 -185 344 -166.5 c 128,-1,74
 365 -148 365 -148 365 -110 c 0,75,76
 365 -80 365 -80 343 -54.5 c 128,-1,77
 321 -29 321 -29 295 -10 c 2,78,-1
 135 105 l 2,79,80
 97 132 97 132 73.5 163.5 c 128,-1,81
 50 195 50 195 50 240 c 0,0,1
205 295 m 0,82,83
 205 265 205 265 224.5 239 c 128,-1,84
 244 213 244 213 275 190 c 2,85,-1
 365 125 l 1,86,87
 373 136 373 136 379 157.5 c 128,-1,88
 385 179 385 179 385 205 c 0,89,90
 385 235 385 235 365.5 261 c 128,-1,91
 346 287 346 287 315 310 c 2,92,-1
 225 375 l 1,93,94
 217 364 217 364 211 342.5 c 128,-1,95
 205 321 205 321 205 295 c 0,82,83
EndSplineSet
EndChar

StartChar: dieresis
Encoding: 168 168 106
Width: 305
GlyphClass: 2
Flags: W
LayerCount: 2
Fore
SplineSet
0 760 m 256,0,1
 0 786 0 786 17 803 c 128,-1,2
 34 820 34 820 60 820 c 256,3,4
 86 820 86 820 103 803 c 128,-1,5
 120 786 120 786 120 760 c 256,6,7
 120 734 120 734 103 717 c 128,-1,8
 86 700 86 700 60 700 c 256,9,10
 34 700 34 700 17 717 c 128,-1,11
 0 734 0 734 0 760 c 256,0,1
185 760 m 256,12,13
 185 786 185 786 202 803 c 128,-1,14
 219 820 219 820 246 820 c 0,15,16
 272 820 272 820 288.5 803 c 128,-1,17
 305 786 305 786 305 760 c 256,18,19
 305 734 305 734 288.5 717 c 128,-1,20
 272 700 272 700 246 700 c 0,21,22
 219 700 219 700 202 717 c 128,-1,23
 185 734 185 734 185 760 c 256,12,13
EndSplineSet
EndChar

StartChar: copyright
Encoding: 169 169 107
Width: 820
GlyphClass: 2
Flags: W
LayerCount: 2
Fore
SplineSet
40 350 m 256,0,1
 40 425 40 425 68.5 490.5 c 128,-1,2
 97 556 97 556 146.5 605 c 128,-1,3
 196 654 196 654 263.5 682 c 128,-1,4
 331 710 331 710 410 710 c 256,5,6
 489 710 489 710 556.5 682 c 128,-1,7
 624 654 624 654 673.5 605 c 128,-1,8
 723 556 723 556 751.5 490.5 c 128,-1,9
 780 425 780 425 780 350 c 256,10,11
 780 275 780 275 751.5 209.5 c 128,-1,12
 723 144 723 144 673.5 95 c 128,-1,13
 624 46 624 46 556.5 18 c 128,-1,14
 489 -10 489 -10 410 -10 c 256,15,16
 331 -10 331 -10 263.5 18 c 128,-1,17
 196 46 196 46 146.5 95 c 128,-1,18
 97 144 97 144 68.5 209.5 c 128,-1,19
 40 275 40 275 40 350 c 256,0,1
80 350 m 256,20,21
 80 277 80 277 105.5 216 c 128,-1,22
 131 155 131 155 175.5 111.5 c 128,-1,23
 220 68 220 68 280.5 44 c 128,-1,24
 341 20 341 20 410 20 c 256,25,26
 479 20 479 20 539.5 44 c 128,-1,27
 600 68 600 68 644.5 111.5 c 128,-1,28
 689 155 689 155 714.5 216 c 128,-1,29
 740 277 740 277 740 350 c 256,30,31
 740 423 740 423 714.5 484 c 128,-1,32
 689 545 689 545 644.5 588.5 c 128,-1,33
 600 632 600 632 539.5 656 c 128,-1,34
 479 680 479 680 410 680 c 256,35,36
 341 680 341 680 280.5 656 c 128,-1,37
 220 632 220 632 175.5 588.5 c 128,-1,38
 131 545 131 545 105.5 484 c 128,-1,39
 80 423 80 423 80 350 c 256,20,21
200 350 m 256,40,41
 200 399 200 399 215.5 438.5 c 128,-1,42
 231 478 231 478 260.5 506 c 128,-1,43
 290 534 290 534 333 549.5 c 128,-1,44
 376 565 376 565 430 565 c 0,45,46
 467 565 467 565 500 557.5 c 128,-1,47
 533 550 533 550 557.5 536.5 c 128,-1,48
 582 523 582 523 596 503.5 c 128,-1,49
 610 484 610 484 610 460 c 0,50,51
 610 430 610 430 591 410 c 128,-1,52
 572 390 572 390 530 390 c 0,53,54
 522 390 522 390 514.5 390.5 c 128,-1,55
 507 391 507 391 502 392 c 0,56,57
 495 393 495 393 490 395 c 1,58,-1
 490 535 l 1,59,60
 484 536 484 536 477 537 c 0,61,62
 471 538 471 538 462.5 539 c 128,-1,63
 454 540 454 540 445 540 c 0,64,65
 424 540 424 540 407 531.5 c 128,-1,66
 390 523 390 523 377 501.5 c 128,-1,67
 364 480 364 480 357 443 c 128,-1,68
 350 406 350 406 350 350 c 256,69,70
 350 294 350 294 357 257 c 128,-1,71
 364 220 364 220 377 198.5 c 128,-1,72
 390 177 390 177 407 168.5 c 128,-1,73
 424 160 424 160 445 160 c 0,74,75
 483 160 483 160 518.5 181 c 128,-1,76
 554 202 554 202 580 240 c 1,77,-1
 600 225 l 1,78,79
 566 180 566 180 524.5 157.5 c 128,-1,80
 483 135 483 135 430 135 c 0,81,82
 376 135 376 135 333 150.5 c 128,-1,83
 290 166 290 166 260.5 194 c 128,-1,84
 231 222 231 222 215.5 261.5 c 128,-1,85
 200 301 200 301 200 350 c 256,40,41
EndSplineSet
EndChar

StartChar: ordfeminine
Encoding: 170 170 108
Width: 470
GlyphClass: 2
Flags: W
LayerCount: 2
Fore
SplineSet
40 460 m 0,0,1
 40 488 40 488 47 507 c 0,2,3
 51 517 51 517 55 525 c 1,4,5
 84 533 84 533 117 540 c 0,6,7
 145 545 145 545 181 550 c 128,-1,8
 217 555 217 555 255 555 c 1,9,-1
 255 580 l 2,10,11
 255 640 255 640 235.5 665 c 128,-1,12
 216 690 216 690 190 690 c 0,13,14
 182 690 182 690 174.5 689 c 128,-1,15
 167 688 167 688 162 687 c 0,16,17
 155 686 155 686 150 685 c 1,18,-1
 150 590 l 1,19,20
 145 588 145 588 140 587 c 256,21,22
 135 586 135 586 129 585.5 c 128,-1,23
 123 585 123 585 115 585 c 0,24,25
 96 585 96 585 78 597 c 128,-1,26
 60 609 60 609 60 635 c 0,27,28
 60 670 60 670 98.5 690 c 128,-1,29
 137 710 137 710 220 710 c 0,30,31
 292 710 292 710 331 671 c 128,-1,32
 370 632 370 632 370 560 c 2,33,-1
 370 390 l 1,34,-1
 430 385 l 1,35,-1
 430 370 l 1,36,-1
 360 370 l 2,37,38
 330 370 330 370 312 380.5 c 128,-1,39
 294 391 294 391 285 405 c 1,40,41
 274 420 274 420 270 440 c 1,42,43
 260 418 260 418 245 400 c 1,44,45
 231 385 231 385 210.5 372.5 c 128,-1,46
 190 360 190 360 160 360 c 0,47,48
 100 360 100 360 70 387.5 c 128,-1,49
 40 415 40 415 40 460 c 0,0,1
155 460 m 0,50,51
 155 415 155 415 167 400 c 128,-1,52
 179 385 179 385 190 385 c 0,53,54
 205 385 205 385 217 394.5 c 128,-1,55
 229 404 229 404 237 416 c 0,56,57
 247 430 247 430 255 448 c 1,58,-1
 255 535 l 1,59,60
 234 535 234 535 217.5 533.5 c 128,-1,61
 201 532 201 532 189 530 c 2,62,-1
 165 525 l 1,63,64
 162 517 162 517 160 507 c 0,65,66
 155 489 155 489 155 460 c 0,50,51
EndSplineSet
EndChar

StartChar: guillemotleft
Encoding: 171 171 109
Width: 490
GlyphClass: 2
Flags: W
LayerCount: 2
Fore
SplineSet
0 230 m 1,0,-1
 0 270 l 1,1,-1
 340 500 l 1,2,-1
 360 475 l 1,3,-1
 105 250 l 1,4,-1
 360 25 l 1,5,-1
 340 0 l 1,6,-1
 0 230 l 1,0,-1
215 230 m 1,7,-1
 215 270 l 1,8,-1
 430 430 l 1,9,-1
 450 405 l 1,10,-1
 315 250 l 1,11,-1
 450 95 l 1,12,-1
 429 70 l 1,13,-1
 215 230 l 1,7,-1
EndSplineSet
EndChar

StartChar: logicalnot
Encoding: 172 172 110
Width: 415
GlyphClass: 2
Flags: W
LayerCount: 2
Fore
SplineSet
30 340 m 1,0,-1
 30 385 l 1,1,-1
 385 385 l 1,2,-1
 385 250 l 1,3,-1
 340 250 l 1,4,-1
 340 340 l 1,5,-1
 30 340 l 1,0,-1
EndSplineSet
EndChar

StartChar: uni00AD
Encoding: 173 173 111
Width: 335
GlyphClass: 2
Flags: W
LayerCount: 2
Fore
SplineSet
30 310 m 1,0,-1
 30 365 l 1,1,-1
 305 365 l 1,2,-1
 305 310 l 1,3,-1
 30 310 l 1,0,-1
EndSplineSet
EndChar

StartChar: registered
Encoding: 174 174 112
Width: 820
GlyphClass: 2
Flags: W
LayerCount: 2
Fore
SplineSet
40 350 m 256,0,1
 40 425 40 425 68.5 490.5 c 128,-1,2
 97 556 97 556 146.5 605 c 128,-1,3
 196 654 196 654 263.5 682 c 128,-1,4
 331 710 331 710 410 710 c 256,5,6
 489 710 489 710 556.5 682 c 128,-1,7
 624 654 624 654 673.5 605 c 128,-1,8
 723 556 723 556 751.5 490.5 c 128,-1,9
 780 425 780 425 780 350 c 256,10,11
 780 275 780 275 751.5 209.5 c 128,-1,12
 723 144 723 144 673.5 95 c 128,-1,13
 624 46 624 46 556.5 18 c 128,-1,14
 489 -10 489 -10 410 -10 c 256,15,16
 331 -10 331 -10 263.5 18 c 128,-1,17
 196 46 196 46 146.5 95 c 128,-1,18
 97 144 97 144 68.5 209.5 c 128,-1,19
 40 275 40 275 40 350 c 256,0,1
80 350 m 256,20,21
 80 277 80 277 105.5 216 c 128,-1,22
 131 155 131 155 175.5 111.5 c 128,-1,23
 220 68 220 68 280.5 44 c 128,-1,24
 341 20 341 20 410 20 c 256,25,26
 479 20 479 20 539.5 44 c 128,-1,27
 600 68 600 68 644.5 111.5 c 128,-1,28
 689 155 689 155 714.5 216 c 128,-1,29
 740 277 740 277 740 350 c 256,30,31
 740 423 740 423 714.5 484 c 128,-1,32
 689 545 689 545 644.5 588.5 c 128,-1,33
 600 632 600 632 539.5 656 c 128,-1,34
 479 680 479 680 410 680 c 256,35,36
 341 680 341 680 280.5 656 c 128,-1,37
 220 632 220 632 175.5 588.5 c 128,-1,38
 131 545 131 545 105.5 484 c 128,-1,39
 80 423 80 423 80 350 c 256,20,21
170 140 m 1,40,-1
 170 155 l 1,41,-1
 225 160 l 1,42,-1
 225 540 l 1,43,-1
 170 545 l 1,44,-1
 170 560 l 1,45,-1
 380 560 l 2,46,47
 449 560 449 560 494.5 551 c 128,-1,48
 540 542 540 542 567 526 c 128,-1,49
 594 510 594 510 604.5 488 c 128,-1,50
 615 466 615 466 615 440 c 0,51,52
 615 398 615 398 579.5 366 c 128,-1,53
 544 334 544 334 479 330 c 1,54,55
 493 329 493 329 508 322 c 0,56,57
 521 316 521 316 535.5 302.5 c 128,-1,58
 550 289 550 289 564 265 c 2,59,-1
 620 165 l 1,60,-1
 655 155 l 1,61,-1
 655 140 l 1,62,-1
 550 140 l 2,63,64
 512 140 512 140 485.5 159.5 c 128,-1,65
 459 179 459 179 445 205 c 2,66,-1
 380 325 l 1,67,-1
 370 325 l 1,68,-1
 370 160 l 1,69,-1
 425 155 l 1,70,-1
 425 140 l 1,71,-1
 170 140 l 1,40,-1
370 345 m 1,72,-1
 380 345 l 2,73,74
 422 345 422 345 443.5 370 c 128,-1,75
 465 395 465 395 465 440 c 0,76,77
 465 535 465 535 380 535 c 2,78,-1
 370 535 l 1,79,-1
 370 345 l 1,72,-1
EndSplineSet
EndChar

StartChar: macron
Encoding: 175 175 113
Width: 325
GlyphClass: 2
Flags: W
LayerCount: 2
Fore
SplineSet
0 700 m 1,0,-1
 0 755 l 1,1,-1
 325 755 l 1,2,-1
 325 700 l 1,3,-1
 0 700 l 1,0,-1
EndSplineSet
EndChar

StartChar: degree
Encoding: 176 176 114
Width: 440
GlyphClass: 2
Flags: W
LayerCount: 2
Fore
SplineSet
50 535 m 0,0,1
 50 572 50 572 63 604.5 c 128,-1,2
 76 637 76 637 99 660 c 128,-1,3
 122 683 122 683 153 696.5 c 128,-1,4
 184 710 184 710 220 710 c 256,5,6
 256 710 256 710 287 696.5 c 128,-1,7
 318 683 318 683 341 660 c 128,-1,8
 364 637 364 637 377 604.5 c 128,-1,9
 390 572 390 572 390 535 c 0,10,11
 390 497 390 497 377 465 c 128,-1,12
 364 433 364 433 341 410 c 128,-1,13
 318 387 318 387 287 373.5 c 128,-1,14
 256 360 256 360 220 360 c 256,15,16
 184 360 184 360 153 373.5 c 128,-1,17
 122 387 122 387 99 410 c 128,-1,18
 76 433 76 433 63 465 c 128,-1,19
 50 497 50 497 50 535 c 0,0,1
95 535 m 256,20,21
 95 503 95 503 104.5 477 c 128,-1,22
 114 451 114 451 131 433 c 128,-1,23
 148 415 148 415 171 405 c 128,-1,24
 194 395 194 395 220 395 c 256,25,26
 246 395 246 395 269 405 c 128,-1,27
 292 415 292 415 309 433 c 128,-1,28
 326 451 326 451 335.5 477 c 128,-1,29
 345 503 345 503 345 535 c 256,30,31
 345 567 345 567 335.5 593 c 128,-1,32
 326 619 326 619 309 637 c 128,-1,33
 292 655 292 655 269 665 c 128,-1,34
 246 675 246 675 220 675 c 256,35,36
 194 675 194 675 171 665 c 128,-1,37
 148 655 148 655 131 637 c 128,-1,38
 114 619 114 619 104.5 593 c 128,-1,39
 95 567 95 567 95 535 c 256,20,21
EndSplineSet
EndChar

StartChar: plusminus
Encoding: 177 177 115
Width: 535
GlyphClass: 2
Flags: W
LayerCount: 2
Fore
SplineSet
30 55 m 1,0,-1
 30 100 l 1,1,-1
 505 100 l 1,2,-1
 505 55 l 1,3,-1
 30 55 l 1,0,-1
30 310 m 1,4,-1
 30 355 l 1,5,-1
 245 355 l 1,6,-1
 245 580 l 1,7,-1
 290 580 l 1,8,-1
 290 355 l 1,9,-1
 505 355 l 1,10,-1
 505 310 l 1,11,-1
 290 310 l 1,12,-1
 290 85 l 1,13,-1
 245 85 l 1,14,-1
 245 310 l 1,15,-1
 30 310 l 1,4,-1
EndSplineSet
EndChar

StartChar: uni00B2
Encoding: 178 178 116
Width: 395
GlyphClass: 2
Flags: W
LayerCount: 2
Fore
SplineSet
40 370 m 1,0,-1
 40 395 l 2,1,2
 40 425 40 425 54.5 446 c 128,-1,3
 69 467 69 467 90.5 483.5 c 128,-1,4
 112 500 112 500 137.5 514.5 c 128,-1,5
 163 529 163 529 184.5 545 c 128,-1,6
 206 561 206 561 220.5 581 c 128,-1,7
 235 601 235 601 235 630 c 0,8,9
 235 690 235 690 180 690 c 0,10,11
 172 690 172 690 164 689 c 2,12,-1
 147 687 l 2,13,14
 138 686 138 686 130 685 c 1,15,-1
 130 590 l 1,16,17
 125 588 125 588 120 587 c 256,18,19
 115 586 115 586 109 585.5 c 128,-1,20
 103 585 103 585 95 585 c 0,21,22
 76 585 76 585 58 597 c 128,-1,23
 40 609 40 609 40 635 c 0,24,25
 40 670 40 670 78.5 690 c 128,-1,26
 117 710 117 710 200 710 c 0,27,28
 241 710 241 710 270.5 702 c 128,-1,29
 300 694 300 694 318.5 680.5 c 128,-1,30
 337 667 337 667 346 649 c 128,-1,31
 355 631 355 631 355 610 c 0,32,33
 355 580 355 580 339 559 c 128,-1,34
 323 538 323 538 297 522.5 c 128,-1,35
 271 507 271 507 239 496 c 2,36,-1
 175 473 l 2,37,38
 143 461 143 461 115 447.5 c 128,-1,39
 87 434 87 434 70 415 c 1,40,-1
 280 415 l 1,41,42
 284 432 284 432 290.5 445.5 c 128,-1,43
 297 459 297 459 304 469 c 2,44,-1
 320 490 l 1,45,-1
 340 490 l 1,46,-1
 340 370 l 1,47,-1
 40 370 l 1,0,-1
EndSplineSet
EndChar

StartChar: uni00B3
Encoding: 179 179 117
Width: 395
GlyphClass: 2
Flags: W
LayerCount: 2
Fore
SplineSet
40 435 m 0,0,1
 40 461 40 461 58 473 c 128,-1,2
 76 485 76 485 95 485 c 0,3,4
 103 485 103 485 109 484 c 128,-1,5
 115 483 115 483 120 482 c 2,6,-1
 130 480 l 1,7,-1
 130 385 l 1,8,9
 138 383 138 383 147 382 c 0,10,11
 155 381 155 381 163.5 380.5 c 128,-1,12
 172 380 172 380 180 380 c 0,13,14
 206 380 206 380 220.5 400.5 c 128,-1,15
 235 421 235 421 235 454 c 0,16,17
 235 489 235 489 220.5 509.5 c 128,-1,18
 206 530 206 530 180 530 c 2,19,-1
 130 530 l 1,20,-1
 130 550 l 1,21,-1
 175 550 l 2,22,23
 201 550 201 550 215.5 570 c 128,-1,24
 230 590 230 590 230 620 c 256,25,26
 230 650 230 650 216.5 670 c 128,-1,27
 203 690 203 690 180 690 c 0,28,29
 172 690 172 690 164 689 c 2,30,-1
 147 687 l 2,31,32
 138 686 138 686 130 685 c 1,33,-1
 130 590 l 1,34,35
 125 588 125 588 120 587 c 256,36,37
 115 586 115 586 109 585.5 c 128,-1,38
 103 585 103 585 95 585 c 0,39,40
 76 585 76 585 58 597 c 128,-1,41
 40 609 40 609 40 635 c 0,42,43
 40 670 40 670 78.5 690 c 128,-1,44
 117 710 117 710 200 710 c 0,45,46
 239 710 239 710 267.5 702.5 c 128,-1,47
 296 695 296 695 314.5 682 c 128,-1,48
 333 669 333 669 341.5 653 c 128,-1,49
 350 637 350 637 350 620 c 0,50,51
 350 590 350 590 318.5 567 c 128,-1,52
 287 544 287 544 230 540 c 1,53,54
 290 536 290 536 322.5 512.5 c 128,-1,55
 355 489 355 489 355 454 c 0,56,57
 355 417 355 417 318.5 388.5 c 128,-1,58
 282 360 282 360 200 360 c 0,59,60
 117 360 117 360 78.5 380 c 128,-1,61
 40 400 40 400 40 435 c 0,0,1
EndSplineSet
EndChar

StartChar: acute
Encoding: 180 180 118
Width: 180
GlyphClass: 2
Flags: W
LayerCount: 2
Fore
SplineSet
0 700 m 1,0,-1
 50 870 l 1,1,-1
 180 870 l 1,2,-1
 44 700 l 1,3,-1
 0 700 l 1,0,-1
EndSplineSet
EndChar

StartChar: mu
Encoding: 181 181 119
AltUni2: 0003bc.ffffffff.0
Width: 720
GlyphClass: 2
Flags: W
LayerCount: 2
Fore
SplineSet
20 -185 m 1,0,-1
 100 -175 l 1,1,-1
 100 475 l 1,2,-1
 20 485 l 1,3,-1
 20 500 l 1,4,-1
 150 500 l 2,5,6
 270 500 270 500 270 380 c 2,7,-1
 270 160 l 2,8,9
 270 137 270 137 275.5 114.5 c 128,-1,10
 281 92 281 92 290.5 74 c 128,-1,11
 300 56 300 56 314 45 c 128,-1,12
 328 34 328 34 345 34 c 0,13,14
 365 34 365 34 382.5 46.5 c 128,-1,15
 400 59 400 59 413 74 c 0,16,17
 428 92 428 92 440 115 c 1,18,-1
 440 475 l 1,19,-1
 360 485 l 1,20,-1
 360 500 l 1,21,-1
 690 500 l 1,22,-1
 690 485 l 1,23,-1
 610 475 l 1,24,-1
 610 25 l 1,25,-1
 690 15 l 1,26,-1
 690 0 l 1,27,-1
 595 0 l 2,28,29
 551 0 551 0 524.5 15.5 c 128,-1,30
 498 31 498 31 484 50 c 0,31,32
 467 72 467 72 460 100 c 1,33,34
 451 72 451 72 434 50 c 0,35,36
 420 31 420 31 397 15.5 c 128,-1,37
 374 0 374 0 340 0 c 0,38,39
 321 0 321 0 307.5 5.5 c 128,-1,40
 294 11 294 11 286 19 c 0,41,42
 276 28 276 28 270 39 c 1,43,-1
 270 -80 l 2,44,45
 270 -200 270 -200 150 -200 c 2,46,-1
 20 -200 l 1,47,-1
 20 -185 l 1,0,-1
EndSplineSet
EndChar

StartChar: paragraph
Encoding: 182 182 120
Width: 630
GlyphClass: 2
Flags: W
LayerCount: 2
Fore
SplineSet
50 455 m 0,0,1
 50 513 50 513 70.5 558.5 c 128,-1,2
 91 604 91 604 129 635.5 c 128,-1,3
 167 667 167 667 220.5 683.5 c 128,-1,4
 274 700 274 700 340 700 c 2,5,-1
 600 700 l 1,6,-1
 600 675 l 1,7,-1
 515 675 l 1,8,-1
 515 -200 l 1,9,-1
 460 -200 l 1,10,-1
 460 675 l 1,11,-1
 385 675 l 1,12,-1
 385 -200 l 1,13,-1
 330 -200 l 1,14,-1
 330 210 l 1,15,16
 266 211 266 211 214 228.5 c 128,-1,17
 162 246 162 246 125.5 277.5 c 128,-1,18
 89 309 89 309 69.5 354 c 128,-1,19
 50 399 50 399 50 455 c 0,0,1
EndSplineSet
EndChar

StartChar: periodcentered
Encoding: 183 183 121
Width: 300
GlyphClass: 2
Flags: W
LayerCount: 2
Fore
SplineSet
70 350 m 256,0,1
 70 385 70 385 92.5 407.5 c 128,-1,2
 115 430 115 430 150 430 c 256,3,4
 185 430 185 430 207.5 407.5 c 128,-1,5
 230 385 230 385 230 350 c 256,6,7
 230 315 230 315 207.5 292.5 c 128,-1,8
 185 270 185 270 150 270 c 256,9,10
 115 270 115 270 92.5 292.5 c 128,-1,11
 70 315 70 315 70 350 c 256,0,1
EndSplineSet
EndChar

StartChar: cedilla
Encoding: 184 184 122
Width: 140
GlyphClass: 2
Flags: W
LayerCount: 2
Fore
SplineSet
0 -180 m 1,0,-1
 20 -180 l 2,1,2
 43 -180 43 -180 59 -165.5 c 128,-1,3
 75 -151 75 -151 75 -125 c 256,4,5
 75 -99 75 -99 59 -84.5 c 128,-1,6
 43 -70 43 -70 20 -70 c 2,7,-1
 15 -70 l 1,8,-1
 15 0 l 1,9,-1
 45 0 l 1,10,-1
 45 -50 l 1,11,12
 94 -50 94 -50 122 -70.5 c 128,-1,13
 150 -91 150 -91 150 -125 c 256,14,15
 150 -159 150 -159 122 -179.5 c 128,-1,16
 94 -200 94 -200 45 -200 c 2,17,-1
 0 -200 l 1,18,-1
 0 -180 l 1,0,-1
EndSplineSet
EndChar

StartChar: uni00B9
Encoding: 185 185 123
Width: 325
GlyphClass: 2
Flags: W
LayerCount: 2
Fore
SplineSet
40 595 m 1,0,-1
 145 700 l 1,1,-1
 225 700 l 1,2,-1
 225 390 l 1,3,-1
 285 385 l 1,4,-1
 285 370 l 1,5,-1
 50 370 l 1,6,-1
 50 385 l 1,7,-1
 110 390 l 1,8,-1
 110 620 l 1,9,-1
 55 575 l 1,10,-1
 40 595 l 1,0,-1
EndSplineSet
EndChar

StartChar: ordmasculine
Encoding: 186 186 124
Width: 420
GlyphClass: 2
Flags: W
LayerCount: 2
Fore
SplineSet
40 535 m 256,0,1
 40 614 40 614 83.5 662 c 128,-1,2
 127 710 127 710 210 710 c 256,3,4
 293 710 293 710 336.5 662 c 128,-1,5
 380 614 380 614 380 535 c 256,6,7
 380 456 380 456 336.5 408 c 128,-1,8
 293 360 293 360 210 360 c 256,9,10
 127 360 127 360 83.5 408 c 128,-1,11
 40 456 40 456 40 535 c 256,0,1
155 535 m 256,12,13
 155 449 155 449 171 414.5 c 128,-1,14
 187 380 187 380 210 380 c 0,15,16
 221 380 221 380 231 388 c 128,-1,17
 241 396 241 396 248.5 414.5 c 128,-1,18
 256 433 256 433 260.5 462.5 c 128,-1,19
 265 492 265 492 265 535 c 256,20,21
 265 578 265 578 260.5 607.5 c 128,-1,22
 256 637 256 637 248.5 655.5 c 128,-1,23
 241 674 241 674 231 682 c 128,-1,24
 221 690 221 690 210 690 c 0,25,26
 187 690 187 690 171 655.5 c 128,-1,27
 155 621 155 621 155 535 c 256,12,13
EndSplineSet
EndChar

StartChar: guillemotright
Encoding: 187 187 125
Width: 490
GlyphClass: 2
Flags: W
LayerCount: 2
Fore
SplineSet
40 95 m 1,0,-1
 175 250 l 1,1,-1
 40 405 l 1,2,-1
 60 430 l 1,3,-1
 275 270 l 1,4,-1
 275 230 l 1,5,-1
 61 70 l 1,6,-1
 40 95 l 1,0,-1
130 25 m 1,7,-1
 385 250 l 1,8,-1
 130 475 l 1,9,-1
 150 500 l 1,10,-1
 490 270 l 1,11,-1
 490 230 l 1,12,-1
 150 0 l 1,13,-1
 130 25 l 1,7,-1
EndSplineSet
EndChar

StartChar: onequarter
Encoding: 188 188 126
Width: 770
GlyphClass: 3
Flags: W
LayerCount: 2
Fore
SplineSet
40 595 m 1,0,-1
 145 700 l 1,1,-1
 225 700 l 1,2,-1
 225 390 l 1,3,-1
 285 385 l 1,4,-1
 285 370 l 1,5,-1
 50 370 l 1,6,-1
 50 385 l 1,7,-1
 110 390 l 1,8,-1
 110 620 l 1,9,-1
 55 575 l 1,10,-1
 40 595 l 1,0,-1
80 0 m 1,11,-1
 615 700 l 1,12,-1
 660 700 l 1,13,-1
 130 0 l 1,14,-1
 80 0 l 1,11,-1
415 0 m 1,15,-1
 415 25 l 2,16,17
 415 55 415 55 429.5 76 c 128,-1,18
 444 97 444 97 465.5 113.5 c 128,-1,19
 487 130 487 130 512.5 144.5 c 128,-1,20
 538 159 538 159 559.5 175 c 128,-1,21
 581 191 581 191 595.5 211 c 128,-1,22
 610 231 610 231 610 260 c 0,23,24
 610 320 610 320 555 320 c 0,25,26
 547 320 547 320 539 319 c 2,27,-1
 522 317 l 2,28,29
 513 316 513 316 505 315 c 1,30,-1
 505 220 l 1,31,32
 500 218 500 218 495 217 c 256,33,34
 490 216 490 216 484 215.5 c 128,-1,35
 478 215 478 215 470 215 c 0,36,37
 451 215 451 215 433 227 c 128,-1,38
 415 239 415 239 415 265 c 0,39,40
 415 300 415 300 453.5 320 c 128,-1,41
 492 340 492 340 575 340 c 0,42,43
 616 340 616 340 645.5 332 c 128,-1,44
 675 324 675 324 693.5 310.5 c 128,-1,45
 712 297 712 297 721 279 c 128,-1,46
 730 261 730 261 730 240 c 0,47,48
 730 210 730 210 714 189 c 128,-1,49
 698 168 698 168 672 152.5 c 128,-1,50
 646 137 646 137 614 125 c 2,51,-1
 550 103 l 2,52,53
 518 91 518 91 490 77.5 c 128,-1,54
 462 64 462 64 445 45 c 1,55,-1
 655 45 l 1,56,57
 659 62 659 62 665.5 75.5 c 128,-1,58
 672 89 672 89 679 99 c 2,59,-1
 695 120 l 1,60,-1
 715 120 l 1,61,-1
 715 0 l 1,62,-1
 415 0 l 1,15,-1
EndSplineSet
Ligature2: "'frac' Diagonal Fractions in Latin lookup 0 subtable" one slash four
EndChar

StartChar: onehalf
Encoding: 189 189 127
Width: 700
GlyphClass: 3
Flags: W
LayerCount: 2
Fore
SplineSet
40 595 m 1,0,-1
 145 700 l 1,1,-1
 225 700 l 1,2,-1
 225 390 l 1,3,-1
 285 385 l 1,4,-1
 285 370 l 1,5,-1
 50 370 l 1,6,-1
 50 385 l 1,7,-1
 110 390 l 1,8,-1
 110 620 l 1,9,-1
 55 575 l 1,10,-1
 40 595 l 1,0,-1
80 0 m 1,11,-1
 615 700 l 1,12,-1
 660 700 l 1,13,-1
 130 0 l 1,14,-1
 80 0 l 1,11,-1
325 70 m 1,15,-1
 325 90 l 1,16,-1
 565 340 l 1,17,-1
 595 340 l 1,18,-1
 595 90 l 1,19,-1
 660 90 l 1,20,-1
 660 70 l 1,21,-1
 595 70 l 1,22,-1
 595 20 l 1,23,-1
 655 15 l 1,24,-1
 655 0 l 1,25,-1
 420 0 l 1,26,-1
 420 15 l 1,27,-1
 480 20 l 1,28,-1
 480 70 l 1,29,-1
 325 70 l 1,15,-1
355 90 m 1,30,-1
 480 90 l 1,31,-1
 480 220 l 1,32,-1
 355 90 l 1,30,-1
EndSplineSet
Ligature2: "'frac' Diagonal Fractions in Latin lookup 0 subtable" one slash two
EndChar

StartChar: threequarters
Encoding: 190 190 128
Width: 755
GlyphClass: 3
Flags: W
LayerCount: 2
Fore
SplineSet
40 435 m 0,0,1
 40 461 40 461 58 473 c 128,-1,2
 76 485 76 485 95 485 c 0,3,4
 103 485 103 485 109 484 c 128,-1,5
 115 483 115 483 120 482 c 2,6,-1
 130 480 l 1,7,-1
 130 385 l 1,8,9
 138 383 138 383 147 382 c 0,10,11
 155 381 155 381 163.5 380.5 c 128,-1,12
 172 380 172 380 180 380 c 0,13,14
 206 380 206 380 220.5 400.5 c 128,-1,15
 235 421 235 421 235 454 c 0,16,17
 235 489 235 489 220.5 509.5 c 128,-1,18
 206 530 206 530 180 530 c 2,19,-1
 130 530 l 1,20,-1
 130 550 l 1,21,-1
 175 550 l 2,22,23
 201 550 201 550 215.5 570 c 128,-1,24
 230 590 230 590 230 620 c 256,25,26
 230 650 230 650 216.5 670 c 128,-1,27
 203 690 203 690 180 690 c 0,28,29
 172 690 172 690 164 689 c 2,30,-1
 147 687 l 2,31,32
 138 686 138 686 130 685 c 1,33,-1
 130 590 l 1,34,35
 125 588 125 588 120 587 c 256,36,37
 115 586 115 586 109 585.5 c 128,-1,38
 103 585 103 585 95 585 c 0,39,40
 76 585 76 585 58 597 c 128,-1,41
 40 609 40 609 40 635 c 0,42,43
 40 670 40 670 78.5 690 c 128,-1,44
 117 710 117 710 200 710 c 0,45,46
 239 710 239 710 267.5 702.5 c 128,-1,47
 296 695 296 695 314.5 682 c 128,-1,48
 333 669 333 669 341.5 653 c 128,-1,49
 350 637 350 637 350 620 c 0,50,51
 350 590 350 590 318.5 567 c 128,-1,52
 287 544 287 544 230 540 c 1,53,54
 290 536 290 536 322.5 512.5 c 128,-1,55
 355 489 355 489 355 454 c 0,56,57
 355 417 355 417 318.5 388.5 c 128,-1,58
 282 360 282 360 200 360 c 0,59,60
 117 360 117 360 78.5 380 c 128,-1,61
 40 400 40 400 40 435 c 0,0,1
135 0 m 1,62,-1
 670 700 l 1,63,-1
 715 700 l 1,64,-1
 185 0 l 1,65,-1
 135 0 l 1,62,-1
380 70 m 1,66,-1
 380 90 l 1,67,-1
 620 340 l 1,68,-1
 650 340 l 1,69,-1
 650 90 l 1,70,-1
 715 90 l 1,71,-1
 715 70 l 1,72,-1
 650 70 l 1,73,-1
 650 20 l 1,74,-1
 710 15 l 1,75,-1
 710 0 l 1,76,-1
 475 0 l 1,77,-1
 475 15 l 1,78,-1
 535 20 l 1,79,-1
 535 70 l 1,80,-1
 380 70 l 1,66,-1
410 90 m 1,81,-1
 535 90 l 1,82,-1
 535 220 l 1,83,-1
 410 90 l 1,81,-1
EndSplineSet
Ligature2: "'frac' Diagonal Fractions in Latin lookup 0 subtable" three slash four
EndChar

StartChar: questiondown
Encoding: 191 191 129
Width: 580
GlyphClass: 2
Flags: W
LayerCount: 2
Fore
SplineSet
30 -20 m 0,0,1
 30 29 30 29 54 66.5 c 128,-1,2
 78 104 78 104 116 132 c 128,-1,3
 154 160 154 160 201 178 c 128,-1,4
 248 196 248 196 295 205 c 1,5,-1
 295 285 l 1,6,-1
 345 285 l 1,7,-1
 345 180 l 1,8,9
 281 150 281 150 240.5 95.5 c 128,-1,10
 200 41 200 41 200 -45 c 0,11,12
 200 -120 200 -120 235 -155 c 128,-1,13
 270 -190 270 -190 345 -190 c 0,14,15
 362 -190 362 -190 377 -188 c 128,-1,16
 392 -186 392 -186 404 -183 c 0,17,18
 418 -179 418 -179 430 -175 c 1,19,-1
 430 -15 l 1,20,21
 436 -14 436 -14 443 -13 c 0,22,23
 449 -12 449 -12 457 -11 c 128,-1,24
 465 -10 465 -10 475 -10 c 0,25,26
 517 -10 517 -10 538.5 -32.5 c 128,-1,27
 560 -55 560 -55 560 -85 c 0,28,29
 560 -109 560 -109 544 -132.5 c 128,-1,30
 528 -156 528 -156 496.5 -174.5 c 128,-1,31
 465 -193 465 -193 418.5 -204 c 128,-1,32
 372 -215 372 -215 310 -215 c 0,33,34
 237 -215 237 -215 184 -200 c 128,-1,35
 131 -185 131 -185 97 -159 c 128,-1,36
 63 -133 63 -133 46.5 -97 c 128,-1,37
 30 -61 30 -61 30 -20 c 0,0,1
240 430 m 256,38,39
 240 465 240 465 262.5 487.5 c 128,-1,40
 285 510 285 510 320 510 c 256,41,42
 355 510 355 510 377.5 487.5 c 128,-1,43
 400 465 400 465 400 430 c 256,44,45
 400 395 400 395 377.5 372.5 c 128,-1,46
 355 350 355 350 320 350 c 256,47,48
 285 350 285 350 262.5 372.5 c 128,-1,49
 240 395 240 395 240 430 c 256,38,39
EndSplineSet
EndChar

StartChar: Aring
Encoding: 197 197 135
Width: 740
GlyphClass: 2
Flags: W
LayerCount: 2
Fore
SplineSet
-30 0 m 1,0,-1
 -30 15 l 1,1,-1
 60 25 l 1,2,-1
 365 710 l 1,3,-1
 395 710 l 1,4,-1
 705 25 l 1,5,-1
 770 15 l 1,6,-1
 770 0 l 1,7,-1
 625 0 l 2,8,9
 576 0 576 0 539.5 30 c 128,-1,10
 503 60 503 60 480 110 c 2,11,-1
 439 200 l 1,12,-1
 173 200 l 1,13,-1
 95 25 l 1,14,-1
 195 15 l 1,15,-1
 195 0 l 1,16,-1
 -30 0 l 1,0,-1
186 230 m 1,17,-1
 426 230 l 1,18,-1
 305 497 l 1,19,-1
 186 230 l 1,17,-1
280 830 m 0,20,21
 280 852 280 852 288 870.5 c 128,-1,22
 296 889 296 889 309.5 902.5 c 128,-1,23
 323 916 323 916 341 923 c 128,-1,24
 359 930 359 930 380 930 c 256,25,26
 401 930 401 930 419 923 c 128,-1,27
 437 916 437 916 450.5 902.5 c 128,-1,28
 464 889 464 889 472 870.5 c 128,-1,29
 480 852 480 852 480 830 c 0,30,31
 480 807 480 807 472 789 c 128,-1,32
 464 771 464 771 450.5 757.5 c 128,-1,33
 437 744 437 744 419 737 c 128,-1,34
 401 730 401 730 380 730 c 256,35,36
 359 730 359 730 341 737 c 128,-1,37
 323 744 323 744 309.5 757.5 c 128,-1,38
 296 771 296 771 288 789 c 128,-1,39
 280 807 280 807 280 830 c 0,20,21
325 830 m 256,40,41
 325 804 325 804 341 787 c 128,-1,42
 357 770 357 770 380 770 c 256,43,44
 403 770 403 770 419 787 c 128,-1,45
 435 804 435 804 435 830 c 256,46,47
 435 856 435 856 419 873 c 128,-1,48
 403 890 403 890 380 890 c 256,49,50
 357 890 357 890 341 873 c 128,-1,51
 325 856 325 856 325 830 c 256,40,41
EndSplineSet
EndChar

StartChar: AE
Encoding: 198 198 136
Width: 1037
GlyphClass: 2
Flags: W
LayerCount: 2
Fore
SplineSet
-58 0 m 1,0,-1
 -58 15 l 1,1,-1
 32 25 l 1,2,-1
 432 700 l 1,3,-1
 987 700 l 1,4,-1
 987 510 l 1,5,-1
 957 510 l 1,6,7
 940 531 940 531 926 557 c 0,8,9
 914 579 914 579 904 609 c 128,-1,10
 894 639 894 639 892 675 c 1,11,-1
 642 675 l 1,12,-1
 642 370 l 1,13,-1
 777 370 l 1,14,15
 779 383 779 383 783.5 400 c 128,-1,16
 788 417 788 417 794 434.5 c 128,-1,17
 800 452 800 452 807 468 c 128,-1,18
 814 484 814 484 822 495 c 1,19,-1
 847 495 l 1,20,-1
 847 220 l 1,21,-1
 822 220 l 1,22,23
 814 231 814 231 807 247 c 128,-1,24
 800 263 800 263 794 280.5 c 128,-1,25
 788 298 788 298 783.5 315 c 128,-1,26
 779 332 779 332 777 345 c 1,27,-1
 642 345 l 1,28,-1
 642 25 l 1,29,-1
 892 25 l 1,30,31
 894 60 894 60 904 90.5 c 128,-1,32
 914 121 914 121 926 143 c 0,33,34
 940 169 940 169 957 190 c 1,35,-1
 987 190 l 1,36,-1
 987 0 l 1,37,-1
 392 0 l 1,38,-1
 392 15 l 1,39,-1
 472 25 l 1,40,-1
 472 255 l 1,41,-1
 203 255 l 1,42,-1
 67 25 l 1,43,-1
 167 15 l 1,44,-1
 167 0 l 1,45,-1
 -58 0 l 1,0,-1
221 285 m 1,46,-1
 472 285 l 1,47,-1
 472 675 l 1,48,-1
 452 675 l 1,49,-1
 221 285 l 1,46,-1
EndSplineSet
EndChar

StartChar: Ccedilla
Encoding: 199 199 137
Width: 685
GlyphClass: 2
Flags: W
LayerCount: 2
Fore
SplineSet
50 350 m 0,0,1
 50 449 50 449 80 518.5 c 128,-1,2
 110 588 110 588 156.5 631.5 c 128,-1,3
 203 675 203 675 258.5 695 c 128,-1,4
 314 715 314 715 365 715 c 0,5,6
 407 715 407 715 438 703 c 128,-1,7
 469 691 469 691 491 677 c 0,8,9
 517 660 517 660 535 640 c 1,10,11
 546 657 546 657 558 670 c 0,12,13
 569 681 569 681 583.5 690.5 c 128,-1,14
 598 700 598 700 615 700 c 2,15,-1
 635 700 l 1,16,-1
 635 510 l 1,17,-1
 590 510 l 1,18,19
 577 540 577 540 556.5 572 c 128,-1,20
 536 604 536 604 509.5 630 c 128,-1,21
 483 656 483 656 450 673 c 128,-1,22
 417 690 417 690 380 690 c 0,23,24
 356 690 356 690 328.5 672.5 c 128,-1,25
 301 655 301 655 278 615.5 c 128,-1,26
 255 576 255 576 240 511 c 128,-1,27
 225 446 225 446 225 350 c 256,28,29
 225 254 225 254 240.5 189 c 128,-1,30
 256 124 256 124 282 84.5 c 128,-1,31
 308 45 308 45 341 27.5 c 128,-1,32
 374 10 374 10 410 10 c 0,33,34
 444 10 444 10 476 20.5 c 128,-1,35
 508 31 508 31 536 50 c 128,-1,36
 564 69 564 69 586 94.5 c 128,-1,37
 608 120 608 120 622 150 c 1,38,-1
 645 135 l 1,39,40
 628 103 628 103 604.5 75.5 c 128,-1,41
 581 48 581 48 550 28 c 128,-1,42
 519 8 519 8 480.5 -3.5 c 128,-1,43
 442 -15 442 -15 395 -15 c 2,44,-1
 383 -15 l 2,45,46
 377 -15 377 -15 372 -14 c 1,47,-1
 372 -50 l 1,48,49
 421 -50 421 -50 449 -70.5 c 128,-1,50
 477 -91 477 -91 477 -125 c 256,51,52
 477 -159 477 -159 449 -179.5 c 128,-1,53
 421 -200 421 -200 372 -200 c 2,54,-1
 327 -200 l 1,55,-1
 327 -180 l 1,56,-1
 347 -180 l 2,57,58
 370 -180 370 -180 386 -165.5 c 128,-1,59
 402 -151 402 -151 402 -125 c 256,60,61
 402 -99 402 -99 386 -84.5 c 128,-1,62
 370 -70 370 -70 347 -70 c 2,63,-1
 342 -70 l 1,64,-1
 342 -11 l 1,65,66
 286 -4 286 -4 233.5 20 c 128,-1,67
 181 44 181 44 140 87.5 c 128,-1,68
 99 131 99 131 74.5 196 c 128,-1,69
 50 261 50 261 50 350 c 0,0,1
EndSplineSet
EndChar

StartChar: Eth
Encoding: 208 208 146
Width: 755
GlyphClass: 2
Flags: W
LayerCount: 2
Fore
SplineSet
30 345 m 1,0,-1
 30 370 l 1,1,-1
 120 370 l 1,2,-1
 120 675 l 1,3,-1
 40 685 l 1,4,-1
 40 700 l 1,5,-1
 320 700 l 2,6,7
 393 700 393 700 462.5 680.5 c 128,-1,8
 532 661 532 661 586 619 c 128,-1,9
 640 577 640 577 672.5 510.5 c 128,-1,10
 705 444 705 444 705 350 c 256,11,12
 705 256 705 256 672.5 189.5 c 128,-1,13
 640 123 640 123 586 81 c 128,-1,14
 532 39 532 39 462.5 19.5 c 128,-1,15
 393 0 393 0 320 0 c 2,16,-1
 40 0 l 1,17,-1
 40 15 l 1,18,-1
 120 25 l 1,19,-1
 120 345 l 1,20,-1
 30 345 l 1,0,-1
290 25 m 1,21,-1
 315 25 l 2,22,23
 358 25 358 25 397 42 c 128,-1,24
 436 59 436 59 465.5 97.5 c 128,-1,25
 495 136 495 136 512.5 198 c 128,-1,26
 530 260 530 260 530 350 c 256,27,28
 530 440 530 440 512.5 502 c 128,-1,29
 495 564 495 564 465.5 602.5 c 128,-1,30
 436 641 436 641 397 658 c 128,-1,31
 358 675 358 675 315 675 c 2,32,-1
 290 675 l 1,33,-1
 290 370 l 1,34,-1
 380 370 l 1,35,-1
 380 345 l 1,36,-1
 290 345 l 1,37,-1
 290 25 l 1,21,-1
EndSplineSet
EndChar

StartChar: multiply
Encoding: 215 215 153
Width: 448
GlyphClass: 2
Flags: W
LayerCount: 2
Fore
SplineSet
40 492 m 1,0,-1
 72 524 l 1,1,-1
 224 372 l 1,2,-1
 369 517 l 1,3,-1
 401 485 l 1,4,-1
 256 340 l 1,5,-1
 408 188 l 1,6,-1
 376 156 l 1,7,-1
 224 308 l 1,8,-1
 79 163 l 1,9,-1
 47 195 l 1,10,-1
 192 340 l 1,11,-1
 40 492 l 1,0,-1
EndSplineSet
EndChar

StartChar: Oslash
Encoding: 216 216 154
Width: 760
GlyphClass: 2
Flags: W
LayerCount: 2
Fore
SplineSet
50 350 m 0,0,1
 50 449 50 449 80 518.5 c 128,-1,2
 110 588 110 588 157 631.5 c 128,-1,3
 204 675 204 675 263 695 c 128,-1,4
 322 715 322 715 380 715 c 0,5,6
 434 715 434 715 488 698.5 c 128,-1,7
 542 682 542 682 588 645 c 1,8,-1
 630 700 l 1,9,-1
 675 700 l 1,10,-1
 615 620 l 1,11,12
 657 576 657 576 683.5 510 c 128,-1,13
 710 444 710 444 710 350 c 0,14,15
 710 251 710 251 680 181.5 c 128,-1,16
 650 112 650 112 603 68.5 c 128,-1,17
 556 25 556 25 497 5 c 128,-1,18
 438 -15 438 -15 380 -15 c 0,19,20
 329 -15 329 -15 277.5 0 c 128,-1,21
 226 15 226 15 181 48 c 1,22,-1
 145 0 l 1,23,-1
 95 0 l 1,24,-1
 151 73 l 1,25,26
 106 118 106 118 78 185.5 c 128,-1,27
 50 253 50 253 50 350 c 0,0,1
225 350 m 0,28,29
 225 256 225 256 239 188 c 1,30,-1
 513 546 l 1,31,32
 490 628 490 628 453 661.5 c 128,-1,33
 416 695 416 695 380 695 c 0,34,35
 354 695 354 695 326.5 677.5 c 128,-1,36
 299 660 299 660 276.5 620 c 128,-1,37
 254 580 254 580 239.5 513.5 c 128,-1,38
 225 447 225 447 225 350 c 0,28,29
251 140 m 1,39,40
 262 103 262 103 277 77 c 128,-1,41
 292 51 292 51 309.5 35 c 128,-1,42
 327 19 327 19 345 12 c 128,-1,43
 363 5 363 5 380 5 c 0,44,45
 406 5 406 5 433.5 22.5 c 128,-1,46
 461 40 461 40 483.5 80 c 128,-1,47
 506 120 506 120 520.5 186 c 128,-1,48
 535 252 535 252 535 350 c 0,49,50
 535 394 535 394 531.5 431 c 128,-1,51
 528 468 528 468 523 499 c 1,52,-1
 251 140 l 1,39,40
EndSplineSet
EndChar

StartChar: Thorn
Encoding: 222 222 160
Width: 680
GlyphClass: 2
Flags: W
LayerCount: 2
Fore
SplineSet
40 0 m 1,0,-1
 40 15 l 1,1,-1
 120 25 l 1,2,-1
 120 675 l 1,3,-1
 40 685 l 1,4,-1
 40 700 l 1,5,-1
 370 700 l 1,6,-1
 370 685 l 1,7,-1
 290 675 l 1,8,-1
 290 600 l 1,9,10
 367 600 367 600 433 586 c 128,-1,11
 499 572 499 572 547 542 c 128,-1,12
 595 512 595 512 622.5 464.5 c 128,-1,13
 650 417 650 417 650 350 c 0,14,15
 650 282 650 282 622.5 234.5 c 128,-1,16
 595 187 595 187 547 157 c 128,-1,17
 499 127 499 127 433 113.5 c 128,-1,18
 367 100 367 100 290 100 c 1,19,-1
 290 25 l 1,20,-1
 370 15 l 1,21,-1
 370 0 l 1,22,-1
 40 0 l 1,0,-1
290 125 m 1,23,24
 335 125 335 125 369.5 137 c 128,-1,25
 404 149 404 149 427.5 175.5 c 128,-1,26
 451 202 451 202 463 245 c 128,-1,27
 475 288 475 288 475 350 c 256,28,29
 475 412 475 412 463 455 c 128,-1,30
 451 498 451 498 427.5 524.5 c 128,-1,31
 404 551 404 551 369.5 563 c 128,-1,32
 335 575 335 575 290 575 c 1,33,-1
 290 125 l 1,23,24
EndSplineSet
EndChar

StartChar: germandbls
Encoding: 223 223 161
Width: 730
GlyphClass: 2
Flags: W
LayerCount: 2
Fore
SplineSet
10 0 m 1,0,-1
 10 15 l 1,1,-1
 90 25 l 1,2,-1
 90 500 l 2,3,4
 90 602 90 602 158.5 658.5 c 128,-1,5
 227 715 227 715 370 715 c 0,6,7
 437 715 437 715 484 703.5 c 128,-1,8
 531 692 531 692 560 673 c 128,-1,9
 589 654 589 654 602 629 c 128,-1,10
 615 604 615 604 615 576 c 0,11,12
 615 540 615 540 596 519 c 128,-1,13
 577 498 577 498 554.5 481 c 128,-1,14
 532 464 532 464 513.5 445.5 c 128,-1,15
 495 427 495 427 495 395 c 0,16,17
 495 380 495 380 499.5 369 c 128,-1,18
 504 358 504 358 511.5 348.5 c 128,-1,19
 519 339 519 339 530 330 c 2,20,-1
 555 310 l 1,21,-1
 635 245 l 2,22,23
 664 221 664 221 682 189 c 128,-1,24
 700 157 700 157 700 115 c 0,25,26
 700 89 700 89 688.5 65.5 c 128,-1,27
 677 42 677 42 652 24 c 128,-1,28
 627 6 627 6 588 -4.5 c 128,-1,29
 549 -15 549 -15 495 -15 c 0,30,31
 459 -15 459 -15 434 -4.5 c 128,-1,32
 409 6 409 6 392 20 c 0,33,34
 373 35 373 35 360 55 c 1,35,-1
 380 70 l 1,36,37
 392 53 392 53 407 40 c 0,38,39
 420 29 420 29 437 19.5 c 128,-1,40
 454 10 454 10 475 10 c 0,41,42
 535 10 535 10 535 75 c 0,43,44
 535 105 535 105 519.5 130.5 c 128,-1,45
 504 156 504 156 475 180 c 2,46,-1
 395 245 l 2,47,48
 362 271 362 271 346 298.5 c 128,-1,49
 330 326 330 326 330 360 c 0,50,51
 330 390 330 390 339 410.5 c 128,-1,52
 348 431 348 431 361 446 c 128,-1,53
 374 461 374 461 390 473.5 c 128,-1,54
 406 486 406 486 419 500.5 c 128,-1,55
 432 515 432 515 441 533.5 c 128,-1,56
 450 552 450 552 450 580 c 0,57,58
 450 633 450 633 424.5 661.5 c 128,-1,59
 399 690 399 690 365 690 c 0,60,61
 341 690 341 690 321.5 681.5 c 128,-1,62
 302 673 302 673 288.5 651.5 c 128,-1,63
 275 630 275 630 267.5 593 c 128,-1,64
 260 556 260 556 260 500 c 2,65,-1
 260 25 l 1,66,-1
 340 15 l 1,67,-1
 340 0 l 1,68,-1
 10 0 l 1,0,-1
EndSplineSet
EndChar

StartChar: aring
Encoding: 229 229 167
Width: 620
GlyphClass: 2
Flags: W
LayerCount: 2
Fore
SplineSet
30 150 m 0,0,1
 30 167 30 167 33 180.5 c 128,-1,2
 36 194 36 194 40 204 c 0,3,4
 44 215 44 215 50 225 c 1,5,6
 94 236 94 236 145 246 c 0,7,8
 188 254 188 254 244 261 c 128,-1,9
 300 268 300 268 360 270 c 1,10,-1
 360 290 l 2,11,12
 360 350 360 350 352.5 388.5 c 128,-1,13
 345 427 345 427 331 449.5 c 128,-1,14
 317 472 317 472 296.5 481 c 128,-1,15
 276 490 276 490 250 490 c 0,16,17
 240 490 240 490 231.5 489 c 128,-1,18
 223 488 223 488 216 487 c 2,19,-1
 200 485 l 1,20,-1
 200 335 l 1,21,22
 194 333 194 333 187 332 c 0,23,24
 181 331 181 331 172.5 330.5 c 128,-1,25
 164 330 164 330 155 330 c 0,26,27
 113 330 113 330 91.5 352.5 c 128,-1,28
 70 375 70 375 70 405 c 0,29,30
 70 462 70 462 126 488.5 c 128,-1,31
 182 515 182 515 280 515 c 0,32,33
 340 515 340 515 386.5 499 c 128,-1,34
 433 483 433 483 465 453.5 c 128,-1,35
 497 424 497 424 513.5 382.5 c 128,-1,36
 530 341 530 341 530 290 c 2,37,-1
 530 25 l 1,38,-1
 610 15 l 1,39,-1
 610 0 l 1,40,-1
 515 0 l 2,41,42
 471 0 471 0 444.5 15.5 c 128,-1,43
 418 31 418 31 404 50 c 0,44,45
 387 72 387 72 380 100 c 1,46,47
 367 68 367 68 346 42 c 0,48,49
 328 20 328 20 298 2.5 c 128,-1,50
 268 -15 268 -15 225 -15 c 0,51,52
 131 -15 131 -15 80.5 28 c 128,-1,53
 30 71 30 71 30 150 c 0,0,1
190 650 m 0,54,55
 190 672 190 672 198 690.5 c 128,-1,56
 206 709 206 709 219.5 722.5 c 128,-1,57
 233 736 233 736 251 743 c 128,-1,58
 269 750 269 750 290 750 c 256,59,60
 311 750 311 750 329 743 c 128,-1,61
 347 736 347 736 360.5 722.5 c 128,-1,62
 374 709 374 709 382 690.5 c 128,-1,63
 390 672 390 672 390 650 c 0,64,65
 390 627 390 627 382 609 c 128,-1,66
 374 591 374 591 360.5 577.5 c 128,-1,67
 347 564 347 564 329 557 c 128,-1,68
 311 550 311 550 290 550 c 256,69,70
 269 550 269 550 251 557 c 128,-1,71
 233 564 233 564 219.5 577.5 c 128,-1,72
 206 591 206 591 198 609 c 128,-1,73
 190 627 190 627 190 650 c 0,54,55
200 150 m 0,74,75
 200 79 200 79 219.5 49.5 c 128,-1,76
 239 20 239 20 265 20 c 0,77,78
 288 20 288 20 305.5 34.5 c 128,-1,79
 323 49 323 49 335 67 c 0,80,81
 349 88 349 88 360 115 c 1,82,-1
 360 245 l 1,83,84
 334 245 334 245 307.5 242.5 c 128,-1,85
 281 240 281 240 259 237 c 0,86,87
 233 233 233 233 210 230 c 1,88,89
 207 215 207 215 205 201 c 0,90,91
 203 189 203 189 201.5 175 c 128,-1,92
 200 161 200 161 200 150 c 0,74,75
235 650 m 256,93,94
 235 624 235 624 251 607 c 128,-1,95
 267 590 267 590 290 590 c 256,96,97
 313 590 313 590 329 607 c 128,-1,98
 345 624 345 624 345 650 c 256,99,100
 345 676 345 676 329 693 c 128,-1,101
 313 710 313 710 290 710 c 256,102,103
 267 710 267 710 251 693 c 128,-1,104
 235 676 235 676 235 650 c 256,93,94
EndSplineSet
EndChar

StartChar: ae
Encoding: 230 230 168
Width: 900
GlyphClass: 2
Flags: W
LayerCount: 2
Fore
SplineSet
30 140 m 0,0,1
 30 157 30 157 33 170.5 c 128,-1,2
 36 184 36 184 40 194 c 0,3,4
 44 205 44 205 50 215 c 1,5,6
 94 226 94 226 145 236 c 0,7,8
 188 244 188 244 244 251 c 128,-1,9
 300 258 300 258 360 260 c 1,10,-1
 360 290 l 2,11,12
 360 350 360 350 352.5 388.5 c 128,-1,13
 345 427 345 427 331 449.5 c 128,-1,14
 317 472 317 472 296.5 481 c 128,-1,15
 276 490 276 490 250 490 c 0,16,17
 240 490 240 490 231.5 489 c 128,-1,18
 223 488 223 488 216 487 c 2,19,-1
 200 485 l 1,20,-1
 200 335 l 1,21,22
 194 333 194 333 187 332 c 0,23,24
 181 331 181 331 172.5 330.5 c 128,-1,25
 164 330 164 330 155 330 c 0,26,27
 113 330 113 330 91.5 352.5 c 128,-1,28
 70 375 70 375 70 405 c 0,29,30
 70 433 70 433 84 454 c 128,-1,31
 98 475 98 475 123.5 488.5 c 128,-1,32
 149 502 149 502 184 508.5 c 128,-1,33
 219 515 219 515 260 515 c 0,34,35
 313 515 313 515 348 501 c 128,-1,36
 383 487 383 487 405 470 c 0,37,38
 431 450 431 450 445 425 c 1,39,40
 457 450 457 450 482 470 c 0,41,42
 503 487 503 487 539.5 501 c 128,-1,43
 576 515 576 515 635 515 c 0,44,45
 689 515 689 515 731 501 c 128,-1,46
 773 487 773 487 801.5 464 c 128,-1,47
 830 441 830 441 845 411.5 c 128,-1,48
 860 382 860 382 860 350 c 0,49,50
 860 335 860 335 857 321.5 c 128,-1,51
 854 308 854 308 850 297 c 0,52,53
 846 285 846 285 840 275 c 1,54,55
 795 264 795 264 745 254 c 0,56,57
 701 246 701 246 645.5 239 c 128,-1,58
 590 232 590 232 530 230 c 1,59,60
 532 170 532 170 542 128 c 128,-1,61
 552 86 552 86 567.5 60 c 128,-1,62
 583 34 583 34 604.5 22 c 128,-1,63
 626 10 626 10 650 10 c 0,64,65
 680 10 680 10 706 20 c 128,-1,66
 732 30 732 30 753.5 46 c 128,-1,67
 775 62 775 62 791 81.5 c 128,-1,68
 807 101 807 101 817 120 c 1,69,-1
 840 105 l 1,70,71
 823 79 823 79 803 57 c 128,-1,72
 783 35 783 35 757.5 19 c 128,-1,73
 732 3 732 3 700.5 -6 c 128,-1,74
 669 -15 669 -15 630 -15 c 0,75,76
 541 -15 541 -15 479 19.5 c 128,-1,77
 417 54 417 54 387 118 c 1,78,79
 383 105 383 105 372.5 82.5 c 128,-1,80
 362 60 362 60 343.5 38.5 c 128,-1,81
 325 17 325 17 296 1 c 128,-1,82
 267 -15 267 -15 225 -15 c 0,83,84
 131 -15 131 -15 80.5 26.5 c 128,-1,85
 30 68 30 68 30 140 c 0,0,1
200 140 m 0,86,87
 200 76 200 76 219.5 48 c 128,-1,88
 239 20 239 20 265 20 c 0,89,90
 288 20 288 20 305.5 34.5 c 128,-1,91
 323 49 323 49 335 67 c 0,92,93
 349 88 349 88 360 115 c 1,94,-1
 360 235 l 1,95,96
 334 235 334 235 307.5 232.5 c 128,-1,97
 281 230 281 230 259 227 c 0,98,99
 233 223 233 223 210 220 c 1,100,101
 207 205 207 205 205 191 c 0,102,103
 203 179 203 179 201.5 165 c 128,-1,104
 200 151 200 151 200 140 c 0,86,87
530 255 m 1,105,106
 556 255 556 255 582.5 257 c 128,-1,107
 609 259 609 259 631 262 c 0,108,109
 657 266 657 266 680 270 c 1,110,-1
 685 300 l 2,111,112
 687 313 687 313 688.5 329 c 128,-1,113
 690 345 690 345 690 360 c 0,114,115
 690 396 690 396 683 421.5 c 128,-1,116
 676 447 676 447 665.5 463.5 c 128,-1,117
 655 480 655 480 641.5 487.5 c 128,-1,118
 628 495 628 495 615 495 c 0,119,120
 598 495 598 495 582.5 486.5 c 128,-1,121
 567 478 567 478 555.5 456 c 128,-1,122
 544 434 544 434 537 396 c 128,-1,123
 530 358 530 358 530 300 c 2,124,-1
 530 255 l 1,105,106
EndSplineSet
EndChar

StartChar: ccedilla
Encoding: 231 231 169
Width: 550
GlyphClass: 2
Flags: W
LayerCount: 2
Fore
SplineSet
40 250 m 0,0,1
 40 319 40 319 62 369.5 c 128,-1,2
 84 420 84 420 121 452 c 128,-1,3
 158 484 158 484 207 499.5 c 128,-1,4
 256 515 256 515 310 515 c 0,5,6
 408 515 408 515 464 488.5 c 128,-1,7
 520 462 520 462 520 405 c 0,8,9
 520 375 520 375 498.5 352.5 c 128,-1,10
 477 330 477 330 435 330 c 0,11,12
 425 330 425 330 417 330.5 c 128,-1,13
 409 331 409 331 403 332 c 0,14,15
 396 333 396 333 390 335 c 1,16,-1
 390 485 l 1,17,-1
 374 487 l 2,18,19
 367 488 367 488 358 489 c 128,-1,20
 349 490 349 490 340 490 c 0,21,22
 308 490 308 490 284 478.5 c 128,-1,23
 260 467 260 467 243.5 439.5 c 128,-1,24
 227 412 227 412 218.5 365.5 c 128,-1,25
 210 319 210 319 210 250 c 256,26,27
 210 181 210 181 218 134.5 c 128,-1,28
 226 88 226 88 241.5 60.5 c 128,-1,29
 257 33 257 33 279.5 21.5 c 128,-1,30
 302 10 302 10 330 10 c 0,31,32
 360 10 360 10 386 20 c 128,-1,33
 412 30 412 30 433.5 46 c 128,-1,34
 455 62 455 62 471 81.5 c 128,-1,35
 487 101 487 101 497 120 c 1,36,-1
 520 105 l 1,37,38
 503 79 503 79 483 57 c 128,-1,39
 463 35 463 35 437.5 19 c 128,-1,40
 412 3 412 3 380.5 -6 c 128,-1,41
 349 -15 349 -15 310 -15 c 2,42,-1
 305 -15 l 1,43,-1
 305 -50 l 1,44,45
 354 -50 354 -50 382 -70.5 c 128,-1,46
 410 -91 410 -91 410 -125 c 256,47,48
 410 -159 410 -159 382 -179.5 c 128,-1,49
 354 -200 354 -200 305 -200 c 2,50,-1
 260 -200 l 1,51,-1
 260 -180 l 1,52,-1
 280 -180 l 2,53,54
 303 -180 303 -180 319 -165.5 c 128,-1,55
 335 -151 335 -151 335 -125 c 256,56,57
 335 -99 335 -99 319 -84.5 c 128,-1,58
 303 -70 303 -70 280 -70 c 2,59,-1
 275 -70 l 1,60,-1
 275 -13 l 1,61,62
 226 -9 226 -9 183.5 9 c 128,-1,63
 141 27 141 27 109 59 c 128,-1,64
 77 91 77 91 58.5 138.5 c 128,-1,65
 40 186 40 186 40 250 c 0,0,1
EndSplineSet
EndChar

StartChar: idieresis
Encoding: 239 239 177
Width: 370
GlyphClass: 2
Flags: W
LayerCount: 2
Fore
SplineSet
30 0 m 1,0,-1
 30 15 l 1,1,-1
 110 25 l 1,2,-1
 110 475 l 1,3,-1
 30 485 l 1,4,-1
 30 500 l 1,5,-1
 160 500 l 2,6,7
 280 500 280 500 280 380 c 2,8,-1
 280 25 l 1,9,-1
 360 15 l 1,10,-1
 360 0 l 1,11,-1
 30 0 l 1,0,-1
32 630 m 256,12,13
 32 656 32 656 49 673 c 128,-1,14
 66 690 66 690 92 690 c 256,15,16
 118 690 118 690 135 673 c 128,-1,17
 152 656 152 656 152 630 c 256,18,19
 152 604 152 604 135 587 c 128,-1,20
 118 570 118 570 92 570 c 256,21,22
 66 570 66 570 49 587 c 128,-1,23
 32 604 32 604 32 630 c 256,12,13
217 630 m 256,24,25
 217 656 217 656 234 673 c 128,-1,26
 251 690 251 690 278 690 c 0,27,28
 304 690 304 690 320.5 673 c 128,-1,29
 337 656 337 656 337 630 c 256,30,31
 337 604 337 604 320.5 587 c 128,-1,32
 304 570 304 570 278 570 c 0,33,34
 251 570 251 570 234 587 c 128,-1,35
 217 604 217 604 217 630 c 256,24,25
EndSplineSet
EndChar

StartChar: eth
Encoding: 240 240 178
Width: 620
GlyphClass: 2
Flags: W
LayerCount: 2
Fore
SplineSet
40 230 m 256,0,1
 40 292 40 292 60 338 c 128,-1,2
 80 384 80 384 114.5 414.5 c 128,-1,3
 149 445 149 445 194 460 c 128,-1,4
 239 475 239 475 290 475 c 0,5,6
 325 475 325 475 350 461.5 c 128,-1,7
 375 448 375 448 391 432 c 0,8,9
 409 414 409 414 420 390 c 1,10,11
 416 459 416 459 393 513 c 128,-1,12
 370 567 370 567 332 605 c 1,13,-1
 289 530 l 1,14,-1
 267 543 l 1,15,-1
 313 623 l 1,16,17
 241 680 241 680 140 680 c 1,18,-1
 140 700 l 1,19,20
 251 700 251 700 339 669 c 1,21,-1
 382 742 l 1,22,-1
 404 729 l 1,23,-1
 364 659 l 1,24,25
 469 614 469 614 524.5 517.5 c 128,-1,26
 580 421 580 421 580 270 c 0,27,28
 580 193 580 193 558 139 c 128,-1,29
 536 85 536 85 499 50.5 c 128,-1,30
 462 16 462 16 413 0.5 c 128,-1,31
 364 -15 364 -15 310 -15 c 256,32,33
 256 -15 256 -15 207 0 c 128,-1,34
 158 15 158 15 121 45.5 c 128,-1,35
 84 76 84 76 62 122 c 128,-1,36
 40 168 40 168 40 230 c 256,0,1
210 230 m 0,37,38
 210 166 210 166 218 123 c 128,-1,39
 226 80 226 80 239.5 53.5 c 128,-1,40
 253 27 253 27 271 16 c 128,-1,41
 289 5 289 5 310 5 c 256,42,43
 331 5 331 5 349 16 c 128,-1,44
 367 27 367 27 380.5 53.5 c 128,-1,45
 394 80 394 80 402 123 c 128,-1,46
 410 166 410 166 410 230 c 2,47,-1
 410 242 l 2,48,49
 410 297 410 297 400.5 337.5 c 128,-1,50
 391 378 391 378 375 404 c 128,-1,51
 359 430 359 430 339.5 442.5 c 128,-1,52
 320 455 320 455 300 455 c 0,53,54
 281 455 281 455 264.5 445 c 128,-1,55
 248 435 248 435 236 410 c 128,-1,56
 224 385 224 385 217 341 c 128,-1,57
 210 297 210 297 210 230 c 0,37,38
EndSplineSet
EndChar

StartChar: divide
Encoding: 247 247 185
Width: 530
GlyphClass: 2
Flags: W
LayerCount: 2
Fore
SplineSet
30 310 m 1,0,-1
 30 355 l 1,1,-1
 500 355 l 1,2,-1
 500 310 l 1,3,-1
 30 310 l 1,0,-1
200 170 m 256,4,5
 200 199 200 199 218 217 c 128,-1,6
 236 235 236 235 265 235 c 256,7,8
 294 235 294 235 312 217 c 128,-1,9
 330 199 330 199 330 170 c 256,10,11
 330 141 330 141 312 123 c 128,-1,12
 294 105 294 105 265 105 c 256,13,14
 236 105 236 105 218 123 c 128,-1,15
 200 141 200 141 200 170 c 256,4,5
200 495 m 256,16,17
 200 524 200 524 218 542 c 128,-1,18
 236 560 236 560 265 560 c 256,19,20
 294 560 294 560 312 542 c 128,-1,21
 330 524 330 524 330 495 c 256,22,23
 330 466 330 466 312 448 c 128,-1,24
 294 430 294 430 265 430 c 256,25,26
 236 430 236 430 218 448 c 128,-1,27
 200 466 200 466 200 495 c 256,16,17
EndSplineSet
EndChar

StartChar: oslash
Encoding: 248 248 186
Width: 620
GlyphClass: 2
Flags: W
LayerCount: 2
Fore
SplineSet
40 250 m 0,0,1
 40 319 40 319 62 369.5 c 128,-1,2
 84 420 84 420 121 452 c 128,-1,3
 158 484 158 484 207 499.5 c 128,-1,4
 256 515 256 515 310 515 c 0,5,6
 398 515 398 515 466 476 c 1,7,-1
 485 500 l 1,8,-1
 530 500 l 1,9,-1
 495 455 l 1,10,11
 534 423 534 423 557 372.5 c 128,-1,12
 580 322 580 322 580 250 c 0,13,14
 580 181 580 181 558 130.5 c 128,-1,15
 536 80 536 80 499 48 c 128,-1,16
 462 16 462 16 413 0.5 c 128,-1,17
 364 -15 364 -15 310 -15 c 0,18,19
 268 -15 268 -15 229 -6 c 128,-1,20
 190 3 190 3 157 22 c 1,21,-1
 140 0 l 1,22,-1
 90 0 l 1,23,-1
 125 44 l 1,24,25
 86 76 86 76 63 127 c 128,-1,26
 40 178 40 178 40 250 c 0,0,1
210 250 m 0,27,28
 210 223 210 223 211 200 c 128,-1,29
 212 177 212 177 214 157 c 1,30,-1
 398 390 l 1,31,32
 385 449 385 449 362 472 c 128,-1,33
 339 495 339 495 310 495 c 0,34,35
 289 495 289 495 271 483.5 c 128,-1,36
 253 472 253 472 239.5 444 c 128,-1,37
 226 416 226 416 218 368.5 c 128,-1,38
 210 321 210 321 210 250 c 0,27,28
223 106 m 1,39,40
 236 49 236 49 258.5 27 c 128,-1,41
 281 5 281 5 310 5 c 0,42,43
 331 5 331 5 349 16.5 c 128,-1,44
 367 28 367 28 380.5 56 c 128,-1,45
 394 84 394 84 402 131.5 c 128,-1,46
 410 179 410 179 410 250 c 0,47,48
 410 276 410 276 409 298 c 128,-1,49
 408 320 408 320 406 340 c 1,50,-1
 223 106 l 1,39,40
EndSplineSet
EndChar

StartChar: thorn
Encoding: 254 254 192
Width: 640
GlyphClass: 2
Flags: W
LayerCount: 2
Fore
SplineSet
10 -185 m 1,0,-1
 90 -175 l 1,1,-1
 90 675 l 1,2,-1
 10 685 l 1,3,-1
 10 700 l 1,4,-1
 140 700 l 2,5,6
 260 700 260 700 260 580 c 2,7,-1
 260 438 l 1,8,9
 268 451 268 451 279.5 464.5 c 128,-1,10
 291 478 291 478 307.5 489 c 128,-1,11
 324 500 324 500 346 507.5 c 128,-1,12
 368 515 368 515 395 515 c 0,13,14
 427 515 427 515 463 499.5 c 128,-1,15
 499 484 499 484 529.5 452 c 128,-1,16
 560 420 560 420 580 369.5 c 128,-1,17
 600 319 600 319 600 250 c 256,18,19
 600 181 600 181 584 130.5 c 128,-1,20
 568 80 568 80 540 48 c 128,-1,21
 512 16 512 16 473.5 0.5 c 128,-1,22
 435 -15 435 -15 390 -15 c 0,23,24
 361 -15 361 -15 337.5 -8 c 128,-1,25
 314 -1 314 -1 297 7 c 0,26,27
 277 17 277 17 260 30 c 1,28,-1
 260 -175 l 1,29,-1
 340 -185 l 1,30,-1
 340 -200 l 1,31,-1
 10 -200 l 1,32,-1
 10 -185 l 1,0,-1
260 60 m 1,33,-1
 269 53 l 2,34,35
 277 46 277 46 290 37.5 c 128,-1,36
 303 29 303 29 319 22 c 128,-1,37
 335 15 335 15 350 15 c 0,38,39
 369 15 369 15 383.5 27 c 128,-1,40
 398 39 398 39 408.5 67 c 128,-1,41
 419 95 419 95 424.5 139.5 c 128,-1,42
 430 184 430 184 430 250 c 256,43,44
 430 316 430 316 424.5 360 c 128,-1,45
 419 404 419 404 409.5 430.5 c 128,-1,46
 400 457 400 457 386 468.5 c 128,-1,47
 372 480 372 480 355 480 c 0,48,49
 332 480 332 480 314.5 465 c 128,-1,50
 297 450 297 450 285 432 c 0,51,52
 271 411 271 411 260 385 c 1,53,-1
 260 60 l 1,33,-1
EndSplineSet
EndChar

StartChar: hbar
Encoding: 295 295 194
Width: 710
GlyphClass: 2
Flags: W
LayerCount: 2
Fore
SplineSet
20 0 m 1,0,-1
 20 15 l 1,1,-1
 100 25 l 1,2,-1
 100 520 l 1,3,-1
 20 530 l 1,4,-1
 20 550 l 1,5,-1
 100 550 l 1,6,-1
 100 675 l 1,7,-1
 20 685 l 1,8,-1
 20 700 l 1,9,-1
 150 700 l 2,10,11
 270 700 270 700 270 580 c 2,12,-1
 270 550 l 1,13,-1
 450 550 l 1,14,-1
 450 530 l 1,15,-1
 270 520 l 1,16,-1
 270 374 l 1,17,18
 279 386 279 386 292 400.5 c 128,-1,19
 305 415 305 415 323 427 c 128,-1,20
 341 439 341 439 364 447 c 128,-1,21
 387 455 387 455 415 455 c 0,22,23
 509 455 509 455 559.5 412 c 128,-1,24
 610 369 610 369 610 290 c 2,25,-1
 610 25 l 1,26,-1
 690 15 l 1,27,-1
 690 0 l 1,28,-1
 560 0 l 2,29,30
 440 0 440 0 440 120 c 2,31,-1
 440 290 l 2,32,33
 440 361 440 361 420.5 390.5 c 128,-1,34
 401 420 401 420 375 420 c 256,35,36
 349 420 349 420 329 405 c 128,-1,37
 309 390 309 390 296 372 c 0,38,39
 280 351 280 351 270 325 c 1,40,-1
 270 25 l 1,41,-1
 340 15 l 1,42,-1
 340 0 l 1,43,-1
 20 0 l 1,0,-1
EndSplineSet
EndChar

StartChar: itilde
Encoding: 297 297 196
Width: 370
GlyphClass: 2
Flags: W
LayerCount: 2
Fore
SplineSet
30 0 m 1,0,-1
 30 15 l 1,1,-1
 110 25 l 1,2,-1
 110 475 l 1,3,-1
 30 485 l 1,4,-1
 30 500 l 1,5,-1
 160 500 l 2,6,7
 280 500 280 500 280 380 c 2,8,-1
 280 25 l 1,9,-1
 360 15 l 1,10,-1
 360 0 l 1,11,-1
 30 0 l 1,0,-1
35 580 m 1,12,13
 36 611 36 611 46 637 c 0,14,15
 54 659 54 659 72.5 677 c 128,-1,16
 91 695 91 695 125 695 c 0,17,18
 147 695 147 695 162.5 687 c 128,-1,19
 178 679 178 679 190 670 c 2,20,-1
 213 653 l 2,21,22
 225 645 225 645 240 645 c 0,23,24
 259 645 259 645 270.5 652 c 128,-1,25
 282 659 282 659 289 667 c 0,26,27
 297 677 297 677 300 690 c 1,28,-1
 315 690 l 1,29,30
 314 658 314 658 304 632 c 0,31,32
 296 610 296 610 277.5 592.5 c 128,-1,33
 259 575 259 575 225 575 c 0,34,35
 202 575 202 575 187 583 c 128,-1,36
 172 591 172 591 160 600 c 2,37,-1
 137 617 l 2,38,39
 125 625 125 625 110 625 c 0,40,41
 91 625 91 625 79.5 617.5 c 128,-1,42
 68 610 68 610 61 602 c 0,43,44
 53 592 53 592 50 580 c 1,45,-1
 35 580 l 1,12,13
EndSplineSet
EndChar

StartChar: dotlessi
Encoding: 305 305 197
Width: 370
GlyphClass: 2
Flags: W
LayerCount: 2
Fore
SplineSet
30 0 m 1,0,-1
 30 15 l 1,1,-1
 110 25 l 1,2,-1
 110 475 l 1,3,-1
 30 485 l 1,4,-1
 30 500 l 1,5,-1
 160 500 l 2,6,7
 280 500 280 500 280 380 c 2,8,-1
 280 25 l 1,9,-1
 360 15 l 1,10,-1
 360 0 l 1,11,-1
 30 0 l 1,0,-1
EndSplineSet
EndChar

StartChar: jcircumflex
Encoding: 309 309 200
Width: 370
GlyphClass: 2
Flags: W
LayerCount: 2
Fore
SplineSet
-130 -110 m 0,0,1
 -130 -80 -130 -80 -108.5 -57.5 c 128,-1,2
 -87 -35 -87 -35 -45 -35 c 0,3,4
 -36 -35 -36 -35 -28.5 -36 c 128,-1,5
 -21 -37 -21 -37 -16 -38 c 0,6,7
 -10 -39 -10 -39 -5 -40 c 1,8,-1
 -5 -185 l 1,9,10
 1 -187 1 -187 7 -188 c 0,11,12
 12 -189 12 -189 18 -189.5 c 128,-1,13
 24 -190 24 -190 30 -190 c 0,14,15
 49 -190 49 -190 65.5 -183 c 128,-1,16
 82 -176 82 -176 94 -155 c 128,-1,17
 106 -134 106 -134 113 -97 c 128,-1,18
 120 -60 120 -60 120 0 c 2,19,-1
 120 475 l 1,20,-1
 40 485 l 1,21,-1
 40 500 l 1,22,-1
 170 500 l 2,23,24
 290 500 290 500 290 380 c 2,25,-1
 290 0 l 2,26,27
 290 -51 290 -51 273.5 -90.5 c 128,-1,28
 257 -130 257 -130 227 -158 c 128,-1,29
 197 -186 197 -186 154.5 -200.5 c 128,-1,30
 112 -215 112 -215 60 -215 c 0,31,32
 19 -215 19 -215 -16 -209 c 128,-1,33
 -51 -203 -51 -203 -76.5 -190.5 c 128,-1,34
 -102 -178 -102 -178 -116 -158 c 128,-1,35
 -130 -138 -130 -138 -130 -110 c 0,0,1
30 560 m 1,36,-1
 160 720 l 1,37,-1
 210 720 l 1,38,-1
 340 560 l 1,39,-1
 296 560 l 1,40,-1
 185 651 l 1,41,-1
 74 560 l 1,42,-1
 30 560 l 1,36,-1
EndSplineSet
EndChar

StartChar: kcommaaccent
Encoding: 311 311 201
Width: 625
GlyphClass: 2
Flags: W
LayerCount: 2
Fore
SplineSet
20 0 m 1,0,-1
 20 15 l 1,1,-1
 100 25 l 1,2,-1
 100 675 l 1,3,-1
 20 685 l 1,4,-1
 20 700 l 1,5,-1
 150 700 l 2,6,7
 270 700 270 700 270 580 c 2,8,-1
 270 260 l 1,9,-1
 480 475 l 1,10,-1
 380 485 l 1,11,-1
 380 500 l 1,12,-1
 605 500 l 1,13,-1
 605 485 l 1,14,-1
 515 475 l 1,15,-1
 380 337 l 1,16,-1
 590 25 l 1,17,-1
 645 15 l 1,18,-1
 645 0 l 1,19,-1
 500 0 l 2,20,21
 455 0 455 0 424.5 22 c 128,-1,22
 394 44 394 44 360 95 c 2,23,-1
 270 230 l 1,24,-1
 270 25 l 1,25,-1
 350 15 l 1,26,-1
 350 0 l 1,27,-1
 20 0 l 1,0,-1
280 -126 m 0,28,29
 280 -97 280 -97 297.5 -78.5 c 128,-1,30
 315 -60 315 -60 341 -60 c 0,31,32
 370 -60 370 -60 390 -80 c 128,-1,33
 410 -100 410 -100 410 -141 c 0,34,35
 410 -192 410 -192 394.5 -221.5 c 128,-1,36
 379 -251 379 -251 360 -266 c 0,37,38
 338 -284 338 -284 311 -290 c 1,39,-1
 302 -275 l 1,40,41
 322 -269 322 -269 340 -256 c 0,42,43
 354 -245 354 -245 367.5 -225.5 c 128,-1,44
 381 -206 381 -206 383 -176 c 1,45,46
 378 -180 378 -180 371 -183 c 0,47,48
 357 -190 357 -190 341 -190 c 0,49,50
 315 -190 315 -190 297.5 -172 c 128,-1,51
 280 -154 280 -154 280 -126 c 0,28,29
EndSplineSet
EndChar

StartChar: kgreenlandic
Encoding: 312 312 202
Width: 625
GlyphClass: 2
Flags: W
LayerCount: 2
Fore
SplineSet
20 0 m 1,0,-1
 20 15 l 1,1,-1
 100 25 l 1,2,-1
 100 475 l 1,3,-1
 20 485 l 1,4,-1
 20 500 l 1,5,-1
 150 500 l 2,6,7
 270 500 270 500 270 380 c 2,8,-1
 270 250 l 1,9,-1
 480 475 l 1,10,-1
 380 485 l 1,11,-1
 380 500 l 1,12,-1
 605 500 l 1,13,-1
 605 485 l 1,14,-1
 515 475 l 1,15,-1
 375 325 l 1,16,-1
 590 25 l 1,17,-1
 645 15 l 1,18,-1
 645 0 l 1,19,-1
 500 0 l 2,20,21
 455 0 455 0 425 23 c 128,-1,22
 395 46 395 46 360 95 c 2,23,-1
 270 220 l 1,24,-1
 270 25 l 1,25,-1
 350 15 l 1,26,-1
 350 0 l 1,27,-1
 20 0 l 1,0,-1
EndSplineSet
EndChar

StartChar: ldot
Encoding: 320 320 203
Width: 540
GlyphClass: 2
Flags: W
LayerCount: 2
Fore
SplineSet
20 0 m 1,0,-1
 20 15 l 1,1,-1
 100 25 l 1,2,-1
 100 675 l 1,3,-1
 20 685 l 1,4,-1
 20 700 l 1,5,-1
 150 700 l 2,6,7
 270 700 270 700 270 580 c 2,8,-1
 270 25 l 1,9,-1
 350 15 l 1,10,-1
 350 0 l 1,11,-1
 20 0 l 1,0,-1
340 350 m 256,12,13
 340 385 340 385 362.5 407.5 c 128,-1,14
 385 430 385 430 420 430 c 256,15,16
 455 430 455 430 477.5 407.5 c 128,-1,17
 500 385 500 385 500 350 c 256,18,19
 500 315 500 315 477.5 292.5 c 128,-1,20
 455 270 455 270 420 270 c 256,21,22
 385 270 385 270 362.5 292.5 c 128,-1,23
 340 315 340 315 340 350 c 256,12,13
EndSplineSet
EndChar

StartChar: Lslash
Encoding: 321 321 204
Width: 665
GlyphClass: 2
Flags: W
LayerCount: 2
Fore
SplineSet
30 265 m 1,0,-1
 30 300 l 1,1,-1
 120 351 l 1,2,-1
 120 675 l 1,3,-1
 40 685 l 1,4,-1
 40 700 l 1,5,-1
 360 700 l 1,6,-1
 360 685 l 1,7,-1
 290 675 l 1,8,-1
 290 448 l 1,9,-1
 380 500 l 1,10,-1
 380 465 l 1,11,-1
 290 413 l 1,12,-1
 290 25 l 1,13,-1
 540 25 l 1,14,15
 542 60 542 60 552 90.5 c 128,-1,16
 562 121 562 121 574 143 c 0,17,18
 588 169 588 169 605 190 c 1,19,-1
 635 190 l 1,20,-1
 635 0 l 1,21,-1
 40 0 l 1,22,-1
 40 15 l 1,23,-1
 120 25 l 1,24,-1
 120 316 l 1,25,-1
 30 265 l 1,0,-1
EndSplineSet
EndChar

StartChar: lslash
Encoding: 322 322 205
Width: 360
GlyphClass: 2
Flags: W
LayerCount: 2
Fore
SplineSet
10 265 m 1,0,-1
 10 300 l 1,1,-1
 100 351 l 1,2,-1
 100 675 l 1,3,-1
 20 685 l 1,4,-1
 20 700 l 1,5,-1
 150 700 l 2,6,7
 270 700 270 700 270 580 c 2,8,-1
 270 448 l 1,9,-1
 360 500 l 1,10,-1
 360 465 l 1,11,-1
 270 413 l 1,12,-1
 270 25 l 1,13,-1
 350 15 l 1,14,-1
 350 0 l 1,15,-1
 20 0 l 1,16,-1
 20 15 l 1,17,-1
 100 25 l 1,18,-1
 100 316 l 1,19,-1
 10 265 l 1,0,-1
EndSplineSet
EndChar

StartChar: OE
Encoding: 338 338 208
Width: 1035
GlyphClass: 2
Flags: W
LayerCount: 2
Fore
SplineSet
50 350 m 256,0,1
 50 444 50 444 80 510.5 c 128,-1,2
 110 577 110 577 157 619 c 128,-1,3
 204 661 204 661 263 680.5 c 128,-1,4
 322 700 322 700 380 700 c 2,5,-1
 985 700 l 1,6,-1
 985 510 l 1,7,-1
 955 510 l 1,8,9
 938 531 938 531 924 557 c 0,10,11
 912 579 912 579 902 609 c 128,-1,12
 892 639 892 639 890 675 c 1,13,-1
 640 675 l 1,14,-1
 640 370 l 1,15,-1
 775 370 l 1,16,17
 777 383 777 383 781.5 400 c 128,-1,18
 786 417 786 417 792 434.5 c 128,-1,19
 798 452 798 452 805 468 c 128,-1,20
 812 484 812 484 820 495 c 1,21,-1
 845 495 l 1,22,-1
 845 220 l 1,23,-1
 820 220 l 1,24,25
 812 231 812 231 805 247 c 128,-1,26
 798 263 798 263 792 280.5 c 128,-1,27
 786 298 786 298 781.5 315 c 128,-1,28
 777 332 777 332 775 345 c 1,29,-1
 640 345 l 1,30,-1
 640 25 l 1,31,-1
 890 25 l 1,32,33
 892 60 892 60 902 90.5 c 128,-1,34
 912 121 912 121 924 143 c 0,35,36
 938 169 938 169 955 190 c 1,37,-1
 985 190 l 1,38,-1
 985 0 l 1,39,-1
 380 0 l 2,40,41
 322 0 322 0 263 19.5 c 128,-1,42
 204 39 204 39 157 81 c 128,-1,43
 110 123 110 123 80 189.5 c 128,-1,44
 50 256 50 256 50 350 c 256,0,1
225 350 m 256,45,46
 225 258 225 258 239.5 196 c 128,-1,47
 254 134 254 134 276.5 96 c 128,-1,48
 299 58 299 58 326.5 41.5 c 128,-1,49
 354 25 354 25 380 25 c 2,50,-1
 470 25 l 1,51,-1
 470 675 l 1,52,-1
 380 675 l 2,53,54
 354 675 354 675 326.5 658.5 c 128,-1,55
 299 642 299 642 276.5 604 c 128,-1,56
 254 566 254 566 239.5 504 c 128,-1,57
 225 442 225 442 225 350 c 256,45,46
EndSplineSet
EndChar

StartChar: oe
Encoding: 339 339 209
Width: 960
GlyphClass: 2
Flags: W
LayerCount: 2
Fore
SplineSet
40 250 m 256,0,1
 40 319 40 319 61.5 369.5 c 128,-1,2
 83 420 83 420 118 452 c 128,-1,3
 153 484 153 484 198 499.5 c 128,-1,4
 243 515 243 515 290 515 c 0,5,6
 350 515 350 515 389.5 501 c 128,-1,7
 429 487 429 487 452 470 c 0,8,9
 479 450 479 450 495 425 c 1,10,11
 507 450 507 450 532 470 c 0,12,13
 553 487 553 487 589.5 501 c 128,-1,14
 626 515 626 515 685 515 c 0,15,16
 743 515 743 515 787 501 c 128,-1,17
 831 487 831 487 860.5 464 c 128,-1,18
 890 441 890 441 905 411.5 c 128,-1,19
 920 382 920 382 920 350 c 0,20,21
 920 335 920 335 917 321.5 c 128,-1,22
 914 308 914 308 910 297 c 0,23,24
 906 285 906 285 900 275 c 1,25,26
 853 264 853 264 800 254 c 0,27,28
 755 246 755 246 697.5 239 c 128,-1,29
 640 232 640 232 580 230 c 1,30,31
 582 170 582 170 592 128 c 128,-1,32
 602 86 602 86 617.5 60 c 128,-1,33
 633 34 633 34 654.5 22 c 128,-1,34
 676 10 676 10 700 10 c 0,35,36
 730 10 730 10 756 20 c 128,-1,37
 782 30 782 30 803.5 46 c 128,-1,38
 825 62 825 62 841 81.5 c 128,-1,39
 857 101 857 101 867 120 c 1,40,-1
 890 105 l 1,41,42
 856 52 856 52 808.5 18.5 c 128,-1,43
 761 -15 761 -15 690 -15 c 0,44,45
 630 -15 630 -15 592 -1 c 128,-1,46
 554 13 554 13 532 30 c 0,47,48
 506 49 506 49 495 75 c 1,49,50
 479 49 479 49 452 30 c 0,51,52
 429 13 429 13 389.5 -1 c 128,-1,53
 350 -15 350 -15 290 -15 c 0,54,55
 243 -15 243 -15 198 0.5 c 128,-1,56
 153 16 153 16 118 48 c 128,-1,57
 83 80 83 80 61.5 130.5 c 128,-1,58
 40 181 40 181 40 250 c 256,0,1
210 250 m 256,59,60
 210 179 210 179 218 131.5 c 128,-1,61
 226 84 226 84 239.5 56 c 128,-1,62
 253 28 253 28 271 16.5 c 128,-1,63
 289 5 289 5 310 5 c 256,64,65
 331 5 331 5 349 16.5 c 128,-1,66
 367 28 367 28 380.5 56 c 128,-1,67
 394 84 394 84 402 131.5 c 128,-1,68
 410 179 410 179 410 250 c 2,69,-1
 410 262 l 1,70,71
 409 329 409 329 401 374 c 128,-1,72
 393 419 393 419 379.5 446 c 128,-1,73
 366 473 366 473 348 484 c 128,-1,74
 330 495 330 495 310 495 c 0,75,76
 289 495 289 495 271 483.5 c 128,-1,77
 253 472 253 472 239.5 444 c 128,-1,78
 226 416 226 416 218 368.5 c 128,-1,79
 210 321 210 321 210 250 c 256,59,60
580 255 m 1,80,81
 606 255 606 255 634.5 257 c 128,-1,82
 663 259 663 259 686 262 c 2,83,-1
 740 270 l 1,84,-1
 745 300 l 2,85,86
 747 313 747 313 748.5 329 c 128,-1,87
 750 345 750 345 750 360 c 0,88,89
 750 431 750 431 724.5 463 c 128,-1,90
 699 495 699 495 665 495 c 0,91,92
 648 495 648 495 632.5 486.5 c 128,-1,93
 617 478 617 478 605.5 456 c 128,-1,94
 594 434 594 434 587 396 c 128,-1,95
 580 358 580 358 580 300 c 2,96,-1
 580 255 l 1,80,81
EndSplineSet
EndChar

StartChar: Rcommaaccent
Encoding: 342 342 211
Width: 725
GlyphClass: 2
Flags: W
LayerCount: 2
Fore
SplineSet
40 0 m 1,0,-1
 40 15 l 1,1,-1
 120 25 l 1,2,-1
 120 675 l 1,3,-1
 40 685 l 1,4,-1
 40 700 l 1,5,-1
 370 700 l 2,6,7
 441 700 441 700 495.5 685.5 c 128,-1,8
 550 671 550 671 586.5 645.5 c 128,-1,9
 623 620 623 620 641.5 584 c 128,-1,10
 660 548 660 548 660 505 c 0,11,12
 660 422 660 422 601.5 375 c 128,-1,13
 543 328 543 328 430 320 c 1,14,15
 454 315 454 315 479 304 c 0,16,17
 500 294 500 294 523 275.5 c 128,-1,18
 546 257 546 257 565 225 c 2,19,-1
 680 25 l 1,20,-1
 735 15 l 1,21,-1
 735 0 l 1,22,-1
 600 0 l 2,23,24
 547 0 547 0 511 23.5 c 128,-1,25
 475 47 475 47 445 100 c 2,26,-1
 325 310 l 1,27,-1
 290 310 l 1,28,-1
 290 25 l 1,29,-1
 370 15 l 1,30,-1
 370 0 l 1,31,-1
 40 0 l 1,0,-1
290 335 m 1,32,-1
 350 335 l 2,33,34
 414 335 414 335 452 380.5 c 128,-1,35
 490 426 490 426 490 505 c 256,36,37
 490 584 490 584 452 629.5 c 128,-1,38
 414 675 414 675 350 675 c 2,39,-1
 290 675 l 1,40,-1
 290 335 l 1,32,-1
340 -126 m 0,41,42
 340 -97 340 -97 357.5 -78.5 c 128,-1,43
 375 -60 375 -60 401 -60 c 0,44,45
 430 -60 430 -60 450 -80 c 128,-1,46
 470 -100 470 -100 470 -141 c 0,47,48
 470 -192 470 -192 454.5 -221.5 c 128,-1,49
 439 -251 439 -251 420 -266 c 0,50,51
 398 -284 398 -284 371 -290 c 1,52,-1
 362 -275 l 1,53,54
 382 -269 382 -269 400 -256 c 0,55,56
 414 -245 414 -245 427.5 -225.5 c 128,-1,57
 441 -206 441 -206 443 -176 c 1,58,59
 438 -180 438 -180 431 -183 c 0,60,61
 417 -190 417 -190 401 -190 c 0,62,63
 375 -190 375 -190 357.5 -172 c 128,-1,64
 340 -154 340 -154 340 -126 c 0,41,42
EndSplineSet
EndChar

StartChar: rcommaaccent
Encoding: 343 343 212
Width: 570
GlyphClass: 2
Flags: W
LayerCount: 2
Fore
SplineSet
30 0 m 1,0,-1
 30 15 l 1,1,-1
 110 25 l 1,2,-1
 110 475 l 1,3,-1
 30 485 l 1,4,-1
 30 500 l 1,5,-1
 125 500 l 2,6,7
 168 500 168 500 195 484.5 c 128,-1,8
 222 469 222 469 236 450 c 0,9,10
 253 428 253 428 260 400 c 1,11,12
 280 429 280 429 306 452 c 0,13,14
 328 472 328 472 359 488.5 c 128,-1,15
 390 505 390 505 430 505 c 0,16,17
 490 505 490 505 520 480 c 128,-1,18
 550 455 550 455 550 410 c 0,19,20
 550 380 550 380 528.5 357.5 c 128,-1,21
 507 335 507 335 465 335 c 0,22,23
 455 335 455 335 447 335.5 c 128,-1,24
 439 336 439 336 433 337 c 0,25,26
 426 338 426 338 420 340 c 1,27,-1
 420 480 l 1,28,29
 391 480 391 480 366.5 465 c 128,-1,30
 342 450 342 450 322 432 c 0,31,32
 299 411 299 411 280 385 c 1,33,-1
 280 25 l 1,34,-1
 360 15 l 1,35,-1
 360 0 l 1,36,-1
 30 0 l 1,0,-1
140 -136 m 0,37,38
 140 -107 140 -107 157.5 -88.5 c 128,-1,39
 175 -70 175 -70 201 -70 c 0,40,41
 230 -70 230 -70 250 -90 c 128,-1,42
 270 -110 270 -110 270 -151 c 0,43,44
 270 -202 270 -202 254.5 -231.5 c 128,-1,45
 239 -261 239 -261 220 -276 c 0,46,47
 198 -294 198 -294 171 -300 c 1,48,-1
 162 -285 l 1,49,50
 182 -279 182 -279 200 -266 c 0,51,52
 214 -255 214 -255 227.5 -235.5 c 128,-1,53
 241 -216 241 -216 243 -186 c 1,54,55
 238 -190 238 -190 231 -193 c 0,56,57
 217 -200 217 -200 201 -200 c 0,58,59
 175 -200 175 -200 157.5 -182 c 128,-1,60
 140 -164 140 -164 140 -136 c 0,37,38
EndSplineSet
EndChar

StartChar: florin
Encoding: 402 402 220
Width: 580
GlyphClass: 2
Flags: W
LayerCount: 2
Fore
SplineSet
10 -70 m 1,0,-1
 35 -65 l 1,1,2
 43 -122 43 -122 69.5 -151 c 128,-1,3
 96 -180 96 -180 130 -180 c 0,4,5
 145 -180 145 -180 159.5 -172 c 128,-1,6
 174 -164 174 -164 185 -144.5 c 128,-1,7
 196 -125 196 -125 203 -93.5 c 128,-1,8
 210 -62 210 -62 210 -15 c 2,9,-1
 210 435 l 1,10,-1
 130 445 l 1,11,-1
 130 465 l 1,12,-1
 210 465 l 1,13,-1
 210 500 l 2,14,15
 210 551 210 551 226 590.5 c 128,-1,16
 242 630 242 630 272 658 c 128,-1,17
 302 686 302 686 344.5 700.5 c 128,-1,18
 387 715 387 715 440 715 c 0,19,20
 481 715 481 715 516 709 c 128,-1,21
 551 703 551 703 576.5 690.5 c 128,-1,22
 602 678 602 678 616 658 c 128,-1,23
 630 638 630 638 630 610 c 0,24,25
 630 580 630 580 608.5 557.5 c 128,-1,26
 587 535 587 535 545 535 c 0,27,28
 535 535 535 535 528 535.5 c 128,-1,29
 521 536 521 536 516 537 c 0,30,31
 510 538 510 538 505 540 c 1,32,-1
 505 685 l 1,33,-1
 493 687 l 2,34,35
 488 688 488 688 481.5 689 c 128,-1,36
 475 690 475 690 470 690 c 0,37,38
 451 690 451 690 434.5 683 c 128,-1,39
 418 676 418 676 406 655 c 128,-1,40
 394 634 394 634 387 597 c 128,-1,41
 380 560 380 560 380 500 c 2,42,-1
 380 465 l 1,43,-1
 560 465 l 1,44,-1
 560 445 l 1,45,-1
 380 435 l 1,46,-1
 380 -15 l 2,47,48
 380 -101 380 -101 327.5 -153.5 c 128,-1,49
 275 -206 275 -206 170 -206 c 0,50,51
 131 -206 131 -206 103.5 -197.5 c 128,-1,52
 76 -189 76 -189 58 -172 c 128,-1,53
 40 -155 40 -155 28.5 -129.5 c 128,-1,54
 17 -104 17 -104 10 -70 c 1,0,-1
EndSplineSet
EndChar

StartChar: circumflex
Encoding: 710 710 221
Width: 310
GlyphClass: 2
Flags: W
LayerCount: 2
Fore
SplineSet
0 700 m 1,0,-1
 130 860 l 1,1,-1
 180 860 l 1,2,-1
 310 700 l 1,3,-1
 266 700 l 1,4,-1
 155 791 l 1,5,-1
 44 700 l 1,6,-1
 0 700 l 1,0,-1
EndSplineSet
EndChar

StartChar: caron
Encoding: 711 711 222
Width: 310
GlyphClass: 2
Flags: W
LayerCount: 2
Fore
SplineSet
0 860 m 1,0,-1
 44 860 l 1,1,-1
 155 769 l 1,2,-1
 266 860 l 1,3,-1
 310 860 l 1,4,-1
 180 700 l 1,5,-1
 130 700 l 1,6,-1
 0 860 l 1,0,-1
EndSplineSet
EndChar

StartChar: tilde
Encoding: 732 732 223
Width: 290
GlyphClass: 2
Flags: W
LayerCount: 2
Fore
SplineSet
5 700 m 1,0,1
 6 731 6 731 16 757 c 0,2,3
 24 779 24 779 42.5 797 c 128,-1,4
 61 815 61 815 95 815 c 0,5,6
 117 815 117 815 132.5 807 c 128,-1,7
 148 799 148 799 160 790 c 2,8,-1
 184 773 l 2,9,10
 195 765 195 765 210 765 c 0,11,12
 229 765 229 765 240.5 772 c 128,-1,13
 252 779 252 779 259 787 c 0,14,15
 267 797 267 797 270 810 c 1,16,-1
 285 810 l 1,17,18
 284 778 284 778 274 752 c 0,19,20
 266 730 266 730 247.5 712.5 c 128,-1,21
 229 695 229 695 195 695 c 0,22,23
 172 695 172 695 157 703 c 128,-1,24
 142 711 142 711 130 720 c 2,25,-1
 106 737 l 2,26,27
 95 745 95 745 80 745 c 0,28,29
 61 745 61 745 49.5 737.5 c 128,-1,30
 38 730 38 730 31 722 c 0,31,32
 23 712 23 712 20 700 c 1,33,-1
 5 700 l 1,0,1
EndSplineSet
EndChar

StartChar: endash
Encoding: 8211 8211 224
Width: 565
GlyphClass: 2
Flags: W
LayerCount: 2
Fore
SplineSet
30 290 m 1,0,-1
 30 335 l 1,1,-1
 535 335 l 1,2,-1
 535 290 l 1,3,-1
 30 290 l 1,0,-1
EndSplineSet
EndChar

StartChar: emdash
Encoding: 8212 8212 225
Width: 805
GlyphClass: 2
Flags: W
LayerCount: 2
Fore
SplineSet
30 290 m 1,0,-1
 30 335 l 1,1,-1
 775 335 l 1,2,-1
 775 290 l 1,3,-1
 30 290 l 1,0,-1
EndSplineSet
EndChar

StartChar: quoteleft
Encoding: 8216 8216 226
Width: 280
GlyphClass: 2
Flags: W
LayerCount: 2
Fore
SplineSet
60 526 m 0,0,1
 60 588 60 588 79 624.5 c 128,-1,2
 98 661 98 661 121 680 c 0,3,4
 148 702 148 702 183 710 c 1,5,-1
 192 691 l 1,6,7
 167 683 167 683 146 667 c 0,8,9
 128 653 128 653 112 629.5 c 128,-1,10
 96 606 96 606 93 569 c 1,11,12
 99 574 99 574 108 578 c 0,13,14
 115 581 115 581 124.5 584 c 128,-1,15
 134 587 134 587 145 587 c 0,16,17
 177 587 177 587 198.5 564.5 c 128,-1,18
 220 542 220 542 220 507 c 256,19,20
 220 472 220 472 198.5 449.5 c 128,-1,21
 177 427 177 427 145 427 c 0,22,23
 110 427 110 427 85 451.5 c 128,-1,24
 60 476 60 476 60 526 c 0,0,1
EndSplineSet
EndChar

StartChar: quoteright
Encoding: 8217 8217 227
Width: 280
GlyphClass: 2
Flags: W
LayerCount: 2
Fore
SplineSet
60 630 m 256,0,1
 60 665 60 665 81.5 687.5 c 128,-1,2
 103 710 103 710 135 710 c 0,3,4
 170 710 170 710 195 685.5 c 128,-1,5
 220 661 220 661 220 611 c 0,6,7
 220 548 220 548 200.5 512 c 128,-1,8
 181 476 181 476 158 457 c 0,9,10
 131 435 131 435 97 427 c 1,11,-1
 88 446 l 1,12,13
 113 454 113 454 134 470 c 0,14,15
 152 484 152 484 167.5 507 c 128,-1,16
 183 530 183 530 187 568 c 1,17,18
 179 563 179 563 171 559 c 256,19,20
 163 555 163 555 154.5 552.5 c 128,-1,21
 146 550 146 550 135 550 c 0,22,23
 103 550 103 550 81.5 572.5 c 128,-1,24
 60 595 60 595 60 630 c 256,0,1
EndSplineSet
EndChar

StartChar: quotesinglbase
Encoding: 8218 8218 228
Width: 280
GlyphClass: 2
Flags: W
LayerCount: 2
Fore
SplineSet
60 70 m 256,0,1
 60 105 60 105 81.5 127.5 c 128,-1,2
 103 150 103 150 135 150 c 0,3,4
 170 150 170 150 195 125.5 c 128,-1,5
 220 101 220 101 220 51 c 0,6,7
 220 -12 220 -12 200.5 -48 c 128,-1,8
 181 -84 181 -84 158 -103 c 0,9,10
 131 -125 131 -125 97 -133 c 1,11,-1
 88 -114 l 1,12,13
 113 -106 113 -106 134 -90 c 0,14,15
 152 -76 152 -76 167.5 -53 c 128,-1,16
 183 -30 183 -30 187 8 c 1,17,18
 179 3 179 3 171 -1 c 256,19,20
 163 -5 163 -5 154.5 -7.5 c 128,-1,21
 146 -10 146 -10 135 -10 c 0,22,23
 103 -10 103 -10 81.5 12.5 c 128,-1,24
 60 35 60 35 60 70 c 256,0,1
EndSplineSet
EndChar

StartChar: quotedblleft
Encoding: 8220 8220 229
Width: 490
GlyphClass: 2
Flags: W
LayerCount: 2
Fore
SplineSet
60 526 m 0,0,1
 60 588 60 588 79 624.5 c 128,-1,2
 98 661 98 661 121 680 c 0,3,4
 148 702 148 702 183 710 c 1,5,-1
 192 691 l 1,6,7
 167 683 167 683 146 667 c 0,8,9
 128 653 128 653 112 629.5 c 128,-1,10
 96 606 96 606 93 569 c 1,11,12
 99 574 99 574 108 578 c 0,13,14
 115 581 115 581 124.5 584 c 128,-1,15
 134 587 134 587 145 587 c 0,16,17
 177 587 177 587 198.5 564.5 c 128,-1,18
 220 542 220 542 220 507 c 256,19,20
 220 472 220 472 198.5 449.5 c 128,-1,21
 177 427 177 427 145 427 c 0,22,23
 110 427 110 427 85 451.5 c 128,-1,24
 60 476 60 476 60 526 c 0,0,1
270 526 m 0,25,26
 270 588 270 588 289 624.5 c 128,-1,27
 308 661 308 661 331 680 c 0,28,29
 358 702 358 702 393 710 c 1,30,-1
 402 691 l 1,31,32
 377 683 377 683 356 667 c 0,33,34
 338 653 338 653 322 629.5 c 128,-1,35
 306 606 306 606 303 569 c 1,36,37
 309 574 309 574 318 578 c 0,38,39
 325 581 325 581 334.5 584 c 128,-1,40
 344 587 344 587 355 587 c 0,41,42
 387 587 387 587 408.5 564.5 c 128,-1,43
 430 542 430 542 430 507 c 256,44,45
 430 472 430 472 408.5 449.5 c 128,-1,46
 387 427 387 427 355 427 c 0,47,48
 320 427 320 427 295 451.5 c 128,-1,49
 270 476 270 476 270 526 c 0,25,26
EndSplineSet
EndChar

StartChar: quotedblright
Encoding: 8221 8221 230
Width: 490
GlyphClass: 2
Flags: W
LayerCount: 2
Fore
SplineSet
60 630 m 256,0,1
 60 665 60 665 81.5 687.5 c 128,-1,2
 103 710 103 710 135 710 c 0,3,4
 170 710 170 710 195 685.5 c 128,-1,5
 220 661 220 661 220 611 c 0,6,7
 220 548 220 548 200.5 512 c 128,-1,8
 181 476 181 476 158 457 c 0,9,10
 131 435 131 435 97 427 c 1,11,-1
 88 446 l 1,12,13
 113 454 113 454 134 470 c 0,14,15
 152 484 152 484 167.5 507 c 128,-1,16
 183 530 183 530 187 568 c 1,17,18
 179 563 179 563 171 559 c 256,19,20
 163 555 163 555 154.5 552.5 c 128,-1,21
 146 550 146 550 135 550 c 0,22,23
 103 550 103 550 81.5 572.5 c 128,-1,24
 60 595 60 595 60 630 c 256,0,1
270 630 m 256,25,26
 270 665 270 665 291.5 687.5 c 128,-1,27
 313 710 313 710 345 710 c 0,28,29
 380 710 380 710 405 685.5 c 128,-1,30
 430 661 430 661 430 611 c 0,31,32
 430 548 430 548 410.5 512 c 128,-1,33
 391 476 391 476 368 457 c 0,34,35
 341 435 341 435 307 427 c 1,36,-1
 298 446 l 1,37,38
 323 454 323 454 344 470 c 0,39,40
 362 484 362 484 377.5 507 c 128,-1,41
 393 530 393 530 397 568 c 1,42,43
 389 563 389 563 381 559 c 256,44,45
 373 555 373 555 364.5 552.5 c 128,-1,46
 356 550 356 550 345 550 c 0,47,48
 313 550 313 550 291.5 572.5 c 128,-1,49
 270 595 270 595 270 630 c 256,25,26
EndSplineSet
EndChar

StartChar: quotedblbase
Encoding: 8222 8222 231
Width: 490
GlyphClass: 2
Flags: W
LayerCount: 2
Fore
SplineSet
60 70 m 256,0,1
 60 105 60 105 81.5 127.5 c 128,-1,2
 103 150 103 150 135 150 c 0,3,4
 170 150 170 150 195 125.5 c 128,-1,5
 220 101 220 101 220 51 c 0,6,7
 220 -12 220 -12 200.5 -48 c 128,-1,8
 181 -84 181 -84 158 -103 c 0,9,10
 131 -125 131 -125 97 -133 c 1,11,-1
 88 -114 l 1,12,13
 113 -106 113 -106 134 -90 c 0,14,15
 152 -76 152 -76 167.5 -53 c 128,-1,16
 183 -30 183 -30 187 8 c 1,17,18
 179 3 179 3 171 -1 c 256,19,20
 163 -5 163 -5 154.5 -7.5 c 128,-1,21
 146 -10 146 -10 135 -10 c 0,22,23
 103 -10 103 -10 81.5 12.5 c 128,-1,24
 60 35 60 35 60 70 c 256,0,1
270 70 m 256,25,26
 270 105 270 105 291.5 127.5 c 128,-1,27
 313 150 313 150 345 150 c 0,28,29
 380 150 380 150 405 125.5 c 128,-1,30
 430 101 430 101 430 51 c 0,31,32
 430 -12 430 -12 410.5 -48 c 128,-1,33
 391 -84 391 -84 368 -103 c 0,34,35
 341 -125 341 -125 307 -133 c 1,36,-1
 298 -114 l 1,37,38
 323 -106 323 -106 344 -90 c 0,39,40
 362 -76 362 -76 377.5 -53 c 128,-1,41
 393 -30 393 -30 397 8 c 1,42,43
 389 3 389 3 381 -1 c 256,44,45
 373 -5 373 -5 364.5 -7.5 c 128,-1,46
 356 -10 356 -10 345 -10 c 0,47,48
 313 -10 313 -10 291.5 12.5 c 128,-1,49
 270 35 270 35 270 70 c 256,25,26
EndSplineSet
EndChar

StartChar: dagger
Encoding: 8224 8224 232
Width: 470
GlyphClass: 2
Flags: W
LayerCount: 2
Fore
SplineSet
20 325 m 1,0,-1
 20 450 l 1,1,-1
 210 405 l 1,2,-1
 160 610 l 1,3,-1
 235 710 l 1,4,-1
 310 610 l 1,5,-1
 260 405 l 1,6,-1
 450 450 l 1,7,-1
 450 325 l 1,8,-1
 260 370 l 1,9,-1
 330 -20 l 1,10,-1
 235 -210 l 1,11,-1
 140 -20 l 1,12,-1
 210 370 l 1,13,-1
 20 325 l 1,0,-1
EndSplineSet
EndChar

StartChar: daggerdbl
Encoding: 8225 8225 233
Width: 470
GlyphClass: 2
Flags: W
LayerCount: 2
Fore
SplineSet
20 50 m 1,0,-1
 20 175 l 1,1,-1
 210 130 l 1,2,-1
 170 250 l 1,3,-1
 210 370 l 1,4,-1
 20 325 l 1,5,-1
 20 450 l 1,6,-1
 210 405 l 1,7,-1
 160 610 l 1,8,-1
 235 710 l 1,9,-1
 310 610 l 1,10,-1
 260 405 l 1,11,-1
 450 450 l 1,12,-1
 450 325 l 1,13,-1
 260 370 l 1,14,-1
 300 250 l 1,15,-1
 260 130 l 1,16,-1
 450 175 l 1,17,-1
 450 50 l 1,18,-1
 260 95 l 1,19,-1
 310 -110 l 1,20,-1
 235 -210 l 1,21,-1
 160 -110 l 1,22,-1
 210 95 l 1,23,-1
 20 50 l 1,0,-1
EndSplineSet
EndChar

StartChar: bullet
Encoding: 8226 8226 234
Width: 365
GlyphClass: 2
Flags: W
LayerCount: 2
Fore
SplineSet
80 332 m 0,0,1
 80 378 80 378 108.5 406.5 c 128,-1,2
 137 435 137 435 182 435 c 0,3,4
 228 435 228 435 256.5 406.5 c 128,-1,5
 285 378 285 378 285 332 c 0,6,7
 285 287 285 287 256.5 258.5 c 128,-1,8
 228 230 228 230 182 230 c 0,9,10
 137 230 137 230 108.5 258.5 c 128,-1,11
 80 287 80 287 80 332 c 0,0,1
EndSplineSet
EndChar

StartChar: ellipsis
Encoding: 8230 8230 235
Width: 760
GlyphClass: 2
Flags: W
LayerCount: 2
Fore
SplineSet
60 70 m 256,0,1
 60 105 60 105 82.5 127.5 c 128,-1,2
 105 150 105 150 140 150 c 256,3,4
 175 150 175 150 197.5 127.5 c 128,-1,5
 220 105 220 105 220 70 c 256,6,7
 220 35 220 35 197.5 12.5 c 128,-1,8
 175 -10 175 -10 140 -10 c 256,9,10
 105 -10 105 -10 82.5 12.5 c 128,-1,11
 60 35 60 35 60 70 c 256,0,1
300 70 m 256,12,13
 300 105 300 105 322.5 127.5 c 128,-1,14
 345 150 345 150 380 150 c 256,15,16
 415 150 415 150 437.5 127.5 c 128,-1,17
 460 105 460 105 460 70 c 256,18,19
 460 35 460 35 437.5 12.5 c 128,-1,20
 415 -10 415 -10 380 -10 c 256,21,22
 345 -10 345 -10 322.5 12.5 c 128,-1,23
 300 35 300 35 300 70 c 256,12,13
540 70 m 256,24,25
 540 105 540 105 562.5 127.5 c 128,-1,26
 585 150 585 150 620 150 c 256,27,28
 655 150 655 150 677.5 127.5 c 128,-1,29
 700 105 700 105 700 70 c 256,30,31
 700 35 700 35 677.5 12.5 c 128,-1,32
 655 -10 655 -10 620 -10 c 256,33,34
 585 -10 585 -10 562.5 12.5 c 128,-1,35
 540 35 540 35 540 70 c 256,24,25
EndSplineSet
EndChar

StartChar: perthousand
Encoding: 8240 8240 236
Width: 1145
GlyphClass: 3
Flags: W
LayerCount: 2
Fore
SplineSet
40 535 m 256,0,1
 40 614 40 614 83.5 662 c 128,-1,2
 127 710 127 710 210 710 c 256,3,4
 293 710 293 710 336.5 662 c 128,-1,5
 380 614 380 614 380 535 c 256,6,7
 380 456 380 456 336.5 408 c 128,-1,8
 293 360 293 360 210 360 c 256,9,10
 127 360 127 360 83.5 408 c 128,-1,11
 40 456 40 456 40 535 c 256,0,1
95 0 m 1,12,-1
 630 700 l 1,13,-1
 675 700 l 1,14,-1
 145 0 l 1,15,-1
 95 0 l 1,12,-1
155 535 m 256,16,17
 155 449 155 449 171 414.5 c 128,-1,18
 187 380 187 380 210 380 c 0,19,20
 221 380 221 380 231 388 c 128,-1,21
 241 396 241 396 248.5 414.5 c 128,-1,22
 256 433 256 433 260.5 462.5 c 128,-1,23
 265 492 265 492 265 535 c 256,24,25
 265 578 265 578 260.5 607.5 c 128,-1,26
 256 637 256 637 248.5 655.5 c 128,-1,27
 241 674 241 674 231 682 c 128,-1,28
 221 690 221 690 210 690 c 0,29,30
 187 690 187 690 171 655.5 c 128,-1,31
 155 621 155 621 155 535 c 256,16,17
395 165 m 256,32,33
 395 244 395 244 438.5 292 c 128,-1,34
 482 340 482 340 565 340 c 256,35,36
 648 340 648 340 691.5 292 c 128,-1,37
 735 244 735 244 735 165 c 256,38,39
 735 86 735 86 691.5 38 c 128,-1,40
 648 -10 648 -10 565 -10 c 256,41,42
 482 -10 482 -10 438.5 38 c 128,-1,43
 395 86 395 86 395 165 c 256,32,33
510 165 m 256,44,45
 510 79 510 79 526 44.5 c 128,-1,46
 542 10 542 10 565 10 c 0,47,48
 576 10 576 10 586 18 c 128,-1,49
 596 26 596 26 603.5 44.5 c 128,-1,50
 611 63 611 63 615.5 92.5 c 128,-1,51
 620 122 620 122 620 165 c 256,52,53
 620 208 620 208 615.5 237.5 c 128,-1,54
 611 267 611 267 603.5 285.5 c 128,-1,55
 596 304 596 304 586 312 c 128,-1,56
 576 320 576 320 565 320 c 0,57,58
 542 320 542 320 526 285.5 c 128,-1,59
 510 251 510 251 510 165 c 256,44,45
765 165 m 256,60,61
 765 244 765 244 808.5 292 c 128,-1,62
 852 340 852 340 935 340 c 256,63,64
 1018 340 1018 340 1061.5 292 c 128,-1,65
 1105 244 1105 244 1105 165 c 256,66,67
 1105 86 1105 86 1061.5 38 c 128,-1,68
 1018 -10 1018 -10 935 -10 c 256,69,70
 852 -10 852 -10 808.5 38 c 128,-1,71
 765 86 765 86 765 165 c 256,60,61
880 165 m 256,72,73
 880 79 880 79 896 44.5 c 128,-1,74
 912 10 912 10 935 10 c 0,75,76
 946 10 946 10 956 18 c 128,-1,77
 966 26 966 26 973.5 44.5 c 128,-1,78
 981 63 981 63 985.5 92.5 c 128,-1,79
 990 122 990 122 990 165 c 256,80,81
 990 208 990 208 985.5 237.5 c 128,-1,82
 981 267 981 267 973.5 285.5 c 128,-1,83
 966 304 966 304 956 312 c 128,-1,84
 946 320 946 320 935 320 c 0,85,86
 912 320 912 320 896 285.5 c 128,-1,87
 880 251 880 251 880 165 c 256,72,73
EndSplineSet
Ligature2: "'frac' Diagonal Fractions in Latin lookup 0 subtable" zero slash zero zero
EndChar

StartChar: guilsinglleft
Encoding: 8249 8249 237
Width: 410
GlyphClass: 2
Flags: W
LayerCount: 2
Fore
SplineSet
0 250 m 1,0,-1
 350 500 l 1,1,-1
 370 475 l 1,2,-1
 115 250 l 1,3,-1
 370 25 l 1,4,-1
 350 0 l 1,5,-1
 0 250 l 1,0,-1
EndSplineSet
EndChar

StartChar: guilsinglright
Encoding: 8250 8250 238
Width: 410
GlyphClass: 2
Flags: W
LayerCount: 2
Fore
SplineSet
40 25 m 1,0,-1
 295 250 l 1,1,-1
 40 475 l 1,2,-1
 60 500 l 1,3,-1
 410 250 l 1,4,-1
 60 0 l 1,5,-1
 40 25 l 1,0,-1
EndSplineSet
EndChar

StartChar: Euro
Encoding: 8364 8364 239
Width: 740
GlyphClass: 2
Flags: W
LayerCount: 2
Fore
SplineSet
20 270 m 1,0,-1
 20 305 l 1,1,-1
 107 305 l 1,2,3
 106 316 106 316 105.5 327 c 128,-1,4
 105 338 105 338 105 350 c 0,5,6
 105 359 105 359 105.5 367.5 c 128,-1,7
 106 376 106 376 106 385 c 1,8,-1
 30 385 l 1,9,-1
 30 420 l 1,10,-1
 109 420 l 1,11,12
 120 499 120 499 152.5 555.5 c 128,-1,13
 185 612 185 612 229 647 c 128,-1,14
 273 682 273 682 323.5 698.5 c 128,-1,15
 374 715 374 715 420 715 c 0,16,17
 462 715 462 715 493 703 c 128,-1,18
 524 691 524 691 546 677 c 0,19,20
 572 660 572 660 590 640 c 1,21,22
 601 657 601 657 613 670 c 0,23,24
 624 681 624 681 638.5 690.5 c 128,-1,25
 653 700 653 700 670 700 c 2,26,-1
 690 700 l 1,27,-1
 690 510 l 1,28,-1
 645 510 l 1,29,30
 632 540 632 540 611.5 572 c 128,-1,31
 591 604 591 604 564.5 630 c 128,-1,32
 538 656 538 656 505 673 c 128,-1,33
 472 690 472 690 435 690 c 0,34,35
 413 690 413 690 388.5 676 c 128,-1,36
 364 662 364 662 342 630.5 c 128,-1,37
 320 599 320 599 304 547 c 128,-1,38
 288 495 288 495 282 420 c 1,39,-1
 505 420 l 1,40,-1
 505 385 l 1,41,-1
 280 385 l 1,42,-1
 280 350 l 1,43,-1
 280 327 l 2,44,45
 280 316 280 316 281 305 c 1,46,-1
 495 305 l 1,47,-1
 495 270 l 1,48,-1
 283 270 l 1,49,50
 289 198 289 198 306.5 148 c 128,-1,51
 324 98 324 98 348.5 67.5 c 128,-1,52
 373 37 373 37 403 23.5 c 128,-1,53
 433 10 433 10 465 10 c 0,54,55
 499 10 499 10 531 20.5 c 128,-1,56
 563 31 563 31 591 50 c 128,-1,57
 619 69 619 69 641 94.5 c 128,-1,58
 663 120 663 120 677 150 c 1,59,-1
 700 135 l 1,60,61
 683 103 683 103 659.5 75.5 c 128,-1,62
 636 48 636 48 605 28 c 128,-1,63
 574 8 574 8 535.5 -3.5 c 128,-1,64
 497 -15 497 -15 450 -15 c 0,65,66
 395 -15 395 -15 339.5 0.5 c 128,-1,67
 284 16 284 16 237.5 50 c 128,-1,68
 191 84 191 84 157 138.5 c 128,-1,69
 123 193 123 193 111 270 c 1,70,-1
 20 270 l 1,0,-1
EndSplineSet
EndChar

StartChar: trademark
Encoding: 8482 8482 240
Width: 970
GlyphClass: 2
Flags: W
LayerCount: 2
Fore
SplineSet
40 575 m 1,0,-1
 40 700 l 1,1,-1
 385 700 l 1,2,-1
 385 575 l 1,3,-1
 365 575 l 1,4,5
 354 587 354 587 344 603 c 0,6,7
 336 617 336 617 329 636 c 128,-1,8
 322 655 322 655 320 680 c 1,9,-1
 270 680 l 1,10,-1
 270 390 l 1,11,-1
 330 385 l 1,12,-1
 330 370 l 1,13,-1
 95 370 l 1,14,-1
 95 385 l 1,15,-1
 155 390 l 1,16,-1
 155 680 l 1,17,-1
 105 680 l 1,18,19
 103 655 103 655 96 636 c 128,-1,20
 89 617 89 617 81 603 c 0,21,22
 71 587 71 587 60 575 c 1,23,-1
 40 575 l 1,0,-1
415 370 m 1,24,-1
 415 385 l 1,25,-1
 475 390 l 1,26,-1
 475 680 l 1,27,-1
 415 685 l 1,28,-1
 415 700 l 1,29,-1
 505 700 l 2,30,31
 524 700 524 700 537 695.5 c 128,-1,32
 550 691 550 691 559.5 683.5 c 128,-1,33
 569 676 569 676 576 666 c 2,34,-1
 590 645 l 1,35,-1
 685 495 l 1,36,-1
 760 645 l 2,37,38
 766 656 766 656 773 666 c 128,-1,39
 780 676 780 676 789.5 683.5 c 128,-1,40
 799 691 799 691 812.5 695.5 c 128,-1,41
 826 700 826 700 845 700 c 2,42,-1
 930 700 l 1,43,-1
 930 685 l 1,44,-1
 870 680 l 1,45,-1
 870 390 l 1,46,-1
 930 385 l 1,47,-1
 930 370 l 1,48,-1
 695 370 l 1,49,-1
 695 385 l 1,50,-1
 755 390 l 1,51,-1
 755 580 l 1,52,-1
 645 360 l 1,53,-1
 635 360 l 1,54,-1
 500 580 l 1,55,-1
 500 390 l 1,56,-1
 560 385 l 1,57,-1
 560 370 l 1,58,-1
 415 370 l 1,24,-1
EndSplineSet
EndChar

StartChar: foundryicon
Encoding: 65539 -1 241
Width: 2405
GlyphClass: 2
Flags: W
LayerCount: 2
Fore
SplineSet
50 0 m 1,0,-1
 50 320 l 1,1,-1
 370 0 l 1,2,-1
 50 0 l 1,0,-1
195 380 m 1,3,-1
 515 700 l 1,4,-1
 515 380 l 1,5,-1
 195 380 l 1,3,-1
370 0 m 1,6,-1
 370 160 l 1,7,-1
 690 0 l 1,8,-1
 370 0 l 1,6,-1
370 160 m 1,9,-1
 370 320 l 1,10,-1
 690 320 l 1,11,-1
 370 160 l 1,9,-1
540 540 m 256,12,13
 540 576 540 576 553 607 c 128,-1,14
 566 638 566 638 589 661 c 128,-1,15
 612 684 612 684 643 697 c 128,-1,16
 674 710 674 710 710 710 c 256,17,18
 746 710 746 710 777 697 c 128,-1,19
 808 684 808 684 831 661 c 128,-1,20
 854 638 854 638 867 607 c 128,-1,21
 880 576 880 576 880 540 c 256,22,23
 880 504 880 504 867 473 c 128,-1,24
 854 442 854 442 831 419 c 128,-1,25
 808 396 808 396 777 383 c 128,-1,26
 746 370 746 370 710 370 c 256,27,28
 674 370 674 370 643 383 c 128,-1,29
 612 396 612 396 589 419 c 128,-1,30
 566 442 566 442 553 473 c 128,-1,31
 540 504 540 504 540 540 c 256,12,13
700 0 m 1,32,-1
 700 320 l 1,33,-1
 860 0 l 1,34,-1
 700 0 l 1,32,-1
850 700 m 1,35,-1
 1170 700 l 1,36,-1
 1010 380 l 1,37,-1
 850 700 l 1,35,-1
860 0 m 1,38,-1
 1020 320 l 1,39,-1
 1020 0 l 1,40,-1
 860 0 l 1,38,-1
1045 160 m 256,41,42
 1045 196 1045 196 1058 227 c 128,-1,43
 1071 258 1071 258 1094 281 c 128,-1,44
 1117 304 1117 304 1148 317 c 128,-1,45
 1179 330 1179 330 1215 330 c 256,46,47
 1251 330 1251 330 1282 317 c 128,-1,48
 1313 304 1313 304 1336 281 c 128,-1,49
 1359 258 1359 258 1372 227 c 128,-1,50
 1385 196 1385 196 1385 160 c 256,51,52
 1385 124 1385 124 1372 93 c 128,-1,53
 1359 62 1359 62 1336 39 c 128,-1,54
 1313 16 1313 16 1282 3 c 128,-1,55
 1251 -10 1251 -10 1215 -10 c 256,56,57
 1179 -10 1179 -10 1148 3 c 128,-1,58
 1117 16 1117 16 1094 39 c 128,-1,59
 1071 62 1071 62 1058 93 c 128,-1,60
 1045 124 1045 124 1045 160 c 256,41,42
1055 380 m 1,61,-1
 1215 700 l 1,62,-1
 1375 380 l 1,63,-1
 1055 380 l 1,61,-1
1385 380 m 1,64,-1
 1385 675 l 1,65,-1
 1670 380 l 1,66,-1
 1385 380 l 1,64,-1
1410 0 m 1,67,-1
 1410 295 l 1,68,-1
 1695 0 l 1,69,-1
 1410 0 l 1,67,-1
1410 700 m 1,70,-1
 1695 700 l 1,71,-1
 1695 405 l 1,72,-1
 1410 700 l 1,70,-1
1435 320 m 1,73,-1
 1720 320 l 1,74,-1
 1720 25 l 1,75,-1
 1435 320 l 1,73,-1
1730 0 m 1,76,-1
 1890 320 l 1,77,-1
 2050 0 l 1,78,-1
 1730 0 l 1,76,-1
1735 380 m 1,79,-1
 1735 675 l 1,80,-1
 2020 380 l 1,81,-1
 1735 380 l 1,79,-1
1760 700 m 1,82,-1
 2045 700 l 1,83,-1
 2045 405 l 1,84,-1
 1760 700 l 1,82,-1
2055 700 m 1,85,-1
 2375 700 l 1,86,-1
 2215 380 l 1,87,-1
 2055 700 l 1,85,-1
2060 -10 m 1,88,-1
 2060 330 l 1,89,90
 2096 330 2096 330 2127 317 c 128,-1,91
 2158 304 2158 304 2181 281 c 128,-1,92
 2204 258 2204 258 2217 227 c 128,-1,93
 2230 196 2230 196 2230 160 c 256,94,95
 2230 124 2230 124 2217 93 c 128,-1,96
 2204 62 2204 62 2181 39 c 128,-1,97
 2158 16 2158 16 2127 3 c 128,-1,98
 2096 -10 2096 -10 2060 -10 c 1,88,-1
EndSplineSet
EndChar
